M48
;Layer_Color=9474304
;FILE_FORMAT=2:5
INCH,TZ
;TYPE=PLATED
T1F00S00C0.01968
T2F00S00C0.02953
T3F00S00C0.03937
T4F00S00C0.05906
T5F00S00C0.07283
;TYPE=NON_PLATED
T6F00S00C0.09843
T7F00S00C0.12598
%
T01
X202658Y13287
X214173Y3150
X221419Y23163
X226655Y34344
X226230Y47490
X221161Y44833
X223585Y54698
X241260Y54567
X249175Y54501
X255435Y55328
X262992Y59350
X271591Y46780
X286260Y45354
X286122Y37992
X288779Y51535
X289882Y56102
X310332Y60292
X316831Y10827
X291634Y16142
X256458Y23163
X253190Y33279
X242421Y22638
X238110Y41378
X234646Y67638
X204331Y52461
X205610Y43701
X198327Y43799
X195945Y34134
X192717Y43602
X156398Y42815
X154921Y60532
X125787Y58760
X125295Y83858
X143427Y126037
X148427Y125879
X158466Y126194
X138583Y159449
X131732Y176496
X114665Y144685
X53445Y108563
X60728Y97835
X74311Y210531
X68504Y217520
X240256Y213583
X234273Y204392
X203346Y163287
X195118Y163150
X203976Y133386
X199902Y126476
X216024Y131929
X221161Y131988
X225787Y127677
X250814Y125346
X258976Y104449
X226476Y94685
X213504Y103661
X214685Y83583
X209213Y83622
X285236Y135531
X293406Y135630
X337598Y138484
X340551Y178740
X345965Y204331
X313755Y185268
X354921Y207677
X388287Y207185
X391772Y210984
X384724Y203110
X359154Y233661
X359252Y258858
X359055Y281398
X358760Y308858
X359016Y335472
X359055Y364862
X349346Y375985
X334941Y337598
X321063Y344783
X319384Y293675
X337008Y284744
X347979Y301895
X347598Y250197
X334646Y235138
X316535Y241929
X224311Y242224
X236516Y293996
X175990Y301458
X180217Y306890
X180330Y337922
X181988Y383268
X152953Y375787
X148991Y379503
X133268Y375984
X142520Y298425
X151279Y296260
X168507Y277835
X189983Y250775
X62717Y307402
T02
X268347Y78937
Y83937
Y88937
T03
X204490Y-7152
X214490
X224490
X234490
X179567Y-3701
Y6299
Y16299
Y26299
X162500Y21220
Y11220
Y1221
X147047Y26476
X111713Y32185
X111811Y40945
X80610Y60925
X173189Y44882
X183189
X28248Y120965
X19094Y121063
X26476Y166437
X26673Y199705
X-15157Y199606
X119291Y176969
X188150Y177520
X250787Y134055
X282776Y158661
X294980
X311614Y147283
X321614
X325709Y120284
X315709
X312480Y97520
X285472Y187795
X315059Y229232
X313976Y282185
X275689Y292717
X276279Y246949
X273327Y341142
X314075Y335335
X312598Y385630
X190650Y360925
X168455Y370270
X158455
X154266Y352551
X144266
X134266
X132888Y303024
X127717Y291457
X152953Y251575
X164055Y247874
Y257874
X180566Y271557
X190566
X49114Y234646
X74646Y350000
X84646
X84567Y361417
X74567
X36713Y331890
X-1772Y342323
X-10039Y342421
X-14567Y272736
X-2067
X37894Y234449
X61417Y396358
X266142Y389173
T04
X-3779Y199724
X16220
X166063Y193937
X195827Y233622
X205748Y253465
Y273307
Y293150
X195827Y312992
X207953Y364134
X227953
X262180Y360701
Y380701
X262106Y337756
Y317756
X262032Y295273
Y275273
X261914Y252730
Y232730
X106535Y233622
X96614Y253465
Y273307
Y293150
X106535Y312992
T05
X44055Y373228
X25551
X7047
T06
X391745Y-13961
X-16929Y-13976
X-16978Y469685
X391748Y469652
T07
X142729Y402395
X232283Y452756
M30
