G04 Layer_Color=16711935*
%FSLAX25Y25*%
%MOIN*%
G70*
G01*
G75*
%ADD10C,0.01200*%
%ADD101R,0.03359X0.05524*%
%ADD102R,0.05131X0.06312*%
%ADD105R,0.04343X0.06312*%
%ADD107R,0.06312X0.05131*%
%ADD108R,0.04540X0.03950*%
%ADD118R,0.07493X0.05131*%
%ADD119R,0.06312X0.04343*%
%ADD120R,0.11036X0.05131*%
%ADD125R,0.05524X0.03359*%
%ADD126R,0.05131X0.07493*%
%ADD137C,0.00800*%
%ADD138C,0.07099*%
%ADD139R,0.07099X0.07099*%
%ADD140R,0.07099X0.07099*%
G04:AMPARAMS|DCode=141|XSize=74.93mil|YSize=50.13mil|CornerRadius=14.53mil|HoleSize=0mil|Usage=FLASHONLY|Rotation=180.000|XOffset=0mil|YOffset=0mil|HoleType=Round|Shape=RoundedRectangle|*
%AMROUNDEDRECTD141*
21,1,0.07493,0.02106,0,0,180.0*
21,1,0.04587,0.05013,0,0,180.0*
1,1,0.02906,-0.02293,0.01053*
1,1,0.02906,0.02293,0.01053*
1,1,0.02906,0.02293,-0.01053*
1,1,0.02906,-0.02293,-0.01053*
%
%ADD141ROUNDEDRECTD141*%
%ADD142O,0.07493X0.05013*%
%ADD143C,0.09461*%
%ADD144C,0.12611*%
%ADD145R,0.12611X0.12611*%
%ADD146C,0.08674*%
%ADD147R,0.08674X0.08674*%
%ADD148R,0.08674X0.08674*%
%ADD149C,0.06706*%
%ADD150R,0.06706X0.06706*%
%ADD151R,0.06706X0.06706*%
%ADD152C,0.07099*%
%ADD153R,0.07099X0.07099*%
%ADD154C,0.03950*%
%ADD155R,0.05918X0.03950*%
%ADD156R,0.06699X0.12211*%
%ADD157R,0.26778X0.26778*%
%ADD158R,0.26778X0.26778*%
%ADD159R,0.12211X0.06699*%
G36*
X41560Y425082D02*
X39174D01*
X38779Y426341D01*
X36129D01*
X35748Y425082D01*
X33274D01*
X36129Y432695D01*
X38706D01*
X41560Y425082D01*
D02*
G37*
G36*
X32484D02*
X30127D01*
Y428171D01*
X29921D01*
X29804Y428157D01*
X29702Y428142D01*
X29599Y428113D01*
X29512Y428083D01*
X29453Y428039D01*
X29395Y428010D01*
X29365Y427995D01*
X29351Y427981D01*
X29277Y427922D01*
X29204Y427834D01*
X29072Y427644D01*
X29014Y427542D01*
X28970Y427468D01*
X28941Y427410D01*
X28926Y427395D01*
X27652Y425082D01*
X24988D01*
X26144Y427278D01*
X26188Y427351D01*
X26232Y427424D01*
X26349Y427571D01*
X26393Y427644D01*
X26437Y427703D01*
X26467Y427732D01*
X26481Y427747D01*
X26569Y427849D01*
X26642Y427937D01*
X26701Y428010D01*
X26745Y428069D01*
X26818Y428142D01*
X26847Y428157D01*
X26935Y428200D01*
X27023Y428259D01*
X27228Y428347D01*
X27316Y428376D01*
X27389Y428405D01*
X27447Y428435D01*
X27462D01*
X27272Y428479D01*
X27111Y428537D01*
X26964Y428581D01*
X26847Y428625D01*
X26759Y428669D01*
X26686Y428698D01*
X26642Y428727D01*
X26627D01*
X26467Y428845D01*
X26305Y428962D01*
X26188Y429094D01*
X26071Y429211D01*
X25998Y429313D01*
X25925Y429401D01*
X25896Y429459D01*
X25881Y429474D01*
X25793Y429650D01*
X25720Y429840D01*
X25676Y430030D01*
X25632Y430206D01*
X25617Y430352D01*
X25603Y430470D01*
Y430543D01*
Y430572D01*
X25617Y430836D01*
X25661Y431070D01*
X25720Y431289D01*
X25778Y431465D01*
X25852Y431612D01*
X25910Y431714D01*
X25954Y431773D01*
X25969Y431802D01*
X26115Y431978D01*
X26261Y432124D01*
X26423Y432256D01*
X26569Y432344D01*
X26701Y432417D01*
X26803Y432461D01*
X26876Y432490D01*
X26906Y432505D01*
X27140Y432563D01*
X27403Y432622D01*
X27682Y432651D01*
X27945Y432666D01*
X28179Y432680D01*
X28297Y432695D01*
X32484D01*
Y425082D01*
D02*
G37*
G36*
X61595Y442211D02*
X61859Y442182D01*
X62108Y442138D01*
X62342Y442094D01*
X62561Y442021D01*
X62752Y441947D01*
X62927Y441874D01*
X63088Y441786D01*
X63220Y441699D01*
X63337Y441625D01*
X63440Y441552D01*
X63528Y441479D01*
X63586Y441435D01*
X63630Y441391D01*
X63659Y441362D01*
X63674Y441347D01*
X63806Y441172D01*
X63923Y440967D01*
X64040Y440747D01*
X64128Y440513D01*
X64260Y440015D01*
X64347Y439502D01*
X64391Y439268D01*
X64406Y439049D01*
X64421Y438844D01*
X64435Y438668D01*
X64450Y438522D01*
Y438419D01*
Y438346D01*
Y438317D01*
Y437995D01*
X64421Y437687D01*
X64406Y437409D01*
X64377Y437175D01*
X64347Y436970D01*
X64333Y436823D01*
X64318Y436765D01*
X64304Y436721D01*
Y436706D01*
Y436692D01*
X64245Y436443D01*
X64172Y436208D01*
X64099Y436018D01*
X64040Y435857D01*
X63981Y435725D01*
X63923Y435623D01*
X63894Y435564D01*
X63879Y435550D01*
X63733Y435345D01*
X63572Y435154D01*
X63411Y434993D01*
X63249Y434876D01*
X63118Y434774D01*
X63015Y434701D01*
X62942Y434657D01*
X62913Y434642D01*
X62678Y434540D01*
X62415Y434466D01*
X62151Y434422D01*
X61917Y434393D01*
X61698Y434364D01*
X61595D01*
X61522Y434349D01*
X61361D01*
X61054Y434364D01*
X60761Y434393D01*
X60497Y434437D01*
X60263Y434496D01*
X60043Y434569D01*
X59838Y434657D01*
X59663Y434730D01*
X59516Y434832D01*
X59370Y434920D01*
X59253Y434993D01*
X59165Y435081D01*
X59077Y435154D01*
X59018Y435213D01*
X58975Y435257D01*
X58960Y435286D01*
X58945Y435301D01*
X58828Y435491D01*
X58711Y435711D01*
X58623Y435945D01*
X58535Y436179D01*
X58418Y436692D01*
X58330Y437175D01*
X58301Y437409D01*
X58272Y437629D01*
X58257Y437819D01*
Y437995D01*
X58243Y438141D01*
Y438243D01*
Y438302D01*
Y438331D01*
X58257Y438683D01*
X58272Y439005D01*
X58316Y439312D01*
X58345Y439576D01*
X58389Y439795D01*
X58404Y439898D01*
X58433Y439971D01*
X58448Y440030D01*
Y440073D01*
X58462Y440103D01*
Y440117D01*
X58506Y440278D01*
X58550Y440425D01*
X58594Y440557D01*
X58653Y440674D01*
X58682Y440762D01*
X58726Y440835D01*
X58740Y440879D01*
X58755Y440893D01*
X58901Y441142D01*
X58989Y441245D01*
X59062Y441347D01*
X59136Y441420D01*
X59180Y441479D01*
X59224Y441523D01*
X59238Y441538D01*
X59355Y441655D01*
X59487Y441742D01*
X59750Y441903D01*
X59868Y441962D01*
X59956Y442006D01*
X60014Y442021D01*
X60043Y442035D01*
X60234Y442094D01*
X60453Y442152D01*
X60658Y442182D01*
X60863Y442196D01*
X61039Y442211D01*
X61171Y442226D01*
X61302D01*
X61595Y442211D01*
D02*
G37*
G36*
X50249Y440308D02*
X46487D01*
X46897Y439781D01*
X47233Y439268D01*
X47526Y438814D01*
X47658Y438610D01*
X47775Y438405D01*
X47863Y438229D01*
X47951Y438068D01*
X48024Y437936D01*
X48082Y437819D01*
X48126Y437731D01*
X48156Y437658D01*
X48185Y437614D01*
Y437599D01*
X48375Y437102D01*
X48522Y436575D01*
X48668Y436062D01*
X48712Y435813D01*
X48770Y435564D01*
X48814Y435345D01*
X48858Y435140D01*
X48888Y434949D01*
X48917Y434788D01*
X48932Y434657D01*
X48946Y434569D01*
X48961Y434496D01*
Y434481D01*
X46853D01*
X46809Y434964D01*
X46750Y435403D01*
X46677Y435799D01*
X46648Y435974D01*
X46618Y436135D01*
X46589Y436282D01*
X46560Y436413D01*
X46531Y436531D01*
X46501Y436618D01*
X46487Y436692D01*
X46472Y436750D01*
X46457Y436779D01*
Y436794D01*
X46296Y437248D01*
X46135Y437687D01*
X45960Y438068D01*
X45872Y438243D01*
X45799Y438405D01*
X45711Y438551D01*
X45652Y438683D01*
X45579Y438800D01*
X45520Y438902D01*
X45476Y438975D01*
X45447Y439034D01*
X45418Y439063D01*
Y439078D01*
X45198Y439385D01*
X44979Y439678D01*
X44759Y439956D01*
X44540Y440191D01*
X44349Y440381D01*
X44203Y440527D01*
X44144Y440586D01*
X44100Y440630D01*
X44086Y440644D01*
X44071Y440659D01*
Y442094D01*
X50249D01*
Y440308D01*
D02*
G37*
G36*
X15384Y425082D02*
X8972D01*
Y426810D01*
X13027D01*
Y428303D01*
X9367D01*
Y429855D01*
X13027D01*
Y431070D01*
X9089D01*
Y432695D01*
X15384D01*
Y425082D01*
D02*
G37*
G36*
X68857Y442211D02*
X69193Y442182D01*
X69472Y442138D01*
X69720Y442094D01*
X69911Y442035D01*
X70042Y441991D01*
X70130Y441962D01*
X70160Y441947D01*
X70364Y441845D01*
X70555Y441713D01*
X70716Y441581D01*
X70848Y441464D01*
X70965Y441347D01*
X71038Y441259D01*
X71082Y441201D01*
X71096Y441172D01*
X71214Y440967D01*
X71302Y440747D01*
X71375Y440513D01*
X71433Y440293D01*
X71477Y440088D01*
X71506Y439927D01*
X71521Y439868D01*
X71536Y439825D01*
Y439795D01*
Y439781D01*
X69413Y439620D01*
X69369Y439839D01*
X69325Y440030D01*
X69266Y440191D01*
X69208Y440308D01*
X69164Y440396D01*
X69120Y440469D01*
X69091Y440498D01*
X69076Y440513D01*
X68974Y440600D01*
X68871Y440659D01*
X68754Y440718D01*
X68652Y440747D01*
X68564Y440762D01*
X68491Y440776D01*
X68417D01*
X68271Y440762D01*
X68154Y440732D01*
X68037Y440703D01*
X67949Y440659D01*
X67876Y440600D01*
X67817Y440571D01*
X67788Y440542D01*
X67773Y440527D01*
X67685Y440425D01*
X67627Y440322D01*
X67568Y440235D01*
X67539Y440132D01*
X67524Y440059D01*
X67510Y439986D01*
Y439942D01*
Y439927D01*
X67524Y439810D01*
X67554Y439678D01*
X67598Y439561D01*
X67642Y439459D01*
X67685Y439371D01*
X67729Y439298D01*
X67759Y439254D01*
X67773Y439239D01*
X67832Y439166D01*
X67905Y439093D01*
X68066Y438932D01*
X68271Y438756D01*
X68476Y438595D01*
X68666Y438434D01*
X68827Y438317D01*
X68886Y438273D01*
X68930Y438229D01*
X68959Y438214D01*
X68974Y438200D01*
X69252Y437995D01*
X69501Y437790D01*
X69720Y437599D01*
X69925Y437424D01*
X70116Y437248D01*
X70291Y437087D01*
X70438Y436940D01*
X70569Y436794D01*
X70687Y436677D01*
X70789Y436560D01*
X70862Y436472D01*
X70921Y436384D01*
X70979Y436326D01*
X71009Y436282D01*
X71038Y436252D01*
Y436238D01*
X71228Y435930D01*
X71375Y435623D01*
X71492Y435316D01*
X71580Y435052D01*
X71638Y434818D01*
X71653Y434730D01*
X71667Y434642D01*
X71682Y434569D01*
X71697Y434525D01*
Y434496D01*
Y434481D01*
X65343D01*
Y436208D01*
X68666D01*
X68461Y436399D01*
X68300Y436545D01*
X68242Y436589D01*
X68198Y436633D01*
X68168Y436648D01*
X68154Y436662D01*
X68051Y436736D01*
X67934Y436838D01*
X67642Y437043D01*
X67510Y437131D01*
X67407Y437204D01*
X67334Y437263D01*
X67305Y437277D01*
X67114Y437424D01*
X66924Y437555D01*
X66763Y437687D01*
X66617Y437819D01*
X66353Y438053D01*
X66148Y438258D01*
X66002Y438434D01*
X65885Y438566D01*
X65826Y438639D01*
X65812Y438668D01*
X65680Y438917D01*
X65577Y439151D01*
X65504Y439371D01*
X65446Y439576D01*
X65416Y439751D01*
X65402Y439883D01*
Y439971D01*
Y439986D01*
Y440000D01*
X65416Y440235D01*
X65460Y440469D01*
X65519Y440659D01*
X65577Y440835D01*
X65650Y440981D01*
X65709Y441098D01*
X65753Y441157D01*
X65768Y441186D01*
X65914Y441376D01*
X66075Y441538D01*
X66236Y441669D01*
X66382Y441772D01*
X66529Y441860D01*
X66646Y441918D01*
X66719Y441947D01*
X66734Y441962D01*
X66748D01*
X66997Y442050D01*
X67276Y442108D01*
X67568Y442167D01*
X67846Y442196D01*
X68095Y442211D01*
X68198D01*
X68286Y442226D01*
X68476D01*
X68857Y442211D01*
D02*
G37*
G36*
X37337Y441962D02*
X37498Y441728D01*
X37644Y441508D01*
X37805Y441332D01*
X37937Y441186D01*
X38039Y441084D01*
X38113Y441025D01*
X38142Y440996D01*
X38391Y440820D01*
X38654Y440659D01*
X38932Y440527D01*
X39196Y440410D01*
X39445Y440308D01*
X39547Y440264D01*
X39635Y440235D01*
X39708Y440205D01*
X39767Y440191D01*
X39796Y440176D01*
X39811D01*
Y438448D01*
X39547Y438536D01*
X39313Y438610D01*
X39108Y438683D01*
X38932Y438756D01*
X38786Y438814D01*
X38684Y438858D01*
X38610Y438888D01*
X38596Y438902D01*
X38230Y439107D01*
X38069Y439210D01*
X37908Y439312D01*
X37776Y439415D01*
X37673Y439488D01*
X37615Y439532D01*
X37586Y439546D01*
Y434481D01*
X35448D01*
Y442226D01*
X37205D01*
X37337Y441962D01*
D02*
G37*
G36*
X54466D02*
X54627Y441728D01*
X54773Y441508D01*
X54934Y441332D01*
X55066Y441186D01*
X55168Y441084D01*
X55241Y441025D01*
X55271Y440996D01*
X55520Y440820D01*
X55783Y440659D01*
X56061Y440527D01*
X56325Y440410D01*
X56574Y440308D01*
X56676Y440264D01*
X56764Y440235D01*
X56837Y440205D01*
X56896Y440191D01*
X56925Y440176D01*
X56940D01*
Y438448D01*
X56676Y438536D01*
X56442Y438610D01*
X56237Y438683D01*
X56061Y438756D01*
X55915Y438814D01*
X55812Y438858D01*
X55739Y438888D01*
X55725Y438902D01*
X55358Y439107D01*
X55198Y439210D01*
X55036Y439312D01*
X54905Y439415D01*
X54802Y439488D01*
X54744Y439532D01*
X54714Y439546D01*
Y434481D01*
X52577D01*
Y442226D01*
X54334D01*
X54466Y441962D01*
D02*
G37*
G36*
X43632Y434349D02*
X42578D01*
X40645Y442226D01*
X41714D01*
X43632Y434349D01*
D02*
G37*
G36*
X20903Y432812D02*
X21313Y432768D01*
X21665Y432710D01*
X21826Y432666D01*
X21957Y432636D01*
X22089Y432607D01*
X22206Y432563D01*
X22294Y432534D01*
X22367Y432505D01*
X22426Y432475D01*
X22484Y432461D01*
X22499Y432446D01*
X22514D01*
X22865Y432256D01*
X23173Y432036D01*
X23421Y431802D01*
X23641Y431582D01*
X23802Y431377D01*
X23919Y431202D01*
X23963Y431143D01*
X23992Y431099D01*
X24022Y431070D01*
Y431055D01*
X24197Y430704D01*
X24314Y430323D01*
X24402Y429972D01*
X24475Y429621D01*
X24490Y429474D01*
X24505Y429328D01*
X24519Y429211D01*
Y429094D01*
X24534Y429006D01*
Y428947D01*
Y428903D01*
Y428889D01*
X24519Y428464D01*
X24461Y428054D01*
X24388Y427703D01*
X24300Y427395D01*
X24256Y427249D01*
X24212Y427132D01*
X24168Y427029D01*
X24139Y426941D01*
X24109Y426868D01*
X24080Y426824D01*
X24066Y426795D01*
Y426780D01*
X23875Y426458D01*
X23656Y426180D01*
X23436Y425946D01*
X23231Y425756D01*
X23041Y425595D01*
X22894Y425492D01*
X22836Y425448D01*
X22792Y425433D01*
X22763Y425404D01*
X22748D01*
X22411Y425258D01*
X22031Y425141D01*
X21665Y425068D01*
X21313Y425009D01*
X21152Y424994D01*
X21006Y424980D01*
X20874Y424965D01*
X20757D01*
X20669Y424950D01*
X20537D01*
X20142Y424965D01*
X19776Y424994D01*
X19454Y425024D01*
X19176Y425082D01*
X18941Y425126D01*
X18854Y425141D01*
X18780Y425155D01*
X18722Y425170D01*
X18663Y425185D01*
X18649Y425199D01*
X18634D01*
X18327Y425316D01*
X18005Y425463D01*
X17697Y425624D01*
X17404Y425785D01*
X17155Y425931D01*
X17038Y425990D01*
X16951Y426048D01*
X16877Y426092D01*
X16819Y426136D01*
X16789Y426151D01*
X16775Y426165D01*
Y429430D01*
X20420D01*
Y427849D01*
X18839D01*
Y427117D01*
X19015Y427015D01*
X19161Y426941D01*
X19308Y426868D01*
X19425Y426810D01*
X19527Y426780D01*
X19615Y426751D01*
X19659Y426722D01*
X19673D01*
X19937Y426663D01*
X20069Y426649D01*
X20171Y426634D01*
X20274Y426619D01*
X20420D01*
X20713Y426649D01*
X20977Y426707D01*
X21196Y426780D01*
X21386Y426883D01*
X21533Y426985D01*
X21635Y427059D01*
X21694Y427117D01*
X21723Y427146D01*
X21796Y427249D01*
X21869Y427381D01*
X21987Y427644D01*
X22060Y427937D01*
X22118Y428230D01*
X22148Y428493D01*
X22162Y428596D01*
Y428698D01*
X22177Y428786D01*
Y428845D01*
Y428889D01*
Y428903D01*
Y429123D01*
X22162Y429313D01*
X22104Y429664D01*
X22031Y429957D01*
X21943Y430206D01*
X21869Y430382D01*
X21796Y430514D01*
X21738Y430587D01*
X21723Y430616D01*
X21533Y430792D01*
X21342Y430924D01*
X21137Y431026D01*
X20933Y431084D01*
X20757Y431128D01*
X20625Y431143D01*
X20567Y431158D01*
X20493D01*
X20303Y431143D01*
X20142Y431128D01*
X19981Y431084D01*
X19864Y431041D01*
X19761Y430997D01*
X19688Y430967D01*
X19644Y430938D01*
X19630Y430924D01*
X19512Y430836D01*
X19410Y430719D01*
X19322Y430616D01*
X19264Y430514D01*
X19205Y430411D01*
X19176Y430338D01*
X19147Y430279D01*
Y430265D01*
X16877Y430660D01*
X16965Y430924D01*
X17068Y431172D01*
X17170Y431377D01*
X17273Y431553D01*
X17360Y431685D01*
X17434Y431787D01*
X17492Y431860D01*
X17507Y431875D01*
X17668Y432051D01*
X17843Y432197D01*
X18019Y432314D01*
X18180Y432417D01*
X18327Y432490D01*
X18444Y432549D01*
X18517Y432578D01*
X18532Y432592D01*
X18546D01*
X18678Y432636D01*
X18810Y432666D01*
X19103Y432724D01*
X19425Y432768D01*
X19732Y432797D01*
X19996Y432812D01*
X20127Y432827D01*
X20435D01*
X20903Y432812D01*
D02*
G37*
G36*
X81542Y425082D02*
X79185D01*
Y427908D01*
X77897D01*
X77633Y427922D01*
X77399Y427937D01*
X77179Y427966D01*
X76974Y428010D01*
X76784Y428054D01*
X76609Y428113D01*
X76447Y428171D01*
X76316Y428230D01*
X76184Y428288D01*
X76081Y428347D01*
X75994Y428405D01*
X75920Y428449D01*
X75862Y428493D01*
X75818Y428522D01*
X75803Y428552D01*
X75789D01*
X75671Y428684D01*
X75554Y428815D01*
X75379Y429108D01*
X75262Y429401D01*
X75174Y429694D01*
X75115Y429957D01*
X75101Y430060D01*
Y430162D01*
X75086Y430235D01*
Y430309D01*
Y430338D01*
Y430352D01*
Y430557D01*
X75115Y430748D01*
X75188Y431099D01*
X75291Y431392D01*
X75408Y431641D01*
X75525Y431831D01*
X75628Y431963D01*
X75701Y432051D01*
X75715Y432080D01*
X75730D01*
X75862Y432183D01*
X75994Y432285D01*
X76301Y432431D01*
X76609Y432549D01*
X76931Y432622D01*
X77209Y432666D01*
X77326Y432680D01*
X77443D01*
X77531Y432695D01*
X81542D01*
Y425082D01*
D02*
G37*
G36*
X90370Y428157D02*
X90355Y427937D01*
X90341Y427717D01*
X90311Y427498D01*
X90268Y427293D01*
X90224Y427132D01*
X90194Y426985D01*
X90180Y426897D01*
X90165Y426883D01*
Y426868D01*
X90107Y426707D01*
X90019Y426546D01*
X89931Y426385D01*
X89858Y426253D01*
X89770Y426151D01*
X89711Y426063D01*
X89667Y426004D01*
X89653Y425990D01*
X89506Y425843D01*
X89375Y425712D01*
X89243Y425595D01*
X89111Y425507D01*
X89009Y425433D01*
X88921Y425375D01*
X88862Y425346D01*
X88848Y425331D01*
X88672Y425258D01*
X88496Y425185D01*
X88306Y425126D01*
X88130Y425097D01*
X87984Y425053D01*
X87852Y425038D01*
X87779Y425024D01*
X87749D01*
X87515Y424994D01*
X87281Y424980D01*
X87076Y424965D01*
X86900D01*
X86754Y424950D01*
X86549D01*
X86198Y424965D01*
X85876Y424994D01*
X85597Y425024D01*
X85363Y425082D01*
X85158Y425126D01*
X85012Y425155D01*
X84968Y425170D01*
X84924Y425185D01*
X84909Y425199D01*
X84895D01*
X84719Y425272D01*
X84543Y425375D01*
X84382Y425477D01*
X84251Y425580D01*
X84133Y425682D01*
X84031Y425756D01*
X83972Y425814D01*
X83958Y425829D01*
X83797Y426004D01*
X83665Y426180D01*
X83548Y426356D01*
X83460Y426532D01*
X83387Y426663D01*
X83343Y426780D01*
X83314Y426854D01*
X83299Y426883D01*
X83226Y427117D01*
X83167Y427337D01*
X83138Y427556D01*
X83109Y427747D01*
X83094Y427908D01*
X83079Y428039D01*
Y428127D01*
Y428157D01*
Y432695D01*
X85422D01*
Y428039D01*
X85436Y427820D01*
X85480Y427615D01*
X85539Y427454D01*
X85597Y427307D01*
X85656Y427205D01*
X85715Y427117D01*
X85759Y427073D01*
X85773Y427059D01*
X85919Y426941D01*
X86066Y426868D01*
X86227Y426810D01*
X86373Y426766D01*
X86520Y426736D01*
X86622Y426722D01*
X86725D01*
X86944Y426736D01*
X87135Y426780D01*
X87296Y426824D01*
X87442Y426897D01*
X87545Y426956D01*
X87632Y427000D01*
X87676Y427044D01*
X87691Y427059D01*
X87808Y427205D01*
X87881Y427366D01*
X87940Y427527D01*
X87984Y427688D01*
X88013Y427820D01*
X88028Y427937D01*
Y428010D01*
Y428039D01*
Y432695D01*
X90370D01*
Y428157D01*
D02*
G37*
G36*
X54692Y432812D02*
X55000Y432783D01*
X55293Y432739D01*
X55571Y432666D01*
X55820Y432592D01*
X56054Y432505D01*
X56274Y432417D01*
X56464Y432314D01*
X56625Y432226D01*
X56786Y432124D01*
X56903Y432036D01*
X57006Y431963D01*
X57093Y431890D01*
X57152Y431846D01*
X57181Y431816D01*
X57196Y431802D01*
X57371Y431597D01*
X57518Y431392D01*
X57650Y431158D01*
X57767Y430924D01*
X57869Y430689D01*
X57942Y430440D01*
X58060Y429972D01*
X58104Y429752D01*
X58133Y429547D01*
X58162Y429372D01*
X58177Y429211D01*
X58191Y429079D01*
Y428991D01*
Y428918D01*
Y428903D01*
X58162Y428391D01*
X58104Y427937D01*
X58060Y427732D01*
X58016Y427542D01*
X57957Y427366D01*
X57899Y427205D01*
X57855Y427059D01*
X57796Y426941D01*
X57752Y426824D01*
X57708Y426736D01*
X57679Y426663D01*
X57650Y426619D01*
X57620Y426590D01*
Y426575D01*
X57401Y426253D01*
X57167Y425990D01*
X56947Y425770D01*
X56727Y425595D01*
X56552Y425463D01*
X56405Y425375D01*
X56347Y425346D01*
X56303Y425316D01*
X56288Y425302D01*
X56274D01*
X55951Y425185D01*
X55615Y425097D01*
X55278Y425038D01*
X54956Y424994D01*
X54678Y424965D01*
X54546D01*
X54444Y424950D01*
X54239D01*
X53873Y424965D01*
X53536Y424994D01*
X53258Y425038D01*
X53009Y425097D01*
X52819Y425155D01*
X52672Y425199D01*
X52584Y425229D01*
X52555Y425243D01*
X52321Y425360D01*
X52101Y425507D01*
X51911Y425653D01*
X51764Y425800D01*
X51633Y425917D01*
X51530Y426019D01*
X51472Y426092D01*
X51457Y426122D01*
X51296Y426356D01*
X51164Y426590D01*
X51047Y426839D01*
X50945Y427073D01*
X50871Y427263D01*
X50827Y427424D01*
X50813Y427483D01*
X50798Y427527D01*
X50783Y427556D01*
Y427571D01*
X52848Y428200D01*
X52921Y427937D01*
X52994Y427717D01*
X53082Y427527D01*
X53170Y427366D01*
X53243Y427249D01*
X53302Y427161D01*
X53346Y427102D01*
X53360Y427088D01*
X53507Y426971D01*
X53653Y426883D01*
X53829Y426810D01*
X53990Y426766D01*
X54136Y426736D01*
X54253Y426722D01*
X54370D01*
X54619Y426736D01*
X54839Y426795D01*
X55014Y426868D01*
X55176Y426956D01*
X55293Y427044D01*
X55380Y427117D01*
X55439Y427176D01*
X55454Y427190D01*
X55527Y427293D01*
X55585Y427395D01*
X55673Y427659D01*
X55747Y427937D01*
X55790Y428230D01*
X55820Y428493D01*
Y428610D01*
X55834Y428713D01*
Y428801D01*
Y428859D01*
Y428903D01*
Y428918D01*
X55820Y429284D01*
X55790Y429591D01*
X55732Y429840D01*
X55673Y430060D01*
X55615Y430221D01*
X55556Y430338D01*
X55527Y430396D01*
X55512Y430426D01*
X55424Y430543D01*
X55337Y430645D01*
X55146Y430792D01*
X54941Y430909D01*
X54751Y430997D01*
X54575Y431041D01*
X54429Y431055D01*
X54370Y431070D01*
X54297D01*
X54048Y431041D01*
X53946Y431026D01*
X53843Y430997D01*
X53770Y430967D01*
X53711Y430953D01*
X53682Y430924D01*
X53668D01*
X53463Y430792D01*
X53302Y430660D01*
X53243Y430601D01*
X53199Y430543D01*
X53184Y430514D01*
X53170Y430499D01*
X53126Y430426D01*
X53082Y430352D01*
X53009Y430192D01*
X52979Y430118D01*
X52950Y430060D01*
X52936Y430016D01*
Y430001D01*
X50857Y430455D01*
X51032Y430880D01*
X51223Y431246D01*
X51428Y431553D01*
X51618Y431802D01*
X51808Y431992D01*
X51955Y432139D01*
X52013Y432183D01*
X52057Y432212D01*
X52072Y432241D01*
X52087D01*
X52248Y432344D01*
X52423Y432431D01*
X52789Y432578D01*
X53170Y432680D01*
X53521Y432754D01*
X53697Y432783D01*
X53858Y432797D01*
X53990Y432812D01*
X54121D01*
X54209Y432827D01*
X54356D01*
X54692Y432812D01*
D02*
G37*
G36*
X49627Y425082D02*
X47270D01*
Y428157D01*
X44708D01*
Y425082D01*
X42351D01*
Y432695D01*
X44708D01*
Y430030D01*
X47270D01*
Y432695D01*
X49627D01*
Y425082D01*
D02*
G37*
G36*
X30588Y442211D02*
X30954Y442152D01*
X31276Y442079D01*
X31539Y441991D01*
X31744Y441903D01*
X31832Y441860D01*
X31891Y441830D01*
X31949Y441801D01*
X31993Y441772D01*
X32008Y441757D01*
X32022D01*
X32183Y441640D01*
X32315Y441508D01*
X32432Y441391D01*
X32535Y441259D01*
X32623Y441128D01*
X32696Y440996D01*
X32798Y440747D01*
X32871Y440527D01*
X32886Y440425D01*
X32901Y440352D01*
X32915Y440278D01*
Y440235D01*
Y440205D01*
Y440191D01*
X32901Y439986D01*
X32871Y439781D01*
X32813Y439605D01*
X32754Y439459D01*
X32710Y439341D01*
X32652Y439239D01*
X32623Y439180D01*
X32608Y439166D01*
X32520Y439049D01*
X32403Y438932D01*
X32286Y438829D01*
X32169Y438741D01*
X32066Y438668D01*
X31978Y438610D01*
X31905Y438580D01*
X31891Y438566D01*
X32110Y438463D01*
X32315Y438346D01*
X32476Y438229D01*
X32608Y438112D01*
X32710Y438009D01*
X32784Y437921D01*
X32828Y437863D01*
X32842Y437848D01*
X32945Y437673D01*
X33018Y437482D01*
X33076Y437292D01*
X33106Y437116D01*
X33135Y436955D01*
X33150Y436838D01*
Y436750D01*
Y436736D01*
Y436721D01*
X33135Y436472D01*
X33106Y436238D01*
X33047Y436018D01*
X32989Y435843D01*
X32930Y435696D01*
X32871Y435579D01*
X32842Y435506D01*
X32828Y435476D01*
X32696Y435286D01*
X32535Y435111D01*
X32374Y434964D01*
X32213Y434847D01*
X32081Y434745D01*
X31964Y434686D01*
X31891Y434642D01*
X31861Y434627D01*
X31598Y434540D01*
X31305Y434466D01*
X30998Y434422D01*
X30690Y434378D01*
X30427Y434364D01*
X30310D01*
X30207Y434349D01*
X29782D01*
X29548Y434364D01*
X29343Y434393D01*
X29168Y434422D01*
X29021Y434437D01*
X28904Y434466D01*
X28831Y434481D01*
X28802D01*
X28597Y434525D01*
X28406Y434584D01*
X28245Y434657D01*
X28113Y434715D01*
X27996Y434774D01*
X27923Y434818D01*
X27865Y434847D01*
X27850Y434862D01*
X27718Y434979D01*
X27586Y435096D01*
X27484Y435228D01*
X27382Y435359D01*
X27308Y435462D01*
X27250Y435550D01*
X27220Y435623D01*
X27206Y435638D01*
X27118Y435828D01*
X27059Y436018D01*
X27001Y436194D01*
X26972Y436355D01*
X26957Y436501D01*
X26942Y436604D01*
Y436677D01*
Y436706D01*
X26957Y436926D01*
X26986Y437116D01*
X27045Y437306D01*
X27089Y437468D01*
X27147Y437585D01*
X27206Y437687D01*
X27235Y437760D01*
X27250Y437775D01*
X27382Y437951D01*
X27528Y438112D01*
X27674Y438243D01*
X27821Y438361D01*
X27967Y438448D01*
X28070Y438507D01*
X28143Y438551D01*
X28172Y438566D01*
X28011Y438683D01*
X27865Y438800D01*
X27747Y438917D01*
X27645Y439005D01*
X27572Y439093D01*
X27528Y439151D01*
X27499Y439195D01*
X27484Y439210D01*
X27382Y439385D01*
X27308Y439546D01*
X27264Y439722D01*
X27220Y439868D01*
X27206Y439986D01*
X27191Y440088D01*
Y440147D01*
Y440176D01*
X27206Y440337D01*
X27220Y440498D01*
X27308Y440776D01*
X27425Y441025D01*
X27557Y441245D01*
X27689Y441406D01*
X27806Y441538D01*
X27894Y441611D01*
X27909Y441640D01*
X27923D01*
X28070Y441742D01*
X28231Y441830D01*
X28582Y441977D01*
X28963Y442079D01*
X29329Y442152D01*
X29490Y442182D01*
X29651Y442196D01*
X29797Y442211D01*
X29929D01*
X30031Y442226D01*
X30178D01*
X30588Y442211D01*
D02*
G37*
G36*
X73856Y425082D02*
X67444D01*
Y426810D01*
X71499D01*
Y428303D01*
X67839D01*
Y429855D01*
X71499D01*
Y431070D01*
X67561D01*
Y432695D01*
X73856D01*
Y425082D01*
D02*
G37*
G36*
X66155D02*
X63798D01*
Y428171D01*
X63594D01*
X63476Y428157D01*
X63374Y428142D01*
X63271Y428113D01*
X63184Y428083D01*
X63125Y428039D01*
X63067Y428010D01*
X63037Y427995D01*
X63023Y427981D01*
X62949Y427922D01*
X62876Y427834D01*
X62744Y427644D01*
X62686Y427542D01*
X62642Y427468D01*
X62613Y427410D01*
X62598Y427395D01*
X61324Y425082D01*
X58660D01*
X59816Y427278D01*
X59860Y427351D01*
X59904Y427424D01*
X60021Y427571D01*
X60065Y427644D01*
X60109Y427703D01*
X60138Y427732D01*
X60153Y427747D01*
X60241Y427849D01*
X60314Y427937D01*
X60373Y428010D01*
X60417Y428069D01*
X60490Y428142D01*
X60519Y428157D01*
X60607Y428200D01*
X60695Y428259D01*
X60900Y428347D01*
X60988Y428376D01*
X61061Y428405D01*
X61119Y428435D01*
X61134D01*
X60944Y428479D01*
X60783Y428537D01*
X60636Y428581D01*
X60519Y428625D01*
X60431Y428669D01*
X60358Y428698D01*
X60314Y428727D01*
X60299D01*
X60138Y428845D01*
X59977Y428962D01*
X59860Y429094D01*
X59743Y429211D01*
X59670Y429313D01*
X59597Y429401D01*
X59567Y429459D01*
X59553Y429474D01*
X59465Y429650D01*
X59392Y429840D01*
X59348Y430030D01*
X59304Y430206D01*
X59289Y430352D01*
X59275Y430470D01*
Y430543D01*
Y430572D01*
X59289Y430836D01*
X59333Y431070D01*
X59392Y431289D01*
X59450Y431465D01*
X59524Y431612D01*
X59582Y431714D01*
X59626Y431773D01*
X59641Y431802D01*
X59787Y431978D01*
X59934Y432124D01*
X60095Y432256D01*
X60241Y432344D01*
X60373Y432417D01*
X60475Y432461D01*
X60548Y432490D01*
X60578Y432505D01*
X60812Y432563D01*
X61075Y432622D01*
X61354Y432651D01*
X61617Y432666D01*
X61851Y432680D01*
X61968Y432695D01*
X66155D01*
Y425082D01*
D02*
G37*
G36*
X221417Y297441D02*
X215118D01*
Y309252D01*
X221417D01*
Y297441D01*
D02*
G37*
G36*
X239528D02*
X233228D01*
Y309252D01*
X239528D01*
Y297441D01*
D02*
G37*
G36*
X44466Y445842D02*
X41392D01*
Y447481D01*
X44466D01*
Y445842D01*
D02*
G37*
G36*
X95377Y432812D02*
X95743Y432783D01*
X96065Y432724D01*
X96329Y432680D01*
X96548Y432622D01*
X96636Y432592D01*
X96695Y432563D01*
X96753Y432549D01*
X96797Y432534D01*
X96812Y432519D01*
X96826D01*
X97061Y432402D01*
X97265Y432270D01*
X97441Y432139D01*
X97588Y432007D01*
X97690Y431875D01*
X97778Y431787D01*
X97822Y431729D01*
X97837Y431699D01*
X97954Y431494D01*
X98027Y431304D01*
X98085Y431114D01*
X98129Y430953D01*
X98159Y430806D01*
X98173Y430689D01*
Y430616D01*
Y430587D01*
X98159Y430426D01*
X98144Y430265D01*
X98071Y429986D01*
X97968Y429738D01*
X97837Y429518D01*
X97719Y429357D01*
X97617Y429225D01*
X97544Y429152D01*
X97514Y429123D01*
X97383Y429020D01*
X97236Y428918D01*
X96899Y428727D01*
X96534Y428566D01*
X96167Y428435D01*
X95992Y428376D01*
X95845Y428332D01*
X95699Y428288D01*
X95567Y428244D01*
X95465Y428230D01*
X95392Y428200D01*
X95333Y428186D01*
X95318D01*
X95157Y428142D01*
X94996Y428113D01*
X94733Y428025D01*
X94528Y427952D01*
X94367Y427893D01*
X94250Y427834D01*
X94177Y427790D01*
X94133Y427761D01*
X94118Y427747D01*
X94030Y427659D01*
X93972Y427571D01*
X93913Y427483D01*
X93884Y427395D01*
X93869Y427322D01*
X93854Y427263D01*
Y427234D01*
Y427220D01*
X93869Y427102D01*
X93898Y427000D01*
X93986Y426839D01*
X94045Y426766D01*
X94089Y426722D01*
X94118Y426692D01*
X94133Y426678D01*
X94235Y426605D01*
X94367Y426546D01*
X94484Y426502D01*
X94616Y426473D01*
X94718Y426458D01*
X94806Y426444D01*
X94894D01*
X95128Y426458D01*
X95333Y426517D01*
X95509Y426590D01*
X95655Y426678D01*
X95772Y426751D01*
X95845Y426824D01*
X95904Y426883D01*
X95919Y426897D01*
X95992Y427015D01*
X96065Y427146D01*
X96153Y427424D01*
X96182Y427542D01*
X96197Y427644D01*
X96211Y427703D01*
Y427732D01*
X98451Y427586D01*
X98422Y427381D01*
X98393Y427176D01*
X98290Y426795D01*
X98144Y426473D01*
X97997Y426195D01*
X97851Y425975D01*
X97793Y425887D01*
X97734Y425814D01*
X97690Y425756D01*
X97646Y425712D01*
X97632Y425697D01*
X97617Y425682D01*
X97470Y425551D01*
X97280Y425448D01*
X97090Y425346D01*
X96885Y425258D01*
X96446Y425126D01*
X95992Y425038D01*
X95787Y425009D01*
X95582Y424994D01*
X95406Y424980D01*
X95245Y424965D01*
X95113Y424950D01*
X94938D01*
X94542Y424965D01*
X94191Y424994D01*
X93884Y425053D01*
X93620Y425111D01*
X93401Y425155D01*
X93327Y425185D01*
X93254Y425214D01*
X93196Y425229D01*
X93152Y425243D01*
X93137Y425258D01*
X93122D01*
X92859Y425390D01*
X92639Y425536D01*
X92434Y425697D01*
X92273Y425843D01*
X92141Y425990D01*
X92054Y426092D01*
X91995Y426165D01*
X91980Y426195D01*
X91849Y426429D01*
X91746Y426678D01*
X91673Y426897D01*
X91615Y427117D01*
X91585Y427293D01*
X91571Y427439D01*
Y427483D01*
Y427527D01*
Y427542D01*
Y427556D01*
X91585Y427776D01*
X91615Y427995D01*
X91673Y428186D01*
X91717Y428347D01*
X91776Y428479D01*
X91834Y428581D01*
X91863Y428640D01*
X91878Y428669D01*
X92010Y428859D01*
X92156Y429020D01*
X92317Y429167D01*
X92478Y429284D01*
X92625Y429386D01*
X92742Y429459D01*
X92830Y429503D01*
X92844Y429518D01*
X92859D01*
X92991Y429577D01*
X93137Y429650D01*
X93474Y429767D01*
X93840Y429884D01*
X94206Y429986D01*
X94367Y430030D01*
X94528Y430074D01*
X94674Y430104D01*
X94806Y430133D01*
X94908Y430162D01*
X94982Y430177D01*
X95040Y430192D01*
X95055D01*
X95260Y430235D01*
X95436Y430294D01*
X95567Y430338D01*
X95670Y430382D01*
X95743Y430411D01*
X95802Y430440D01*
X95816Y430470D01*
X95831D01*
X95889Y430528D01*
X95919Y430587D01*
X95977Y430689D01*
X95992Y430777D01*
Y430792D01*
Y430806D01*
X95977Y430894D01*
X95963Y430982D01*
X95889Y431114D01*
X95816Y431202D01*
X95802Y431216D01*
X95787Y431231D01*
X95699Y431289D01*
X95611Y431333D01*
X95406Y431392D01*
X95318D01*
X95245Y431407D01*
X95187D01*
X95011Y431392D01*
X94850Y431377D01*
X94718Y431333D01*
X94616Y431289D01*
X94528Y431246D01*
X94455Y431216D01*
X94425Y431187D01*
X94411Y431172D01*
X94308Y431070D01*
X94220Y430953D01*
X94162Y430836D01*
X94103Y430719D01*
X94074Y430601D01*
X94045Y430514D01*
X94030Y430455D01*
Y430426D01*
X91819Y430543D01*
X91849Y430762D01*
X91907Y430953D01*
X91951Y431143D01*
X92024Y431319D01*
X92171Y431612D01*
X92332Y431846D01*
X92493Y432036D01*
X92625Y432168D01*
X92712Y432241D01*
X92727Y432270D01*
X92742D01*
X92888Y432373D01*
X93049Y432461D01*
X93401Y432592D01*
X93781Y432695D01*
X94133Y432754D01*
X94294Y432783D01*
X94455Y432797D01*
X94586Y432812D01*
X94718D01*
X94806Y432827D01*
X94952D01*
X95377Y432812D01*
D02*
G37*
G36*
X240512Y316339D02*
X214134D01*
Y342717D01*
X240512D01*
Y316339D01*
D02*
G37*
G36*
X138967Y330315D02*
X127156D01*
Y336614D01*
X138967D01*
Y330315D01*
D02*
G37*
G36*
X172432Y311221D02*
X146054D01*
Y337598D01*
X172432D01*
Y311221D01*
D02*
G37*
G36*
X138967Y312205D02*
X127156D01*
Y318504D01*
X138967D01*
Y312205D01*
D02*
G37*
G36*
X7683Y425082D02*
X5326D01*
Y428171D01*
X5121D01*
X5004Y428157D01*
X4902Y428142D01*
X4799Y428113D01*
X4711Y428083D01*
X4653Y428039D01*
X4594Y428010D01*
X4565Y427995D01*
X4550Y427981D01*
X4477Y427922D01*
X4404Y427834D01*
X4272Y427644D01*
X4214Y427542D01*
X4170Y427468D01*
X4140Y427410D01*
X4126Y427395D01*
X2852Y425082D01*
X188D01*
X1344Y427278D01*
X1388Y427351D01*
X1432Y427424D01*
X1549Y427571D01*
X1593Y427644D01*
X1637Y427703D01*
X1666Y427732D01*
X1681Y427747D01*
X1769Y427849D01*
X1842Y427937D01*
X1901Y428010D01*
X1945Y428069D01*
X2018Y428142D01*
X2047Y428157D01*
X2135Y428200D01*
X2223Y428259D01*
X2428Y428347D01*
X2515Y428376D01*
X2589Y428405D01*
X2647Y428435D01*
X2662D01*
X2472Y428479D01*
X2310Y428537D01*
X2164Y428581D01*
X2047Y428625D01*
X1959Y428669D01*
X1886Y428698D01*
X1842Y428727D01*
X1827D01*
X1666Y428845D01*
X1505Y428962D01*
X1388Y429094D01*
X1271Y429211D01*
X1198Y429313D01*
X1125Y429401D01*
X1095Y429459D01*
X1081Y429474D01*
X993Y429650D01*
X920Y429840D01*
X876Y430030D01*
X832Y430206D01*
X817Y430352D01*
X803Y430470D01*
Y430543D01*
Y430572D01*
X817Y430836D01*
X861Y431070D01*
X920Y431289D01*
X978Y431465D01*
X1051Y431612D01*
X1110Y431714D01*
X1154Y431773D01*
X1169Y431802D01*
X1315Y431978D01*
X1461Y432124D01*
X1622Y432256D01*
X1769Y432344D01*
X1901Y432417D01*
X2003Y432461D01*
X2076Y432490D01*
X2105Y432505D01*
X2340Y432563D01*
X2603Y432622D01*
X2881Y432651D01*
X3145Y432666D01*
X3379Y432680D01*
X3496Y432695D01*
X7683D01*
Y425082D01*
D02*
G37*
G36*
X22052Y443880D02*
X19695D01*
Y446969D01*
X19490D01*
X19373Y446954D01*
X19271Y446940D01*
X19168Y446910D01*
X19081Y446881D01*
X19022Y446837D01*
X18963Y446808D01*
X18934Y446793D01*
X18920Y446779D01*
X18846Y446720D01*
X18773Y446632D01*
X18641Y446442D01*
X18583Y446339D01*
X18539Y446266D01*
X18510Y446208D01*
X18495Y446193D01*
X17221Y443880D01*
X14557D01*
X15713Y446076D01*
X15757Y446149D01*
X15801Y446222D01*
X15918Y446369D01*
X15962Y446442D01*
X16006Y446500D01*
X16036Y446530D01*
X16050Y446544D01*
X16138Y446647D01*
X16211Y446735D01*
X16270Y446808D01*
X16314Y446866D01*
X16387Y446940D01*
X16416Y446954D01*
X16504Y446998D01*
X16592Y447057D01*
X16797Y447145D01*
X16885Y447174D01*
X16958Y447203D01*
X17016Y447232D01*
X17031D01*
X16841Y447276D01*
X16680Y447335D01*
X16533Y447379D01*
X16416Y447423D01*
X16328Y447467D01*
X16255Y447496D01*
X16211Y447525D01*
X16196D01*
X16036Y447642D01*
X15874Y447759D01*
X15757Y447891D01*
X15640Y448008D01*
X15567Y448111D01*
X15494Y448199D01*
X15464Y448257D01*
X15450Y448272D01*
X15362Y448448D01*
X15289Y448638D01*
X15245Y448828D01*
X15201Y449004D01*
X15186Y449150D01*
X15172Y449267D01*
Y449341D01*
Y449370D01*
X15186Y449633D01*
X15230Y449868D01*
X15289Y450087D01*
X15347Y450263D01*
X15421Y450409D01*
X15479Y450512D01*
X15523Y450570D01*
X15538Y450600D01*
X15684Y450775D01*
X15831Y450922D01*
X15992Y451053D01*
X16138Y451141D01*
X16270Y451215D01*
X16372Y451258D01*
X16445Y451288D01*
X16475Y451302D01*
X16709Y451361D01*
X16972Y451419D01*
X17251Y451449D01*
X17514Y451463D01*
X17748Y451478D01*
X17865Y451493D01*
X22052D01*
Y443880D01*
D02*
G37*
G36*
X29753D02*
X23341D01*
Y445607D01*
X27396D01*
Y447101D01*
X23736D01*
Y448653D01*
X27396D01*
Y449868D01*
X23458D01*
Y451493D01*
X29753D01*
Y443880D01*
D02*
G37*
G36*
X57174Y451610D02*
X57496Y451580D01*
X57789Y451522D01*
X58067Y451463D01*
X58330Y451390D01*
X58565Y451302D01*
X58784Y451200D01*
X58989Y451112D01*
X59150Y451010D01*
X59311Y450907D01*
X59443Y450819D01*
X59546Y450746D01*
X59633Y450688D01*
X59692Y450629D01*
X59721Y450600D01*
X59736Y450585D01*
X59912Y450380D01*
X60073Y450160D01*
X60204Y449926D01*
X60321Y449692D01*
X60424Y449443D01*
X60512Y449209D01*
X60585Y448975D01*
X60629Y448740D01*
X60673Y448521D01*
X60702Y448316D01*
X60731Y448140D01*
X60746Y447979D01*
X60761Y447847D01*
Y447759D01*
Y447686D01*
Y447672D01*
X60731Y447189D01*
X60673Y446764D01*
X60600Y446383D01*
X60556Y446208D01*
X60497Y446061D01*
X60453Y445915D01*
X60409Y445798D01*
X60365Y445695D01*
X60321Y445607D01*
X60292Y445534D01*
X60263Y445490D01*
X60248Y445461D01*
Y445446D01*
X60043Y445139D01*
X59809Y444875D01*
X59575Y444656D01*
X59355Y444480D01*
X59165Y444334D01*
X59018Y444231D01*
X58960Y444202D01*
X58916Y444173D01*
X58887Y444158D01*
X58872D01*
X58535Y444026D01*
X58184Y443924D01*
X57818Y443851D01*
X57481Y443807D01*
X57335Y443777D01*
X57188D01*
X57057Y443763D01*
X56954Y443748D01*
X56735D01*
X56281Y443763D01*
X55871Y443821D01*
X55520Y443894D01*
X55358Y443938D01*
X55212Y443982D01*
X55080Y444026D01*
X54963Y444070D01*
X54861Y444114D01*
X54773Y444143D01*
X54714Y444173D01*
X54670Y444202D01*
X54641Y444217D01*
X54627D01*
X54319Y444407D01*
X54070Y444627D01*
X53836Y444846D01*
X53660Y445051D01*
X53514Y445241D01*
X53411Y445388D01*
X53368Y445446D01*
X53338Y445490D01*
X53324Y445520D01*
Y445534D01*
X53177Y445871D01*
X53060Y446237D01*
X52987Y446603D01*
X52928Y446954D01*
X52914Y447115D01*
X52899Y447262D01*
X52884Y447394D01*
X52870Y447511D01*
Y447598D01*
Y447672D01*
Y447716D01*
Y447730D01*
X52884Y448067D01*
X52914Y448389D01*
X52972Y448682D01*
X53031Y448960D01*
X53104Y449209D01*
X53192Y449443D01*
X53294Y449663D01*
X53382Y449853D01*
X53485Y450029D01*
X53587Y450175D01*
X53675Y450307D01*
X53748Y450409D01*
X53807Y450497D01*
X53865Y450556D01*
X53895Y450585D01*
X53909Y450600D01*
X54114Y450775D01*
X54334Y450936D01*
X54553Y451068D01*
X54802Y451200D01*
X55036Y451288D01*
X55285Y451376D01*
X55520Y451449D01*
X55754Y451493D01*
X55973Y451537D01*
X56178Y451566D01*
X56369Y451595D01*
X56530Y451610D01*
X56661Y451624D01*
X56837D01*
X57174Y451610D01*
D02*
G37*
G36*
X65460D02*
X65826Y451580D01*
X66148Y451522D01*
X66412Y451478D01*
X66631Y451419D01*
X66719Y451390D01*
X66778Y451361D01*
X66836Y451346D01*
X66880Y451332D01*
X66895Y451317D01*
X66909D01*
X67144Y451200D01*
X67349Y451068D01*
X67524Y450936D01*
X67671Y450805D01*
X67773Y450673D01*
X67861Y450585D01*
X67905Y450526D01*
X67920Y450497D01*
X68037Y450292D01*
X68110Y450102D01*
X68168Y449912D01*
X68212Y449751D01*
X68242Y449604D01*
X68256Y449487D01*
Y449414D01*
Y449384D01*
X68242Y449224D01*
X68227Y449062D01*
X68154Y448784D01*
X68051Y448535D01*
X67920Y448316D01*
X67803Y448155D01*
X67700Y448023D01*
X67627Y447950D01*
X67598Y447921D01*
X67466Y447818D01*
X67319Y447716D01*
X66983Y447525D01*
X66617Y447364D01*
X66251Y447232D01*
X66075Y447174D01*
X65929Y447130D01*
X65782Y447086D01*
X65650Y447042D01*
X65548Y447027D01*
X65475Y446998D01*
X65416Y446984D01*
X65402D01*
X65241Y446940D01*
X65079Y446910D01*
X64816Y446823D01*
X64611Y446749D01*
X64450Y446691D01*
X64333Y446632D01*
X64260Y446588D01*
X64216Y446559D01*
X64201Y446544D01*
X64113Y446456D01*
X64055Y446369D01*
X63996Y446281D01*
X63967Y446193D01*
X63952Y446120D01*
X63938Y446061D01*
Y446032D01*
Y446017D01*
X63952Y445900D01*
X63981Y445798D01*
X64069Y445637D01*
X64128Y445564D01*
X64172Y445520D01*
X64201Y445490D01*
X64216Y445476D01*
X64318Y445402D01*
X64450Y445344D01*
X64567Y445300D01*
X64699Y445271D01*
X64801Y445256D01*
X64889Y445241D01*
X64977D01*
X65211Y445256D01*
X65416Y445315D01*
X65592Y445388D01*
X65738Y445476D01*
X65855Y445549D01*
X65929Y445622D01*
X65987Y445681D01*
X66002Y445695D01*
X66075Y445812D01*
X66148Y445944D01*
X66236Y446222D01*
X66265Y446339D01*
X66280Y446442D01*
X66295Y446500D01*
Y446530D01*
X68534Y446383D01*
X68505Y446178D01*
X68476Y445973D01*
X68374Y445593D01*
X68227Y445271D01*
X68081Y444992D01*
X67934Y444773D01*
X67876Y444685D01*
X67817Y444612D01*
X67773Y444553D01*
X67729Y444509D01*
X67715Y444495D01*
X67700Y444480D01*
X67554Y444348D01*
X67363Y444246D01*
X67173Y444143D01*
X66968Y444056D01*
X66529Y443924D01*
X66075Y443836D01*
X65870Y443807D01*
X65665Y443792D01*
X65489Y443777D01*
X65328Y443763D01*
X65197Y443748D01*
X65021D01*
X64626Y443763D01*
X64274Y443792D01*
X63967Y443851D01*
X63703Y443909D01*
X63484Y443953D01*
X63411Y443982D01*
X63337Y444012D01*
X63279Y444026D01*
X63235Y444041D01*
X63220Y444056D01*
X63206D01*
X62942Y444187D01*
X62722Y444334D01*
X62517Y444495D01*
X62356Y444641D01*
X62225Y444788D01*
X62137Y444890D01*
X62078Y444963D01*
X62064Y444992D01*
X61932Y445227D01*
X61829Y445476D01*
X61756Y445695D01*
X61698Y445915D01*
X61668Y446091D01*
X61654Y446237D01*
Y446281D01*
Y446325D01*
Y446339D01*
Y446354D01*
X61668Y446574D01*
X61698Y446793D01*
X61756Y446984D01*
X61800Y447145D01*
X61859Y447276D01*
X61917Y447379D01*
X61946Y447437D01*
X61961Y447467D01*
X62093Y447657D01*
X62239Y447818D01*
X62400Y447964D01*
X62561Y448082D01*
X62708Y448184D01*
X62825Y448257D01*
X62913Y448301D01*
X62927Y448316D01*
X62942D01*
X63074Y448374D01*
X63220Y448448D01*
X63557Y448565D01*
X63923Y448682D01*
X64289Y448784D01*
X64450Y448828D01*
X64611Y448872D01*
X64757Y448901D01*
X64889Y448931D01*
X64992Y448960D01*
X65065Y448975D01*
X65123Y448989D01*
X65138D01*
X65343Y449033D01*
X65519Y449092D01*
X65650Y449136D01*
X65753Y449180D01*
X65826Y449209D01*
X65885Y449238D01*
X65899Y449267D01*
X65914D01*
X65973Y449326D01*
X66002Y449384D01*
X66060Y449487D01*
X66075Y449575D01*
Y449589D01*
Y449604D01*
X66060Y449692D01*
X66046Y449780D01*
X65973Y449912D01*
X65899Y449999D01*
X65885Y450014D01*
X65870Y450029D01*
X65782Y450087D01*
X65694Y450131D01*
X65489Y450190D01*
X65402D01*
X65328Y450204D01*
X65270D01*
X65094Y450190D01*
X64933Y450175D01*
X64801Y450131D01*
X64699Y450087D01*
X64611Y450043D01*
X64538Y450014D01*
X64508Y449985D01*
X64494Y449970D01*
X64391Y449868D01*
X64304Y449751D01*
X64245Y449633D01*
X64186Y449516D01*
X64157Y449399D01*
X64128Y449311D01*
X64113Y449253D01*
Y449224D01*
X61903Y449341D01*
X61932Y449560D01*
X61990Y449751D01*
X62034Y449941D01*
X62108Y450116D01*
X62254Y450409D01*
X62415Y450644D01*
X62576Y450834D01*
X62708Y450966D01*
X62796Y451039D01*
X62810Y451068D01*
X62825D01*
X62971Y451171D01*
X63132Y451258D01*
X63484Y451390D01*
X63864Y451493D01*
X64216Y451551D01*
X64377Y451580D01*
X64538Y451595D01*
X64670Y451610D01*
X64801D01*
X64889Y451624D01*
X65036D01*
X65460Y451610D01*
D02*
G37*
G36*
X75811Y443880D02*
X69398D01*
Y445607D01*
X73454D01*
Y447101D01*
X69794D01*
Y448653D01*
X73454D01*
Y449868D01*
X69515D01*
Y451493D01*
X75811D01*
Y443880D01*
D02*
G37*
G36*
X83672Y449868D02*
X79866D01*
X84082Y445461D01*
Y443880D01*
X76865D01*
Y445520D01*
X81301D01*
X77026Y449970D01*
Y451493D01*
X83672D01*
Y449868D01*
D02*
G37*
G36*
X36824Y443880D02*
X34467D01*
Y446984D01*
X31510D01*
Y448521D01*
X34467D01*
Y449853D01*
X31012D01*
Y451493D01*
X36824D01*
Y443880D01*
D02*
G37*
G36*
X51508D02*
X49151D01*
Y451493D01*
X51508D01*
Y443880D01*
D02*
G37*
%LPC*%
G36*
X37446Y430719D02*
X36612Y427981D01*
X38281D01*
X37446Y430719D01*
D02*
G37*
G36*
X30127Y431158D02*
X29087D01*
X28867Y431143D01*
X28677Y431128D01*
X28531Y431099D01*
X28399Y431055D01*
X28311Y431011D01*
X28253Y430982D01*
X28223Y430967D01*
X28209Y430953D01*
X28121Y430865D01*
X28062Y430777D01*
X28018Y430689D01*
X27989Y430587D01*
X27974Y430514D01*
X27960Y430440D01*
Y430396D01*
Y430382D01*
Y430294D01*
X27989Y430206D01*
X28033Y430074D01*
X28062Y430016D01*
X28091Y429972D01*
X28106Y429957D01*
X28121Y429943D01*
X28238Y429825D01*
X28370Y429752D01*
X28457Y429723D01*
X28487Y429708D01*
X28501D01*
X28662Y429679D01*
X28794Y429650D01*
X28911Y429635D01*
X28985Y429621D01*
X29058Y429606D01*
X30127D01*
Y431158D01*
D02*
G37*
G36*
X61405Y440820D02*
X61376D01*
X61200Y440791D01*
X61039Y440732D01*
X60907Y440659D01*
X60805Y440557D01*
X60717Y440454D01*
X60658Y440381D01*
X60629Y440322D01*
X60614Y440293D01*
X60570Y440191D01*
X60526Y440059D01*
X60497Y439912D01*
X60468Y439751D01*
X60409Y439415D01*
X60380Y439078D01*
X60365Y438770D01*
Y438624D01*
X60351Y438507D01*
Y438405D01*
Y438331D01*
Y438273D01*
Y438258D01*
Y437892D01*
X60365Y437585D01*
X60380Y437321D01*
X60409Y437102D01*
X60424Y436940D01*
X60453Y436809D01*
X60468Y436750D01*
Y436721D01*
X60512Y436545D01*
X60570Y436413D01*
X60629Y436282D01*
X60688Y436194D01*
X60731Y436121D01*
X60775Y436062D01*
X60805Y436033D01*
X60819Y436018D01*
X60907Y435945D01*
X61010Y435886D01*
X61097Y435857D01*
X61185Y435828D01*
X61258Y435813D01*
X61317Y435799D01*
X61376D01*
X61551Y435828D01*
X61698Y435886D01*
X61815Y435960D01*
X61917Y436062D01*
X62005Y436165D01*
X62064Y436238D01*
X62093Y436296D01*
X62108Y436326D01*
X62151Y436428D01*
X62195Y436560D01*
X62225Y436706D01*
X62254Y436853D01*
X62298Y437189D01*
X62327Y437526D01*
X62342Y437819D01*
Y437965D01*
X62356Y438082D01*
Y438185D01*
Y438258D01*
Y438302D01*
Y438317D01*
Y438580D01*
X62342Y438814D01*
Y439034D01*
X62327Y439224D01*
X62298Y439415D01*
X62283Y439561D01*
X62269Y439708D01*
X62239Y439839D01*
X62225Y439942D01*
X62210Y440030D01*
X62181Y440117D01*
X62166Y440176D01*
X62151Y440249D01*
X62137Y440278D01*
X62034Y440454D01*
X61917Y440586D01*
X61786Y440688D01*
X61668Y440747D01*
X61551Y440791D01*
X61463Y440805D01*
X61405Y440820D01*
D02*
G37*
G36*
X79185Y431143D02*
X78526D01*
X78292Y431128D01*
X78102Y431099D01*
X77941Y431055D01*
X77824Y431011D01*
X77721Y430967D01*
X77663Y430924D01*
X77633Y430894D01*
X77619Y430880D01*
X77531Y430777D01*
X77472Y430675D01*
X77428Y430587D01*
X77399Y430484D01*
X77384Y430411D01*
X77370Y430338D01*
Y430294D01*
Y430279D01*
X77384Y430148D01*
X77414Y430030D01*
X77458Y429928D01*
X77501Y429840D01*
X77560Y429767D01*
X77604Y429723D01*
X77633Y429694D01*
X77648Y429679D01*
X77765Y429606D01*
X77911Y429547D01*
X78073Y429503D01*
X78233Y429474D01*
X78380Y429459D01*
X78497Y429445D01*
X79185D01*
Y431143D01*
D02*
G37*
G36*
X30134Y437951D02*
X30075D01*
X29929Y437936D01*
X29797Y437892D01*
X29680Y437848D01*
X29577Y437790D01*
X29490Y437716D01*
X29431Y437673D01*
X29387Y437629D01*
X29373Y437614D01*
X29270Y437482D01*
X29197Y437350D01*
X29138Y437219D01*
X29109Y437087D01*
X29080Y436970D01*
X29065Y436882D01*
Y436823D01*
Y436794D01*
X29080Y436618D01*
X29109Y436457D01*
X29168Y436311D01*
X29212Y436194D01*
X29270Y436106D01*
X29329Y436033D01*
X29358Y435989D01*
X29373Y435974D01*
X29490Y435872D01*
X29607Y435784D01*
X29709Y435725D01*
X29812Y435696D01*
X29914Y435667D01*
X29987Y435652D01*
X30046D01*
X30192Y435667D01*
X30324Y435696D01*
X30441Y435755D01*
X30544Y435813D01*
X30632Y435857D01*
X30690Y435916D01*
X30734Y435945D01*
X30749Y435960D01*
X30851Y436091D01*
X30924Y436223D01*
X30968Y436370D01*
X30998Y436501D01*
X31027Y436618D01*
X31041Y436706D01*
Y436765D01*
Y436794D01*
X31027Y436984D01*
X30998Y437146D01*
X30954Y437292D01*
X30895Y437409D01*
X30851Y437497D01*
X30807Y437570D01*
X30778Y437614D01*
X30763Y437629D01*
X30646Y437731D01*
X30529Y437819D01*
X30412Y437878D01*
X30310Y437907D01*
X30222Y437936D01*
X30134Y437951D01*
D02*
G37*
G36*
Y440937D02*
X30075D01*
X29943Y440923D01*
X29812Y440893D01*
X29709Y440864D01*
X29621Y440820D01*
X29548Y440762D01*
X29504Y440732D01*
X29475Y440703D01*
X29460Y440688D01*
X29373Y440586D01*
X29314Y440483D01*
X29270Y440381D01*
X29241Y440278D01*
X29226Y440176D01*
X29212Y440117D01*
Y440059D01*
Y440044D01*
X29226Y439912D01*
X29241Y439795D01*
X29285Y439678D01*
X29329Y439590D01*
X29373Y439517D01*
X29402Y439473D01*
X29431Y439444D01*
X29446Y439429D01*
X29534Y439356D01*
X29636Y439298D01*
X29739Y439254D01*
X29826Y439224D01*
X29914Y439210D01*
X29987Y439195D01*
X30046D01*
X30192Y439210D01*
X30310Y439239D01*
X30427Y439268D01*
X30514Y439312D01*
X30588Y439356D01*
X30646Y439400D01*
X30676Y439415D01*
X30690Y439429D01*
X30763Y439517D01*
X30822Y439634D01*
X30866Y439737D01*
X30895Y439839D01*
X30910Y439927D01*
X30924Y440000D01*
Y440044D01*
Y440059D01*
X30910Y440205D01*
X30880Y440322D01*
X30851Y440440D01*
X30807Y440527D01*
X30763Y440600D01*
X30719Y440644D01*
X30705Y440674D01*
X30690Y440688D01*
X30602Y440776D01*
X30500Y440835D01*
X30397Y440879D01*
X30295Y440908D01*
X30207Y440923D01*
X30134Y440937D01*
D02*
G37*
G36*
X63798Y431158D02*
X62759D01*
X62539Y431143D01*
X62349Y431128D01*
X62203Y431099D01*
X62071Y431055D01*
X61983Y431011D01*
X61925Y430982D01*
X61895Y430967D01*
X61881Y430953D01*
X61793Y430865D01*
X61734Y430777D01*
X61690Y430689D01*
X61661Y430587D01*
X61646Y430514D01*
X61632Y430440D01*
Y430396D01*
Y430382D01*
Y430294D01*
X61661Y430206D01*
X61705Y430074D01*
X61734Y430016D01*
X61764Y429972D01*
X61778Y429957D01*
X61793Y429943D01*
X61910Y429825D01*
X62042Y429752D01*
X62129Y429723D01*
X62159Y429708D01*
X62173D01*
X62335Y429679D01*
X62466Y429650D01*
X62583Y429635D01*
X62657Y429621D01*
X62730Y429606D01*
X63798D01*
Y431158D01*
D02*
G37*
G36*
X5326D02*
X4287D01*
X4067Y431143D01*
X3877Y431128D01*
X3731Y431099D01*
X3599Y431055D01*
X3511Y431011D01*
X3452Y430982D01*
X3423Y430967D01*
X3409Y430953D01*
X3321Y430865D01*
X3262Y430777D01*
X3218Y430689D01*
X3189Y430587D01*
X3174Y430514D01*
X3160Y430440D01*
Y430396D01*
Y430382D01*
Y430294D01*
X3189Y430206D01*
X3233Y430074D01*
X3262Y430016D01*
X3291Y429972D01*
X3306Y429957D01*
X3321Y429943D01*
X3438Y429825D01*
X3570Y429752D01*
X3657Y429723D01*
X3687Y429708D01*
X3701D01*
X3862Y429679D01*
X3994Y429650D01*
X4111Y429635D01*
X4184Y429621D01*
X4258Y429606D01*
X5326D01*
Y431158D01*
D02*
G37*
G36*
X19695Y449956D02*
X18656D01*
X18436Y449941D01*
X18246Y449926D01*
X18100Y449897D01*
X17968Y449853D01*
X17880Y449809D01*
X17822Y449780D01*
X17792Y449765D01*
X17778Y449751D01*
X17690Y449663D01*
X17631Y449575D01*
X17587Y449487D01*
X17558Y449384D01*
X17543Y449311D01*
X17529Y449238D01*
Y449194D01*
Y449180D01*
Y449092D01*
X17558Y449004D01*
X17602Y448872D01*
X17631Y448814D01*
X17661Y448770D01*
X17675Y448755D01*
X17690Y448740D01*
X17807Y448623D01*
X17939Y448550D01*
X18026Y448521D01*
X18056Y448506D01*
X18070D01*
X18232Y448477D01*
X18363Y448448D01*
X18480Y448433D01*
X18554Y448418D01*
X18627Y448404D01*
X19695D01*
Y449956D01*
D02*
G37*
G36*
X56866Y449838D02*
X56837D01*
X56574Y449824D01*
X56339Y449765D01*
X56149Y449677D01*
X55973Y449589D01*
X55842Y449502D01*
X55739Y449414D01*
X55681Y449355D01*
X55666Y449341D01*
X55520Y449136D01*
X55417Y448887D01*
X55329Y448623D01*
X55285Y448360D01*
X55256Y448126D01*
X55241Y448023D01*
X55227Y447935D01*
Y447862D01*
Y447803D01*
Y447774D01*
Y447759D01*
Y447525D01*
X55241Y447320D01*
X55271Y447130D01*
X55285Y446940D01*
X55329Y446779D01*
X55358Y446647D01*
X55402Y446515D01*
X55432Y446398D01*
X55476Y446295D01*
X55520Y446208D01*
X55578Y446091D01*
X55637Y446017D01*
X55651Y445988D01*
X55812Y445827D01*
X56003Y445710D01*
X56208Y445622D01*
X56383Y445564D01*
X56559Y445534D01*
X56691Y445520D01*
X56793Y445505D01*
X56823D01*
X57086Y445520D01*
X57306Y445578D01*
X57511Y445666D01*
X57672Y445754D01*
X57803Y445842D01*
X57906Y445929D01*
X57964Y445988D01*
X57979Y446003D01*
X58052Y446105D01*
X58126Y446222D01*
X58228Y446471D01*
X58301Y446749D01*
X58345Y447013D01*
X58374Y447262D01*
X58389Y447379D01*
X58404Y447467D01*
Y447554D01*
Y447613D01*
Y447642D01*
Y447657D01*
Y447862D01*
X58389Y448067D01*
X58360Y448243D01*
X58330Y448418D01*
X58301Y448565D01*
X58272Y448696D01*
X58184Y448931D01*
X58111Y449106D01*
X58038Y449224D01*
X57994Y449297D01*
X57979Y449326D01*
X57803Y449502D01*
X57628Y449619D01*
X57437Y449707D01*
X57247Y449780D01*
X57086Y449809D01*
X56954Y449824D01*
X56866Y449838D01*
D02*
G37*
%LPD*%
D10*
X-17569Y479823D02*
G03*
X-27070Y470322I0J-9501D01*
G01*
X402067Y470325D02*
G03*
X392566Y479826I-9501J0D01*
G01*
X392569Y-24114D02*
G03*
X402070Y-14613I0J9501D01*
G01*
X-27067Y-14616D02*
G03*
X-17566Y-24117I9501J0D01*
G01*
X-27067Y457185D02*
Y471161D01*
X-17470Y479823D02*
X-3789D01*
X379429Y479823D02*
X393406D01*
X402067Y456545D02*
Y470226D01*
X402067Y-15453D02*
Y-1476D01*
X378789Y-24114D02*
X392471D01*
X-27067Y-14518D02*
Y-837D01*
X-18406Y-24114D02*
X-4429D01*
D101*
X175903Y295701D02*
D03*
X168422D02*
D03*
X175903Y285071D02*
D03*
X168422D02*
D03*
X172163D02*
D03*
D102*
X157480Y278346D02*
D03*
X151575D02*
D03*
X242205Y86024D02*
D03*
X248110D02*
D03*
X271339Y71378D02*
D03*
X265433D02*
D03*
X317126Y108760D02*
D03*
X323031D02*
D03*
X276251Y54350D02*
D03*
X270346D02*
D03*
X234095Y75394D02*
D03*
X240000D02*
D03*
D105*
X252126Y22677D02*
D03*
X245039D02*
D03*
X223624Y57178D02*
D03*
X230711D02*
D03*
X249136Y57060D02*
D03*
X256222D02*
D03*
D107*
X193602Y245177D02*
D03*
Y251083D02*
D03*
X160486Y289714D02*
D03*
Y295619D02*
D03*
X142008Y287598D02*
D03*
Y293504D02*
D03*
X151530Y287753D02*
D03*
Y293658D02*
D03*
X233268Y90236D02*
D03*
Y84331D02*
D03*
X183090Y305780D02*
D03*
Y299874D02*
D03*
X136713Y376772D02*
D03*
Y370866D02*
D03*
D108*
X269644Y47636D02*
D03*
Y41612D02*
D03*
D118*
X145621Y367514D02*
D03*
Y378144D02*
D03*
D119*
X202559Y37795D02*
D03*
Y30709D02*
D03*
X258899Y23241D02*
D03*
Y30328D02*
D03*
X219057Y23241D02*
D03*
Y30328D02*
D03*
X277974Y40790D02*
D03*
Y47877D02*
D03*
D120*
X193690Y302502D02*
D03*
Y291872D02*
D03*
D125*
X183603Y252929D02*
D03*
Y245448D02*
D03*
X172973Y252929D02*
D03*
Y249188D02*
D03*
Y245448D02*
D03*
X127067Y379035D02*
D03*
Y371555D02*
D03*
X116437Y379035D02*
D03*
Y375295D02*
D03*
Y371555D02*
D03*
D126*
X193307Y283465D02*
D03*
X182677D02*
D03*
D137*
X-16929Y-13976D02*
D03*
X391745Y-13961D02*
D03*
X-16978Y469685D02*
D03*
X391748Y469652D02*
D03*
X232283Y452756D02*
D03*
X142729Y402395D02*
D03*
D138*
X224490Y-7152D02*
D03*
X234490D02*
D03*
X214490D02*
D03*
X179567Y16299D02*
D03*
Y26299D02*
D03*
Y6299D02*
D03*
X162500Y11220D02*
D03*
Y1221D02*
D03*
D139*
X204490Y-7152D02*
D03*
X250787Y134055D02*
D03*
X147047Y26476D02*
D03*
X312480Y97520D02*
D03*
X127717Y291457D02*
D03*
X188150Y177520D02*
D03*
X119291Y176969D02*
D03*
X190650Y360925D02*
D03*
X61417Y396358D02*
D03*
X285472Y187795D02*
D03*
X80610Y60925D02*
D03*
X26476Y166437D02*
D03*
X36713Y331890D02*
D03*
X152953Y251575D02*
D03*
D140*
X179567Y-3701D02*
D03*
X162500Y21220D02*
D03*
D141*
X268347Y88937D02*
D03*
D142*
Y83937D02*
D03*
Y78937D02*
D03*
D143*
X205748Y293150D02*
D03*
Y273307D02*
D03*
X195827Y312992D02*
D03*
X205748Y253465D02*
D03*
X195827Y233622D02*
D03*
X166063Y193937D02*
D03*
X106535Y312992D02*
D03*
X96614Y293150D02*
D03*
Y273307D02*
D03*
X106535Y233622D02*
D03*
X96614Y253465D02*
D03*
D144*
X25551Y373228D02*
D03*
X7047D02*
D03*
D145*
X44055D02*
D03*
D146*
X16220Y199724D02*
D03*
X227953Y364134D02*
D03*
X261914Y232730D02*
D03*
X262032Y275273D02*
D03*
X262106Y317756D02*
D03*
X262180Y360701D02*
D03*
D147*
X-3779Y199724D02*
D03*
X207953Y364134D02*
D03*
D148*
X261914Y252730D02*
D03*
X262032Y295273D02*
D03*
X262106Y337756D02*
D03*
X262180Y380701D02*
D03*
D149*
X183189Y44882D02*
D03*
X325709Y120284D02*
D03*
X84646Y350000D02*
D03*
X84567Y361417D02*
D03*
X311614Y147283D02*
D03*
X164055Y257874D02*
D03*
X168455Y370270D02*
D03*
X180566Y271557D02*
D03*
X-1772Y342323D02*
D03*
X-10039Y342421D02*
D03*
X282776Y158661D02*
D03*
X294980D02*
D03*
X111713Y32185D02*
D03*
X111811Y40945D02*
D03*
X28248Y120965D02*
D03*
X19094Y121063D02*
D03*
X49114Y234646D02*
D03*
X37894Y234449D02*
D03*
X26673Y199705D02*
D03*
X-2067Y272736D02*
D03*
X-14567D02*
D03*
X-15157Y199606D02*
D03*
X132888Y303024D02*
D03*
X273327Y341142D02*
D03*
X276279Y246949D02*
D03*
X315059Y229232D02*
D03*
X266142Y389173D02*
D03*
X312598Y385630D02*
D03*
X314075Y335335D02*
D03*
X313976Y282185D02*
D03*
X275689Y292717D02*
D03*
D150*
X173189Y44882D02*
D03*
X315709Y120284D02*
D03*
X74646Y350000D02*
D03*
X74567Y361417D02*
D03*
X321614Y147283D02*
D03*
X158455Y370270D02*
D03*
X190566Y271557D02*
D03*
D151*
X164055Y247874D02*
D03*
D152*
X134266Y352551D02*
D03*
X144266D02*
D03*
D153*
X154266D02*
D03*
D154*
X286122Y37992D02*
D03*
X262992Y59350D02*
D03*
X221161Y44833D02*
D03*
X226230Y47490D02*
D03*
X359154Y233661D02*
D03*
X334646Y235138D02*
D03*
X359055Y281398D02*
D03*
X337008Y284744D02*
D03*
X334941Y337598D02*
D03*
X321063Y344783D02*
D03*
X181988Y383268D02*
D03*
X358760Y308858D02*
D03*
X221161Y131988D02*
D03*
X199902Y126476D02*
D03*
X180217Y306890D02*
D03*
X180330Y337922D02*
D03*
X293406Y135630D02*
D03*
X285236Y135531D02*
D03*
X204331Y52461D02*
D03*
X242421Y22638D02*
D03*
X205610Y43701D02*
D03*
X192717Y43602D02*
D03*
X198327Y43799D02*
D03*
X156398Y42815D02*
D03*
X154921Y60532D02*
D03*
X125295Y83858D02*
D03*
X125787Y58760D02*
D03*
X202658Y13287D02*
D03*
X214173Y3150D02*
D03*
X74311Y210531D02*
D03*
X114665Y144685D02*
D03*
X138583Y159449D02*
D03*
X203346Y163287D02*
D03*
X53445Y108563D02*
D03*
X60728Y97835D02*
D03*
X68504Y217520D02*
D03*
X209213Y83622D02*
D03*
X214685Y83583D02*
D03*
X255435Y55328D02*
D03*
X249175Y54501D02*
D03*
X203976Y133386D02*
D03*
X131732Y176496D02*
D03*
X234646Y67638D02*
D03*
X258976Y104449D02*
D03*
X195118Y163150D02*
D03*
X216024Y131929D02*
D03*
X225787Y127677D02*
D03*
X384724Y203110D02*
D03*
X238110Y41378D02*
D03*
X288779Y51535D02*
D03*
X289882Y56102D02*
D03*
X286260Y45354D02*
D03*
X310332Y60292D02*
D03*
X316831Y10827D02*
D03*
X391772Y210984D02*
D03*
X143427Y126037D02*
D03*
X148427Y125879D02*
D03*
X158466Y126194D02*
D03*
X250814Y125346D02*
D03*
X256458Y23163D02*
D03*
X359016Y335472D02*
D03*
X347598Y250197D02*
D03*
X347979Y301895D02*
D03*
X349346Y375985D02*
D03*
X234273Y204392D02*
D03*
X168507Y277835D02*
D03*
X313755Y185268D02*
D03*
X62717Y307402D02*
D03*
X221419Y23163D02*
D03*
X195945Y34134D02*
D03*
X241260Y54567D02*
D03*
X223585Y54698D02*
D03*
X213504Y103661D02*
D03*
X291634Y16142D02*
D03*
X226655Y34344D02*
D03*
X271591Y46780D02*
D03*
X253190Y33279D02*
D03*
X319384Y293675D02*
D03*
X175990Y301458D02*
D03*
X189983Y250775D02*
D03*
X224311Y242224D02*
D03*
X152953Y375787D02*
D03*
X148991Y379503D02*
D03*
X133268Y375984D02*
D03*
X151279Y296260D02*
D03*
X236516Y293996D02*
D03*
X240256Y213583D02*
D03*
X359055Y364862D02*
D03*
X354921Y207677D02*
D03*
X359252Y258858D02*
D03*
X388287Y207185D02*
D03*
X316535Y241929D02*
D03*
X345965Y204331D02*
D03*
X337598Y138484D02*
D03*
X226476Y94685D02*
D03*
X340551Y178740D02*
D03*
X142520Y298425D02*
D03*
D155*
X256181Y78504D02*
D03*
Y71024D02*
D03*
X246732Y74764D02*
D03*
X142225Y277303D02*
D03*
Y269822D02*
D03*
X132776Y273563D02*
D03*
D156*
X218268Y303346D02*
D03*
X236378D02*
D03*
D157*
X227323Y329528D02*
D03*
D158*
X159243Y324410D02*
D03*
D159*
X133062Y333465D02*
D03*
Y315354D02*
D03*
M02*
