G04 Layer_Color=8388736*
%FSLAX25Y25*%
%MOIN*%
G70*
G01*
G75*
%ADD10C,0.01200*%
%ADD96R,0.04343X0.22847*%
%ADD97R,0.15091X0.16788*%
%ADD98R,0.05524X0.02769*%
%ADD99R,0.05800X0.03812*%
%ADD100R,0.10839X0.11430*%
%ADD101R,0.03359X0.05524*%
%ADD102R,0.05131X0.06312*%
%ADD103R,0.10249X0.20879*%
%ADD104R,0.18517X0.08674*%
%ADD105R,0.04343X0.06312*%
%ADD106R,0.03950X0.04540*%
%ADD107R,0.06312X0.05131*%
%ADD108R,0.04540X0.03950*%
%ADD109R,0.01800X0.12211*%
%ADD110C,0.02769*%
%ADD111P,0.03915X4X90.0*%
%ADD112R,0.05721X0.05131*%
%ADD113R,0.22453X0.05918*%
%ADD114R,0.04658X0.05918*%
%ADD115R,0.04737X0.04737*%
%ADD116R,0.04737X0.14579*%
%ADD117R,0.05131X0.11036*%
%ADD118R,0.07493X0.05131*%
%ADD119R,0.06312X0.04343*%
%ADD120R,0.11036X0.05131*%
%ADD121R,0.07099X0.15761*%
%ADD122R,0.10249X0.09855*%
%ADD123R,0.03950X0.07099*%
%ADD124R,0.13398X0.06312*%
%ADD125R,0.05524X0.03359*%
%ADD126R,0.05131X0.07493*%
%ADD127R,0.02965X0.07887*%
%ADD128R,0.08674X0.03162*%
%ADD129R,0.05518X0.01581*%
%ADD130R,0.01581X0.07487*%
%ADD131R,0.07487X0.01581*%
%ADD132R,0.28359X0.07887*%
%ADD133R,0.08674X0.18517*%
%ADD134R,0.05518X0.01975*%
%ADD135R,0.03989X0.04806*%
%ADD136R,0.03989X0.04806*%
%ADD137C,0.00800*%
%ADD138C,0.07099*%
%ADD139R,0.07099X0.07099*%
%ADD140R,0.07099X0.07099*%
G04:AMPARAMS|DCode=141|XSize=74.93mil|YSize=50.13mil|CornerRadius=14.53mil|HoleSize=0mil|Usage=FLASHONLY|Rotation=180.000|XOffset=0mil|YOffset=0mil|HoleType=Round|Shape=RoundedRectangle|*
%AMROUNDEDRECTD141*
21,1,0.07493,0.02106,0,0,180.0*
21,1,0.04587,0.05013,0,0,180.0*
1,1,0.02906,-0.02293,0.01053*
1,1,0.02906,0.02293,0.01053*
1,1,0.02906,0.02293,-0.01053*
1,1,0.02906,-0.02293,-0.01053*
%
%ADD141ROUNDEDRECTD141*%
%ADD142O,0.07493X0.05013*%
%ADD143C,0.09461*%
%ADD144C,0.12611*%
%ADD145R,0.12611X0.12611*%
%ADD146C,0.08674*%
%ADD147R,0.08674X0.08674*%
%ADD148R,0.08674X0.08674*%
%ADD149C,0.06706*%
%ADD150R,0.06706X0.06706*%
%ADD151R,0.06706X0.06706*%
%ADD152C,0.07099*%
%ADD153R,0.07099X0.07099*%
%ADD154C,0.03950*%
G36*
X317994Y433792D02*
X315857D01*
Y438858D01*
X315827Y438843D01*
X315769Y438799D01*
X315666Y438726D01*
X315534Y438623D01*
X315373Y438521D01*
X315212Y438418D01*
X314846Y438213D01*
X314832Y438199D01*
X314758Y438169D01*
X314656Y438126D01*
X314510Y438067D01*
X314334Y437994D01*
X314129Y437921D01*
X313895Y437847D01*
X313631Y437759D01*
Y439487D01*
X313646D01*
X313675Y439502D01*
X313734Y439516D01*
X313807Y439546D01*
X313895Y439575D01*
X313997Y439619D01*
X314246Y439721D01*
X314510Y439838D01*
X314788Y439970D01*
X315051Y440131D01*
X315300Y440307D01*
X315330Y440336D01*
X315403Y440395D01*
X315505Y440497D01*
X315637Y440644D01*
X315798Y440819D01*
X315944Y441039D01*
X316105Y441273D01*
X316237Y441537D01*
X317994D01*
Y433792D01*
D02*
G37*
G36*
X326500Y439970D02*
X326485Y439956D01*
X326470Y439941D01*
X326427Y439897D01*
X326368Y439838D01*
X326222Y439692D01*
X326031Y439502D01*
X325812Y439267D01*
X325592Y438989D01*
X325373Y438696D01*
X325153Y438389D01*
Y438374D01*
X325124Y438345D01*
X325094Y438286D01*
X325050Y438213D01*
X324992Y438111D01*
X324919Y437994D01*
X324860Y437862D01*
X324772Y437715D01*
X324699Y437555D01*
X324611Y437379D01*
X324435Y436998D01*
X324274Y436559D01*
X324113Y436105D01*
Y436091D01*
X324099Y436061D01*
X324084Y436003D01*
X324069Y435929D01*
X324040Y435842D01*
X324011Y435724D01*
X323982Y435593D01*
X323952Y435446D01*
X323923Y435285D01*
X323894Y435110D01*
X323821Y434714D01*
X323762Y434275D01*
X323718Y433792D01*
X321610D01*
Y433807D01*
X321625Y433880D01*
X321639Y433968D01*
X321654Y434099D01*
X321683Y434261D01*
X321712Y434451D01*
X321756Y434656D01*
X321800Y434875D01*
X321859Y435124D01*
X321903Y435373D01*
X322049Y435885D01*
X322196Y436413D01*
X322386Y436910D01*
Y436925D01*
X322415Y436969D01*
X322445Y437042D01*
X322488Y437130D01*
X322547Y437247D01*
X322620Y437379D01*
X322708Y437540D01*
X322796Y437715D01*
X322913Y437921D01*
X323045Y438126D01*
X323338Y438579D01*
X323674Y439092D01*
X324084Y439619D01*
X320322D01*
Y441405D01*
X326500D01*
Y439970D01*
D02*
G37*
G36*
X335123Y433792D02*
X332985D01*
Y438858D01*
X332956Y438843D01*
X332897Y438799D01*
X332795Y438726D01*
X332663Y438623D01*
X332502Y438521D01*
X332341Y438418D01*
X331975Y438213D01*
X331961Y438199D01*
X331887Y438169D01*
X331785Y438126D01*
X331638Y438067D01*
X331463Y437994D01*
X331258Y437921D01*
X331024Y437847D01*
X330760Y437759D01*
Y439487D01*
X330775D01*
X330804Y439502D01*
X330862Y439516D01*
X330936Y439546D01*
X331024Y439575D01*
X331126Y439619D01*
X331375Y439721D01*
X331638Y439838D01*
X331917Y439970D01*
X332180Y440131D01*
X332429Y440307D01*
X332458Y440336D01*
X332531Y440395D01*
X332634Y440497D01*
X332766Y440644D01*
X332927Y440819D01*
X333073Y441039D01*
X333234Y441273D01*
X333366Y441537D01*
X335123D01*
Y433792D01*
D02*
G37*
G36*
X327993Y433660D02*
X326939D01*
X328857Y441537D01*
X329925D01*
X327993Y433660D01*
D02*
G37*
G36*
X340642Y441522D02*
X340774D01*
X340920Y441507D01*
X341081Y441493D01*
X341242Y441463D01*
X341608Y441390D01*
X341989Y441288D01*
X342340Y441141D01*
X342501Y441053D01*
X342648Y440951D01*
X342662D01*
X342677Y440922D01*
X342765Y440848D01*
X342882Y440717D01*
X343014Y440556D01*
X343145Y440336D01*
X343263Y440087D01*
X343350Y439809D01*
X343365Y439648D01*
X343380Y439487D01*
Y439458D01*
Y439399D01*
X343365Y439297D01*
X343350Y439180D01*
X343306Y439033D01*
X343263Y438858D01*
X343189Y438696D01*
X343087Y438521D01*
X343072Y438506D01*
X343043Y438462D01*
X342999Y438404D01*
X342926Y438316D01*
X342823Y438228D01*
X342706Y438111D01*
X342560Y437994D01*
X342399Y437877D01*
X342428Y437862D01*
X342501Y437818D01*
X342604Y437759D01*
X342750Y437672D01*
X342897Y437555D01*
X343043Y437423D01*
X343189Y437262D01*
X343321Y437086D01*
X343336Y437071D01*
X343365Y436998D01*
X343424Y436896D01*
X343482Y436779D01*
X343526Y436618D01*
X343585Y436427D01*
X343614Y436237D01*
X343629Y436017D01*
Y435988D01*
Y435915D01*
X343614Y435812D01*
X343599Y435666D01*
X343570Y435505D01*
X343512Y435329D01*
X343453Y435139D01*
X343365Y434949D01*
X343350Y434934D01*
X343321Y434861D01*
X343263Y434773D01*
X343189Y434670D01*
X343087Y434539D01*
X342984Y434407D01*
X342853Y434290D01*
X342721Y434173D01*
X342706Y434158D01*
X342648Y434129D01*
X342575Y434085D01*
X342457Y434026D01*
X342326Y433968D01*
X342165Y433894D01*
X341974Y433836D01*
X341769Y433792D01*
X341740D01*
X341667Y433777D01*
X341550Y433748D01*
X341403Y433734D01*
X341228Y433704D01*
X341023Y433675D01*
X340788Y433660D01*
X340364D01*
X340261Y433675D01*
X340144D01*
X339881Y433689D01*
X339573Y433734D01*
X339266Y433777D01*
X338973Y433851D01*
X338709Y433938D01*
X338680Y433953D01*
X338607Y433997D01*
X338490Y434056D01*
X338358Y434158D01*
X338197Y434275D01*
X338036Y434422D01*
X337875Y434597D01*
X337743Y434788D01*
X337729Y434817D01*
X337699Y434890D01*
X337641Y435007D01*
X337582Y435153D01*
X337524Y435329D01*
X337465Y435549D01*
X337436Y435783D01*
X337421Y436032D01*
Y436047D01*
Y436061D01*
Y436149D01*
X337436Y436266D01*
X337465Y436427D01*
X337494Y436603D01*
X337553Y436793D01*
X337626Y436984D01*
X337729Y437159D01*
X337743Y437174D01*
X337787Y437232D01*
X337860Y437320D01*
X337963Y437423D01*
X338095Y437540D01*
X338256Y437657D01*
X338461Y437774D01*
X338680Y437877D01*
X338666Y437891D01*
X338592Y437921D01*
X338505Y437979D01*
X338402Y438052D01*
X338285Y438140D01*
X338168Y438243D01*
X338051Y438360D01*
X337963Y438477D01*
X337948Y438491D01*
X337919Y438550D01*
X337860Y438653D01*
X337817Y438770D01*
X337758Y438916D01*
X337699Y439092D01*
X337670Y439297D01*
X337655Y439502D01*
Y439516D01*
Y439546D01*
Y439590D01*
X337670Y439663D01*
X337685Y439736D01*
X337699Y439838D01*
X337773Y440058D01*
X337875Y440307D01*
X337948Y440439D01*
X338036Y440570D01*
X338139Y440702D01*
X338256Y440819D01*
X338387Y440951D01*
X338548Y441068D01*
X338563D01*
X338578Y441083D01*
X338622Y441112D01*
X338680Y441141D01*
X338739Y441171D01*
X338827Y441215D01*
X339032Y441302D01*
X339295Y441390D01*
X339617Y441463D01*
X339983Y441522D01*
X340393Y441537D01*
X340540D01*
X340642Y441522D01*
D02*
G37*
G36*
X302373D02*
X302476D01*
X302724Y441507D01*
X303003Y441478D01*
X303295Y441420D01*
X303573Y441361D01*
X303822Y441273D01*
X303837D01*
X303852Y441258D01*
X303925Y441229D01*
X304042Y441171D01*
X304188Y441083D01*
X304335Y440980D01*
X304496Y440848D01*
X304657Y440688D01*
X304803Y440497D01*
X304818Y440468D01*
X304862Y440409D01*
X304920Y440292D01*
X304994Y440146D01*
X305052Y439970D01*
X305111Y439780D01*
X305155Y439546D01*
X305169Y439311D01*
Y439297D01*
Y439282D01*
Y439194D01*
X305155Y439062D01*
X305125Y438887D01*
X305067Y438682D01*
X304994Y438462D01*
X304891Y438228D01*
X304759Y437979D01*
X304745Y437950D01*
X304686Y437877D01*
X304569Y437745D01*
X304423Y437569D01*
X304218Y437364D01*
X303954Y437130D01*
X303808Y436998D01*
X303647Y436866D01*
X303456Y436735D01*
X303266Y436588D01*
X303237Y436574D01*
X303164Y436515D01*
X303061Y436442D01*
X302929Y436354D01*
X302637Y436149D01*
X302519Y436047D01*
X302417Y435973D01*
X302402Y435959D01*
X302373Y435944D01*
X302329Y435900D01*
X302271Y435856D01*
X302110Y435710D01*
X301905Y435520D01*
X305228D01*
Y433792D01*
X298874D01*
Y433807D01*
Y433836D01*
X298889Y433880D01*
X298903Y433953D01*
X298918Y434041D01*
X298933Y434129D01*
X298991Y434363D01*
X299079Y434626D01*
X299196Y434934D01*
X299343Y435241D01*
X299533Y435549D01*
Y435564D01*
X299562Y435593D01*
X299591Y435637D01*
X299650Y435695D01*
X299709Y435783D01*
X299782Y435871D01*
X299884Y435988D01*
X300001Y436105D01*
X300133Y436252D01*
X300279Y436398D01*
X300455Y436559D01*
X300645Y436735D01*
X300851Y436910D01*
X301070Y437101D01*
X301319Y437306D01*
X301597Y437511D01*
X301612Y437525D01*
X301641Y437540D01*
X301685Y437584D01*
X301744Y437628D01*
X301905Y437745D01*
X302095Y437906D01*
X302300Y438067D01*
X302505Y438243D01*
X302666Y438404D01*
X302739Y438477D01*
X302798Y438550D01*
X302812Y438565D01*
X302841Y438609D01*
X302886Y438682D01*
X302929Y438770D01*
X302973Y438872D01*
X303017Y438989D01*
X303046Y439121D01*
X303061Y439238D01*
Y439253D01*
Y439297D01*
X303046Y439370D01*
X303032Y439443D01*
X303003Y439546D01*
X302944Y439633D01*
X302886Y439736D01*
X302798Y439838D01*
X302783Y439853D01*
X302754Y439882D01*
X302695Y439912D01*
X302622Y439970D01*
X302534Y440014D01*
X302417Y440043D01*
X302300Y440073D01*
X302153Y440087D01*
X302080D01*
X302007Y440073D01*
X301919Y440058D01*
X301817Y440029D01*
X301700Y439970D01*
X301597Y439912D01*
X301495Y439824D01*
X301480Y439809D01*
X301451Y439780D01*
X301407Y439707D01*
X301363Y439619D01*
X301304Y439502D01*
X301246Y439341D01*
X301202Y439150D01*
X301158Y438931D01*
X299035Y439092D01*
Y439106D01*
Y439136D01*
X299050Y439180D01*
X299064Y439238D01*
X299094Y439399D01*
X299138Y439604D01*
X299196Y439824D01*
X299269Y440058D01*
X299357Y440277D01*
X299474Y440483D01*
X299489Y440512D01*
X299533Y440570D01*
X299606Y440658D01*
X299723Y440775D01*
X299855Y440892D01*
X300016Y441024D01*
X300206Y441156D01*
X300411Y441258D01*
X300441Y441273D01*
X300528Y441302D01*
X300660Y441346D01*
X300851Y441405D01*
X301099Y441449D01*
X301378Y441493D01*
X301714Y441522D01*
X302095Y441537D01*
X302285D01*
X302373Y441522D01*
D02*
G37*
G36*
X314041Y450921D02*
X314202Y450906D01*
X314392Y450877D01*
X314598Y450848D01*
X314817Y450804D01*
X315051Y450760D01*
X315285Y450687D01*
X315534Y450599D01*
X315769Y450511D01*
X316018Y450379D01*
X316237Y450247D01*
X316457Y450086D01*
X316662Y449911D01*
X316676Y449896D01*
X316706Y449867D01*
X316764Y449808D01*
X316823Y449720D01*
X316896Y449618D01*
X316984Y449486D01*
X317086Y449340D01*
X317189Y449164D01*
X317277Y448974D01*
X317379Y448754D01*
X317467Y448520D01*
X317540Y448271D01*
X317599Y447993D01*
X317657Y447700D01*
X317687Y447378D01*
X317701Y447041D01*
Y447027D01*
Y446983D01*
Y446910D01*
Y446822D01*
X317687Y446704D01*
X317672Y446573D01*
X317657Y446426D01*
X317643Y446265D01*
X317584Y445914D01*
X317511Y445548D01*
X317394Y445182D01*
X317247Y444845D01*
Y444831D01*
X317233Y444801D01*
X317203Y444757D01*
X317160Y444699D01*
X317057Y444552D01*
X316911Y444362D01*
X316735Y444157D01*
X316501Y443938D01*
X316252Y443718D01*
X315944Y443528D01*
X315930D01*
X315900Y443513D01*
X315857Y443484D01*
X315798Y443454D01*
X315710Y443425D01*
X315608Y443381D01*
X315491Y443337D01*
X315359Y443293D01*
X315212Y443250D01*
X315051Y443206D01*
X314700Y443132D01*
X314290Y443074D01*
X313836Y443059D01*
X313617D01*
X313514Y443074D01*
X313382Y443088D01*
X313236D01*
X313089Y443118D01*
X312753Y443162D01*
X312387Y443235D01*
X312035Y443337D01*
X311699Y443469D01*
X311684D01*
X311655Y443484D01*
X311611Y443513D01*
X311552Y443542D01*
X311406Y443645D01*
X311216Y443791D01*
X310996Y443967D01*
X310762Y444186D01*
X310527Y444450D01*
X310323Y444757D01*
Y444772D01*
X310308Y444801D01*
X310279Y444845D01*
X310249Y444918D01*
X310206Y445006D01*
X310161Y445109D01*
X310118Y445226D01*
X310074Y445372D01*
X310015Y445519D01*
X309971Y445694D01*
X309898Y446075D01*
X309840Y446499D01*
X309810Y446983D01*
Y446997D01*
Y447071D01*
Y447158D01*
X309825Y447290D01*
X309840Y447451D01*
X309869Y447627D01*
X309898Y447832D01*
X309942Y448051D01*
X309986Y448286D01*
X310059Y448520D01*
X310147Y448754D01*
X310249Y449003D01*
X310367Y449237D01*
X310498Y449472D01*
X310659Y449691D01*
X310835Y449896D01*
X310850Y449911D01*
X310879Y449940D01*
X310938Y449999D01*
X311025Y450057D01*
X311128Y450130D01*
X311260Y450218D01*
X311421Y450321D01*
X311582Y450423D01*
X311787Y450511D01*
X312006Y450613D01*
X312240Y450701D01*
X312504Y450774D01*
X312782Y450833D01*
X313075Y450892D01*
X313397Y450921D01*
X313734Y450936D01*
X313909D01*
X314041Y450921D01*
D02*
G37*
G36*
X339559Y449164D02*
X336104D01*
Y447832D01*
X339061D01*
Y446295D01*
X336104D01*
Y443191D01*
X333747D01*
Y450804D01*
X339559D01*
Y449164D01*
D02*
G37*
G36*
X347113Y449179D02*
X343175D01*
Y447964D01*
X346835D01*
Y446412D01*
X343175D01*
Y444918D01*
X347230D01*
Y443191D01*
X340818D01*
Y450804D01*
X347113D01*
Y449179D01*
D02*
G37*
G36*
X352822Y450789D02*
X353057Y450774D01*
X353320Y450760D01*
X353598Y450731D01*
X353862Y450672D01*
X354096Y450613D01*
X354125Y450599D01*
X354199Y450569D01*
X354301Y450526D01*
X354433Y450452D01*
X354579Y450364D01*
X354740Y450233D01*
X354887Y450086D01*
X355033Y449911D01*
X355048Y449881D01*
X355092Y449823D01*
X355150Y449720D01*
X355223Y449574D01*
X355282Y449398D01*
X355341Y449179D01*
X355384Y448944D01*
X355399Y448681D01*
Y448652D01*
Y448578D01*
X355384Y448461D01*
X355370Y448315D01*
X355326Y448139D01*
X355282Y447949D01*
X355209Y447759D01*
X355121Y447583D01*
X355106Y447568D01*
X355077Y447510D01*
X355004Y447422D01*
X354931Y447319D01*
X354814Y447202D01*
X354696Y447071D01*
X354535Y446953D01*
X354374Y446836D01*
X354360D01*
X354316Y446807D01*
X354243Y446778D01*
X354155Y446734D01*
X354038Y446690D01*
X353891Y446646D01*
X353730Y446587D01*
X353540Y446544D01*
X353555D01*
X353613Y446514D01*
X353686Y446485D01*
X353774Y446456D01*
X353979Y446368D01*
X354067Y446309D01*
X354155Y446265D01*
X354184Y446251D01*
X354257Y446177D01*
X354301Y446119D01*
X354360Y446046D01*
X354433Y445958D01*
X354521Y445855D01*
X354535Y445841D01*
X354565Y445812D01*
X354609Y445753D01*
X354653Y445680D01*
X354770Y445533D01*
X354814Y445460D01*
X354857Y445387D01*
X356014Y443191D01*
X353349D01*
X352076Y445504D01*
X352061Y445519D01*
X352032Y445577D01*
X351988Y445650D01*
X351929Y445753D01*
X351798Y445943D01*
X351725Y446031D01*
X351651Y446090D01*
X351637Y446104D01*
X351607Y446119D01*
X351549Y446148D01*
X351490Y446192D01*
X351402Y446221D01*
X351300Y446251D01*
X351198Y446265D01*
X351080Y446280D01*
X350875D01*
Y443191D01*
X348518D01*
Y450804D01*
X352705D01*
X352822Y450789D01*
D02*
G37*
G36*
X293545Y449281D02*
X289270Y444831D01*
X293706D01*
Y443191D01*
X286489D01*
Y444772D01*
X290705Y449179D01*
X286899D01*
Y450804D01*
X293545D01*
Y449281D01*
D02*
G37*
G36*
X301056Y449179D02*
X297117D01*
Y447964D01*
X300777D01*
Y446412D01*
X297117D01*
Y444918D01*
X301173D01*
Y443191D01*
X294760D01*
Y450804D01*
X301056D01*
Y449179D01*
D02*
G37*
G36*
X321420Y443191D02*
X319063D01*
Y450804D01*
X321420D01*
Y443191D01*
D02*
G37*
G36*
X337297Y424393D02*
X334823D01*
X334442Y425652D01*
X331792D01*
X331397Y424393D01*
X329011D01*
X331865Y432006D01*
X334442D01*
X337297Y424393D01*
D02*
G37*
G36*
X342391Y431991D02*
X342626Y431977D01*
X342889Y431962D01*
X343167Y431933D01*
X343431Y431874D01*
X343665Y431816D01*
X343694Y431801D01*
X343768Y431772D01*
X343870Y431728D01*
X344002Y431655D01*
X344148Y431567D01*
X344309Y431435D01*
X344456Y431289D01*
X344602Y431113D01*
X344617Y431084D01*
X344661Y431025D01*
X344719Y430923D01*
X344793Y430776D01*
X344851Y430601D01*
X344910Y430381D01*
X344953Y430147D01*
X344968Y429883D01*
Y429854D01*
Y429781D01*
X344953Y429664D01*
X344939Y429517D01*
X344895Y429342D01*
X344851Y429151D01*
X344778Y428961D01*
X344690Y428785D01*
X344675Y428770D01*
X344646Y428712D01*
X344573Y428624D01*
X344500Y428522D01*
X344383Y428405D01*
X344265Y428273D01*
X344104Y428156D01*
X343943Y428039D01*
X343929D01*
X343885Y428009D01*
X343812Y427980D01*
X343724Y427936D01*
X343607Y427892D01*
X343460Y427848D01*
X343299Y427790D01*
X343109Y427746D01*
X343124D01*
X343182Y427716D01*
X343255Y427687D01*
X343343Y427658D01*
X343548Y427570D01*
X343636Y427512D01*
X343724Y427468D01*
X343753Y427453D01*
X343826Y427380D01*
X343870Y427321D01*
X343929Y427248D01*
X344002Y427160D01*
X344090Y427058D01*
X344104Y427043D01*
X344134Y427014D01*
X344178Y426955D01*
X344221Y426882D01*
X344339Y426735D01*
X344383Y426662D01*
X344426Y426589D01*
X345583Y424393D01*
X342918D01*
X341645Y426706D01*
X341630Y426721D01*
X341601Y426780D01*
X341557Y426853D01*
X341498Y426955D01*
X341367Y427145D01*
X341294Y427233D01*
X341220Y427292D01*
X341206Y427307D01*
X341176Y427321D01*
X341118Y427350D01*
X341059Y427394D01*
X340971Y427424D01*
X340869Y427453D01*
X340767Y427468D01*
X340649Y427482D01*
X340444D01*
Y424393D01*
X338087D01*
Y432006D01*
X342274D01*
X342391Y431991D01*
D02*
G37*
G36*
X361482Y430381D02*
X357544D01*
Y429166D01*
X361204D01*
Y427614D01*
X357544D01*
Y426121D01*
X361599D01*
Y424393D01*
X355187D01*
Y432006D01*
X361482D01*
Y430381D01*
D02*
G37*
G36*
X293128Y431991D02*
X293245D01*
X293362Y431977D01*
X293640Y431933D01*
X293962Y431860D01*
X294270Y431742D01*
X294577Y431596D01*
X294709Y431494D01*
X294841Y431391D01*
X294855D01*
X294870Y431362D01*
X294943Y431274D01*
X295046Y431142D01*
X295163Y430952D01*
X295280Y430703D01*
X295382Y430410D01*
X295456Y430059D01*
X295485Y429869D01*
Y429664D01*
Y429649D01*
Y429620D01*
Y429546D01*
X295470Y429473D01*
Y429371D01*
X295456Y429268D01*
X295397Y429005D01*
X295309Y428712D01*
X295192Y428419D01*
X295017Y428126D01*
X294899Y427995D01*
X294782Y427863D01*
X294768D01*
X294753Y427834D01*
X294709Y427804D01*
X294651Y427760D01*
X294577Y427716D01*
X294489Y427658D01*
X294387Y427599D01*
X294255Y427541D01*
X294123Y427482D01*
X293962Y427424D01*
X293787Y427365D01*
X293596Y427321D01*
X293391Y427277D01*
X293172Y427248D01*
X292938Y427233D01*
X292674Y427219D01*
X291386D01*
Y424393D01*
X289029D01*
Y432006D01*
X293040D01*
X293128Y431991D01*
D02*
G37*
G36*
X303010Y430381D02*
X299072D01*
Y429166D01*
X302732D01*
Y427614D01*
X299072D01*
Y426121D01*
X303127D01*
Y424393D01*
X296715D01*
Y432006D01*
X303010D01*
Y430381D01*
D02*
G37*
G36*
X308719Y431991D02*
X308954Y431977D01*
X309217Y431962D01*
X309495Y431933D01*
X309759Y431874D01*
X309993Y431816D01*
X310022Y431801D01*
X310096Y431772D01*
X310198Y431728D01*
X310330Y431655D01*
X310476Y431567D01*
X310637Y431435D01*
X310784Y431289D01*
X310930Y431113D01*
X310945Y431084D01*
X310989Y431025D01*
X311047Y430923D01*
X311121Y430776D01*
X311179Y430601D01*
X311238Y430381D01*
X311281Y430147D01*
X311296Y429883D01*
Y429854D01*
Y429781D01*
X311281Y429664D01*
X311267Y429517D01*
X311223Y429342D01*
X311179Y429151D01*
X311106Y428961D01*
X311018Y428785D01*
X311003Y428770D01*
X310974Y428712D01*
X310901Y428624D01*
X310828Y428522D01*
X310711Y428405D01*
X310593Y428273D01*
X310432Y428156D01*
X310271Y428039D01*
X310257D01*
X310213Y428009D01*
X310140Y427980D01*
X310052Y427936D01*
X309935Y427892D01*
X309788Y427848D01*
X309627Y427790D01*
X309437Y427746D01*
X309452D01*
X309510Y427716D01*
X309583Y427687D01*
X309671Y427658D01*
X309876Y427570D01*
X309964Y427512D01*
X310052Y427468D01*
X310081Y427453D01*
X310154Y427380D01*
X310198Y427321D01*
X310257Y427248D01*
X310330Y427160D01*
X310418Y427058D01*
X310432Y427043D01*
X310462Y427014D01*
X310506Y426955D01*
X310549Y426882D01*
X310667Y426735D01*
X310711Y426662D01*
X310754Y426589D01*
X311911Y424393D01*
X309246D01*
X307973Y426706D01*
X307958Y426721D01*
X307929Y426780D01*
X307885Y426853D01*
X307826Y426955D01*
X307695Y427145D01*
X307622Y427233D01*
X307548Y427292D01*
X307534Y427307D01*
X307504Y427321D01*
X307446Y427350D01*
X307387Y427394D01*
X307299Y427424D01*
X307197Y427453D01*
X307095Y427468D01*
X306977Y427482D01*
X306772D01*
Y424393D01*
X304415D01*
Y432006D01*
X308602D01*
X308719Y431991D01*
D02*
G37*
G36*
X367192D02*
X367426Y431977D01*
X367689Y431962D01*
X367968Y431933D01*
X368231Y431874D01*
X368465Y431816D01*
X368495Y431801D01*
X368568Y431772D01*
X368670Y431728D01*
X368802Y431655D01*
X368949Y431567D01*
X369110Y431435D01*
X369256Y431289D01*
X369402Y431113D01*
X369417Y431084D01*
X369461Y431025D01*
X369519Y430923D01*
X369593Y430776D01*
X369651Y430601D01*
X369710Y430381D01*
X369754Y430147D01*
X369768Y429883D01*
Y429854D01*
Y429781D01*
X369754Y429664D01*
X369739Y429517D01*
X369695Y429342D01*
X369651Y429151D01*
X369578Y428961D01*
X369490Y428785D01*
X369476Y428770D01*
X369446Y428712D01*
X369373Y428624D01*
X369300Y428522D01*
X369183Y428405D01*
X369066Y428273D01*
X368904Y428156D01*
X368743Y428039D01*
X368729D01*
X368685Y428009D01*
X368612Y427980D01*
X368524Y427936D01*
X368407Y427892D01*
X368260Y427848D01*
X368099Y427790D01*
X367909Y427746D01*
X367924D01*
X367982Y427716D01*
X368055Y427687D01*
X368143Y427658D01*
X368348Y427570D01*
X368436Y427512D01*
X368524Y427468D01*
X368553Y427453D01*
X368626Y427380D01*
X368670Y427321D01*
X368729Y427248D01*
X368802Y427160D01*
X368890Y427058D01*
X368904Y427043D01*
X368934Y427014D01*
X368978Y426955D01*
X369022Y426882D01*
X369139Y426735D01*
X369183Y426662D01*
X369227Y426589D01*
X370383Y424393D01*
X367719D01*
X366445Y426706D01*
X366430Y426721D01*
X366401Y426780D01*
X366357Y426853D01*
X366299Y426955D01*
X366167Y427145D01*
X366094Y427233D01*
X366020Y427292D01*
X366006Y427307D01*
X365977Y427321D01*
X365918Y427350D01*
X365859Y427394D01*
X365772Y427424D01*
X365669Y427453D01*
X365567Y427468D01*
X365450Y427482D01*
X365245D01*
Y424393D01*
X362888D01*
Y432006D01*
X367074D01*
X367192Y431991D01*
D02*
G37*
G36*
X350575Y432123D02*
X350839Y432108D01*
X351146Y432079D01*
X351468Y432035D01*
X351761Y431977D01*
X351893Y431947D01*
X352025Y431904D01*
X352039D01*
X352054Y431889D01*
X352127Y431860D01*
X352244Y431801D01*
X352391Y431728D01*
X352552Y431625D01*
X352727Y431508D01*
X352903Y431362D01*
X353064Y431186D01*
X353079Y431172D01*
X353137Y431098D01*
X353210Y430996D01*
X353298Y430864D01*
X353401Y430688D01*
X353503Y430483D01*
X353606Y430234D01*
X353694Y429971D01*
X351424Y429576D01*
Y429590D01*
X351395Y429649D01*
X351366Y429722D01*
X351307Y429825D01*
X351249Y429927D01*
X351161Y430030D01*
X351058Y430147D01*
X350941Y430234D01*
X350927Y430249D01*
X350883Y430278D01*
X350810Y430308D01*
X350707Y430352D01*
X350590Y430396D01*
X350429Y430440D01*
X350268Y430454D01*
X350078Y430469D01*
X350004D01*
X349946Y430454D01*
X349814Y430440D01*
X349638Y430396D01*
X349433Y430337D01*
X349228Y430234D01*
X349038Y430103D01*
X348848Y429927D01*
X348833Y429898D01*
X348775Y429825D01*
X348701Y429693D01*
X348628Y429517D01*
X348540Y429268D01*
X348467Y428975D01*
X348409Y428624D01*
X348394Y428434D01*
Y428214D01*
Y428199D01*
Y428156D01*
Y428097D01*
X348409Y428009D01*
Y427907D01*
X348423Y427804D01*
X348452Y427541D01*
X348511Y427248D01*
X348584Y426955D01*
X348701Y426692D01*
X348775Y426560D01*
X348848Y426457D01*
X348877Y426428D01*
X348936Y426369D01*
X349038Y426296D01*
X349184Y426194D01*
X349375Y426091D01*
X349594Y426018D01*
X349858Y425960D01*
X350151Y425930D01*
X350297D01*
X350400Y425945D01*
X350502Y425960D01*
X350634Y425974D01*
X350897Y426033D01*
X350912D01*
X350956Y426062D01*
X351044Y426091D01*
X351146Y426121D01*
X351263Y426179D01*
X351410Y426252D01*
X351556Y426326D01*
X351732Y426428D01*
Y427160D01*
X350151D01*
Y428741D01*
X353796D01*
Y425477D01*
X353781Y425462D01*
X353752Y425447D01*
X353694Y425403D01*
X353620Y425359D01*
X353533Y425301D01*
X353415Y425242D01*
X353167Y425096D01*
X352874Y424935D01*
X352566Y424774D01*
X352244Y424627D01*
X351937Y424510D01*
X351922D01*
X351907Y424496D01*
X351849Y424481D01*
X351790Y424466D01*
X351717Y424452D01*
X351629Y424437D01*
X351395Y424393D01*
X351117Y424335D01*
X350795Y424305D01*
X350429Y424276D01*
X350034Y424261D01*
X349902D01*
X349814Y424276D01*
X349697D01*
X349565Y424291D01*
X349419Y424305D01*
X349258Y424320D01*
X348906Y424378D01*
X348540Y424452D01*
X348160Y424569D01*
X347823Y424715D01*
X347808D01*
X347779Y424745D01*
X347735Y424759D01*
X347676Y424803D01*
X347530Y424906D01*
X347340Y425067D01*
X347135Y425257D01*
X346915Y425491D01*
X346696Y425769D01*
X346505Y426091D01*
Y426106D01*
X346491Y426135D01*
X346461Y426179D01*
X346432Y426252D01*
X346403Y426340D01*
X346359Y426443D01*
X346315Y426560D01*
X346271Y426706D01*
X346183Y427014D01*
X346110Y427365D01*
X346052Y427775D01*
X346037Y428199D01*
Y428214D01*
Y428258D01*
Y428317D01*
X346052Y428405D01*
Y428522D01*
X346066Y428639D01*
X346081Y428785D01*
X346095Y428932D01*
X346169Y429283D01*
X346256Y429634D01*
X346374Y430015D01*
X346549Y430366D01*
Y430381D01*
X346579Y430410D01*
X346608Y430454D01*
X346652Y430513D01*
X346769Y430688D01*
X346930Y430893D01*
X347149Y431113D01*
X347398Y431347D01*
X347706Y431567D01*
X348057Y431757D01*
X348072D01*
X348087Y431772D01*
X348145Y431786D01*
X348204Y431816D01*
X348277Y431845D01*
X348365Y431874D01*
X348482Y431918D01*
X348614Y431947D01*
X348745Y431977D01*
X348906Y432021D01*
X349258Y432079D01*
X349668Y432123D01*
X350136Y432138D01*
X350444D01*
X350575Y432123D01*
D02*
G37*
G36*
X275853D02*
X275985D01*
X276116Y432108D01*
X276277Y432094D01*
X276438Y432064D01*
X276790Y432006D01*
X277170Y431904D01*
X277522Y431772D01*
X277683Y431684D01*
X277829Y431581D01*
X277844D01*
X277858Y431552D01*
X277946Y431479D01*
X278078Y431347D01*
X278239Y431157D01*
X278400Y430923D01*
X278547Y430630D01*
X278620Y430454D01*
X278664Y430264D01*
X278722Y430073D01*
X278751Y429854D01*
X276541Y429737D01*
Y429766D01*
X276526Y429825D01*
X276497Y429912D01*
X276468Y430030D01*
X276409Y430147D01*
X276350Y430264D01*
X276263Y430381D01*
X276160Y430483D01*
X276146Y430498D01*
X276116Y430527D01*
X276043Y430557D01*
X275955Y430601D01*
X275853Y430644D01*
X275721Y430688D01*
X275560Y430703D01*
X275384Y430718D01*
X275326D01*
X275253Y430703D01*
X275165D01*
X274960Y430644D01*
X274872Y430601D01*
X274784Y430542D01*
X274769Y430527D01*
X274755Y430513D01*
X274681Y430425D01*
X274608Y430293D01*
X274594Y430205D01*
X274579Y430117D01*
Y430103D01*
Y430088D01*
X274594Y430000D01*
X274652Y429898D01*
X274681Y429839D01*
X274740Y429781D01*
X274755D01*
X274769Y429751D01*
X274828Y429722D01*
X274901Y429693D01*
X275004Y429649D01*
X275135Y429605D01*
X275311Y429546D01*
X275516Y429502D01*
X275531D01*
X275589Y429488D01*
X275662Y429473D01*
X275765Y429444D01*
X275897Y429415D01*
X276043Y429385D01*
X276204Y429342D01*
X276365Y429297D01*
X276731Y429195D01*
X277097Y429078D01*
X277434Y428961D01*
X277580Y428888D01*
X277712Y428829D01*
X277727D01*
X277741Y428814D01*
X277829Y428770D01*
X277946Y428697D01*
X278093Y428595D01*
X278254Y428478D01*
X278415Y428331D01*
X278561Y428170D01*
X278693Y427980D01*
X278708Y427951D01*
X278737Y427892D01*
X278795Y427790D01*
X278854Y427658D01*
X278898Y427497D01*
X278956Y427307D01*
X278986Y427087D01*
X279000Y426867D01*
Y426853D01*
Y426838D01*
Y426794D01*
Y426750D01*
X278986Y426604D01*
X278956Y426428D01*
X278898Y426208D01*
X278825Y425989D01*
X278722Y425740D01*
X278590Y425506D01*
X278576Y425477D01*
X278517Y425403D01*
X278429Y425301D01*
X278298Y425154D01*
X278136Y425008D01*
X277932Y424847D01*
X277712Y424701D01*
X277449Y424569D01*
X277434D01*
X277419Y424554D01*
X277375Y424540D01*
X277317Y424525D01*
X277243Y424496D01*
X277170Y424466D01*
X276951Y424422D01*
X276687Y424364D01*
X276380Y424305D01*
X276028Y424276D01*
X275633Y424261D01*
X275457D01*
X275326Y424276D01*
X275165Y424291D01*
X274989Y424305D01*
X274784Y424320D01*
X274579Y424349D01*
X274125Y424437D01*
X273686Y424569D01*
X273481Y424657D01*
X273291Y424759D01*
X273100Y424862D01*
X272954Y424993D01*
X272939Y425008D01*
X272925Y425023D01*
X272881Y425067D01*
X272837Y425125D01*
X272778Y425198D01*
X272720Y425286D01*
X272573Y425506D01*
X272427Y425784D01*
X272281Y426106D01*
X272178Y426487D01*
X272149Y426692D01*
X272119Y426897D01*
X274359Y427043D01*
Y427014D01*
X274374Y426955D01*
X274389Y426853D01*
X274418Y426735D01*
X274506Y426457D01*
X274579Y426326D01*
X274652Y426208D01*
X274667Y426194D01*
X274725Y426135D01*
X274799Y426062D01*
X274916Y425989D01*
X275062Y425901D01*
X275238Y425828D01*
X275443Y425769D01*
X275677Y425755D01*
X275765D01*
X275853Y425769D01*
X275955Y425784D01*
X276087Y425813D01*
X276204Y425857D01*
X276336Y425916D01*
X276438Y425989D01*
X276453Y426004D01*
X276482Y426033D01*
X276526Y426077D01*
X276585Y426150D01*
X276673Y426311D01*
X276702Y426413D01*
X276716Y426531D01*
Y426545D01*
Y426575D01*
X276702Y426633D01*
X276687Y426706D01*
X276658Y426794D01*
X276599Y426882D01*
X276541Y426970D01*
X276453Y427058D01*
X276438Y427072D01*
X276394Y427102D01*
X276321Y427145D01*
X276204Y427204D01*
X276043Y427263D01*
X275838Y427336D01*
X275574Y427424D01*
X275413Y427453D01*
X275253Y427497D01*
X275238D01*
X275179Y427512D01*
X275106Y427541D01*
X275004Y427555D01*
X274872Y427599D01*
X274725Y427643D01*
X274579Y427687D01*
X274403Y427746D01*
X274037Y427878D01*
X273671Y428039D01*
X273335Y428229D01*
X273188Y428331D01*
X273057Y428434D01*
X273027Y428463D01*
X272954Y428536D01*
X272851Y428668D01*
X272734Y428829D01*
X272603Y429049D01*
X272500Y429297D01*
X272427Y429576D01*
X272412Y429737D01*
X272398Y429898D01*
Y429927D01*
Y430000D01*
X272412Y430117D01*
X272442Y430264D01*
X272485Y430425D01*
X272544Y430615D01*
X272617Y430805D01*
X272734Y431010D01*
X272749Y431040D01*
X272793Y431098D01*
X272881Y431186D01*
X272983Y431318D01*
X273130Y431450D01*
X273305Y431581D01*
X273510Y431713D01*
X273745Y431830D01*
X273759D01*
X273774Y431845D01*
X273818Y431860D01*
X273876Y431874D01*
X273935Y431904D01*
X274023Y431933D01*
X274242Y431991D01*
X274506Y432035D01*
X274828Y432094D01*
X275194Y432123D01*
X275619Y432138D01*
X275765D01*
X275853Y432123D01*
D02*
G37*
G36*
X309532Y441522D02*
X309708Y441507D01*
X309913Y441493D01*
X310118Y441463D01*
X310337Y441405D01*
X310527Y441346D01*
X310557Y441332D01*
X310615Y441317D01*
X310703Y441273D01*
X310820Y441215D01*
X311084Y441053D01*
X311216Y440966D01*
X311333Y440848D01*
X311347Y440834D01*
X311391Y440790D01*
X311435Y440731D01*
X311508Y440658D01*
X311582Y440556D01*
X311669Y440453D01*
X311816Y440204D01*
X311830Y440190D01*
X311845Y440146D01*
X311889Y440073D01*
X311918Y439985D01*
X311977Y439868D01*
X312021Y439736D01*
X312065Y439590D01*
X312109Y439428D01*
Y439414D01*
X312123Y439385D01*
Y439341D01*
X312138Y439282D01*
X312167Y439209D01*
X312182Y439106D01*
X312226Y438887D01*
X312255Y438623D01*
X312299Y438316D01*
X312314Y437994D01*
X312328Y437642D01*
Y437613D01*
Y437555D01*
Y437452D01*
X312314Y437306D01*
Y437130D01*
X312299Y436940D01*
X312270Y436720D01*
X312240Y436486D01*
X312153Y436003D01*
X312035Y435490D01*
X311948Y435256D01*
X311860Y435022D01*
X311743Y434802D01*
X311626Y434612D01*
X311611Y434597D01*
X311596Y434568D01*
X311552Y434524D01*
X311494Y434466D01*
X311406Y434392D01*
X311318Y434304D01*
X311201Y434231D01*
X311055Y434143D01*
X310908Y434041D01*
X310733Y433968D01*
X310527Y433880D01*
X310308Y433807D01*
X310074Y433748D01*
X309810Y433704D01*
X309517Y433675D01*
X309210Y433660D01*
X309049D01*
X308976Y433675D01*
X308873D01*
X308654Y433704D01*
X308419Y433734D01*
X308156Y433777D01*
X307892Y433851D01*
X307658Y433953D01*
X307629Y433968D01*
X307556Y434012D01*
X307453Y434085D01*
X307321Y434187D01*
X307160Y434304D01*
X306999Y434466D01*
X306838Y434656D01*
X306692Y434861D01*
X306677Y434875D01*
X306648Y434934D01*
X306589Y435036D01*
X306531Y435168D01*
X306472Y435329D01*
X306399Y435520D01*
X306326Y435754D01*
X306267Y436003D01*
Y436017D01*
Y436032D01*
X306253Y436076D01*
X306238Y436134D01*
X306223Y436281D01*
X306194Y436486D01*
X306165Y436720D01*
X306150Y436998D01*
X306121Y437306D01*
Y437628D01*
Y437657D01*
Y437730D01*
Y437833D01*
X306136Y437979D01*
X306150Y438155D01*
X306165Y438360D01*
X306179Y438579D01*
X306223Y438814D01*
X306311Y439326D01*
X306443Y439824D01*
X306531Y440058D01*
X306648Y440277D01*
X306765Y440483D01*
X306897Y440658D01*
X306911Y440673D01*
X306941Y440702D01*
X306985Y440746D01*
X307043Y440790D01*
X307131Y440863D01*
X307234Y440936D01*
X307351Y441010D01*
X307482Y441097D01*
X307644Y441185D01*
X307819Y441258D01*
X308010Y441332D01*
X308229Y441405D01*
X308463Y441449D01*
X308712Y441493D01*
X308976Y441522D01*
X309268Y441537D01*
X309400D01*
X309532Y441522D01*
D02*
G37*
G36*
X287491Y427468D02*
Y427438D01*
Y427350D01*
X287477Y427219D01*
X287462Y427058D01*
X287433Y426867D01*
X287404Y426648D01*
X287345Y426428D01*
X287272Y426194D01*
X287257Y426165D01*
X287228Y426091D01*
X287184Y425974D01*
X287111Y425843D01*
X287023Y425667D01*
X286906Y425491D01*
X286774Y425316D01*
X286613Y425140D01*
X286598Y425125D01*
X286540Y425067D01*
X286437Y424993D01*
X286320Y424891D01*
X286189Y424788D01*
X286028Y424686D01*
X285852Y424583D01*
X285676Y424510D01*
X285662D01*
X285647Y424496D01*
X285603Y424481D01*
X285559Y424466D01*
X285413Y424437D01*
X285208Y424393D01*
X284973Y424335D01*
X284695Y424305D01*
X284373Y424276D01*
X284022Y424261D01*
X283817D01*
X283670Y424276D01*
X283495D01*
X283290Y424291D01*
X283056Y424305D01*
X282821Y424335D01*
X282792D01*
X282719Y424349D01*
X282587Y424364D01*
X282441Y424408D01*
X282265Y424437D01*
X282075Y424496D01*
X281899Y424569D01*
X281723Y424642D01*
X281709Y424657D01*
X281650Y424686D01*
X281562Y424745D01*
X281460Y424818D01*
X281328Y424906D01*
X281196Y425023D01*
X281065Y425154D01*
X280918Y425301D01*
X280904Y425316D01*
X280860Y425374D01*
X280801Y425462D01*
X280713Y425564D01*
X280640Y425696D01*
X280552Y425857D01*
X280464Y426018D01*
X280406Y426179D01*
Y426194D01*
X280391Y426208D01*
X280377Y426296D01*
X280347Y426443D01*
X280303Y426604D01*
X280259Y426809D01*
X280230Y427028D01*
X280215Y427248D01*
X280201Y427468D01*
Y432006D01*
X282543D01*
Y427350D01*
Y427321D01*
Y427248D01*
X282558Y427131D01*
X282587Y426999D01*
X282631Y426838D01*
X282690Y426677D01*
X282763Y426516D01*
X282880Y426369D01*
X282894Y426355D01*
X282939Y426311D01*
X283026Y426267D01*
X283129Y426208D01*
X283275Y426135D01*
X283436Y426091D01*
X283627Y426048D01*
X283846Y426033D01*
X283949D01*
X284051Y426048D01*
X284197Y426077D01*
X284344Y426121D01*
X284505Y426179D01*
X284651Y426252D01*
X284798Y426369D01*
X284812Y426384D01*
X284856Y426428D01*
X284915Y426516D01*
X284973Y426618D01*
X285032Y426765D01*
X285090Y426926D01*
X285135Y427131D01*
X285149Y427350D01*
Y432006D01*
X287491D01*
Y427468D01*
D02*
G37*
G36*
X316449Y432123D02*
X316581D01*
X316713Y432108D01*
X316874Y432094D01*
X317050Y432064D01*
X317401Y431991D01*
X317782Y431889D01*
X318148Y431742D01*
X318323Y431655D01*
X318484Y431552D01*
X318499D01*
X318514Y431523D01*
X318558Y431494D01*
X318616Y431450D01*
X318762Y431303D01*
X318953Y431113D01*
X319143Y430864D01*
X319348Y430557D01*
X319538Y430191D01*
X319714Y429766D01*
X317635Y429312D01*
Y429327D01*
X317621Y429371D01*
X317591Y429429D01*
X317562Y429502D01*
X317489Y429664D01*
X317445Y429737D01*
X317401Y429810D01*
X317386Y429825D01*
X317372Y429854D01*
X317328Y429912D01*
X317269Y429971D01*
X317108Y430103D01*
X316903Y430234D01*
X316889D01*
X316859Y430264D01*
X316801Y430278D01*
X316728Y430308D01*
X316625Y430337D01*
X316523Y430352D01*
X316274Y430381D01*
X316200D01*
X316142Y430366D01*
X315996Y430352D01*
X315820Y430308D01*
X315630Y430220D01*
X315425Y430103D01*
X315234Y429956D01*
X315146Y429854D01*
X315059Y429737D01*
X315044Y429707D01*
X315015Y429649D01*
X314956Y429532D01*
X314898Y429371D01*
X314839Y429151D01*
X314780Y428902D01*
X314751Y428595D01*
X314737Y428229D01*
Y428214D01*
Y428170D01*
Y428112D01*
Y428024D01*
X314751Y427921D01*
Y427804D01*
X314780Y427541D01*
X314824Y427248D01*
X314898Y426970D01*
X314985Y426706D01*
X315044Y426604D01*
X315117Y426501D01*
X315132Y426487D01*
X315190Y426428D01*
X315278Y426355D01*
X315395Y426267D01*
X315556Y426179D01*
X315732Y426106D01*
X315952Y426048D01*
X316200Y426033D01*
X316318D01*
X316435Y426048D01*
X316581Y426077D01*
X316742Y426121D01*
X316918Y426194D01*
X317064Y426282D01*
X317211Y426399D01*
X317225Y426413D01*
X317269Y426472D01*
X317328Y426560D01*
X317401Y426677D01*
X317489Y426838D01*
X317577Y427028D01*
X317650Y427248D01*
X317723Y427512D01*
X319787Y426882D01*
Y426867D01*
X319773Y426838D01*
X319758Y426794D01*
X319743Y426735D01*
X319700Y426575D01*
X319626Y426384D01*
X319524Y426150D01*
X319407Y425901D01*
X319275Y425667D01*
X319114Y425433D01*
X319099Y425403D01*
X319041Y425330D01*
X318938Y425228D01*
X318807Y425110D01*
X318660Y424964D01*
X318470Y424818D01*
X318250Y424671D01*
X318016Y424554D01*
X317987Y424540D01*
X317899Y424510D01*
X317752Y424466D01*
X317562Y424408D01*
X317313Y424349D01*
X317035Y424305D01*
X316698Y424276D01*
X316332Y424261D01*
X316127D01*
X316025Y424276D01*
X315893D01*
X315615Y424305D01*
X315293Y424349D01*
X314956Y424408D01*
X314619Y424496D01*
X314297Y424613D01*
X314283D01*
X314268Y424627D01*
X314224Y424657D01*
X314166Y424686D01*
X314019Y424774D01*
X313843Y424906D01*
X313624Y425081D01*
X313404Y425301D01*
X313170Y425564D01*
X312950Y425886D01*
Y425901D01*
X312921Y425930D01*
X312892Y425974D01*
X312863Y426048D01*
X312819Y426135D01*
X312775Y426252D01*
X312716Y426369D01*
X312672Y426516D01*
X312614Y426677D01*
X312555Y426853D01*
X312511Y427043D01*
X312467Y427248D01*
X312409Y427702D01*
X312380Y428214D01*
Y428229D01*
Y428302D01*
Y428390D01*
X312394Y428522D01*
X312409Y428683D01*
X312438Y428858D01*
X312467Y429063D01*
X312511Y429283D01*
X312628Y429751D01*
X312702Y430000D01*
X312804Y430234D01*
X312921Y430469D01*
X313053Y430703D01*
X313199Y430908D01*
X313375Y431113D01*
X313390Y431128D01*
X313419Y431157D01*
X313477Y431201D01*
X313565Y431274D01*
X313668Y431347D01*
X313785Y431435D01*
X313946Y431537D01*
X314107Y431625D01*
X314297Y431728D01*
X314517Y431816D01*
X314751Y431904D01*
X315000Y431977D01*
X315278Y432050D01*
X315571Y432094D01*
X315879Y432123D01*
X316215Y432138D01*
X316362D01*
X316449Y432123D01*
D02*
G37*
G36*
X328220Y424393D02*
X325863D01*
Y427468D01*
X323301D01*
Y424393D01*
X320944D01*
Y432006D01*
X323301D01*
Y429342D01*
X325863D01*
Y432006D01*
X328220D01*
Y424393D01*
D02*
G37*
G36*
X217408Y113989D02*
X216008D01*
Y119789D01*
X217408D01*
Y113989D01*
D02*
G37*
G36*
X220008D02*
X218608D01*
Y119789D01*
X220008D01*
Y113989D01*
D02*
G37*
G36*
X307992Y128772D02*
X303661D01*
Y130347D01*
X307992D01*
Y128772D01*
D02*
G37*
G36*
X214908Y113989D02*
X213508D01*
Y119789D01*
X214908D01*
Y113989D01*
D02*
G37*
G36*
X207208D02*
X205808D01*
Y119789D01*
X207208D01*
Y113989D01*
D02*
G37*
G36*
X209708D02*
X208308D01*
Y119789D01*
X209708D01*
Y113989D01*
D02*
G37*
G36*
X212308D02*
X210908D01*
Y119789D01*
X212308D01*
Y113989D01*
D02*
G37*
G36*
X326496Y133890D02*
X322165D01*
Y135465D01*
X326496D01*
Y133890D01*
D02*
G37*
G36*
X307992Y136449D02*
X303661D01*
Y138024D01*
X307992D01*
Y136449D01*
D02*
G37*
G36*
X326496D02*
X322165D01*
Y138024D01*
X326496D01*
Y136449D01*
D02*
G37*
G36*
X307992Y133890D02*
X303661D01*
Y135465D01*
X307992D01*
Y133890D01*
D02*
G37*
G36*
X326496Y128772D02*
X322165D01*
Y130347D01*
X326496D01*
Y128772D01*
D02*
G37*
G36*
X307992Y131331D02*
X303661D01*
Y132905D01*
X307992D01*
Y131331D01*
D02*
G37*
G36*
X326496D02*
X322165D01*
Y132905D01*
X326496D01*
Y131331D01*
D02*
G37*
G36*
X204608Y113989D02*
X203208D01*
Y119789D01*
X204608D01*
Y113989D01*
D02*
G37*
G36*
X305769Y450921D02*
X305901D01*
X306033Y450906D01*
X306194Y450892D01*
X306355Y450862D01*
X306707Y450804D01*
X307087Y450701D01*
X307438Y450569D01*
X307599Y450482D01*
X307746Y450379D01*
X307761D01*
X307775Y450350D01*
X307863Y450277D01*
X307995Y450145D01*
X308156Y449955D01*
X308317Y449720D01*
X308463Y449428D01*
X308537Y449252D01*
X308580Y449061D01*
X308639Y448871D01*
X308668Y448652D01*
X306458Y448534D01*
Y448564D01*
X306443Y448622D01*
X306414Y448710D01*
X306384Y448827D01*
X306326Y448944D01*
X306267Y449061D01*
X306179Y449179D01*
X306077Y449281D01*
X306062Y449296D01*
X306033Y449325D01*
X305960Y449354D01*
X305872Y449398D01*
X305769Y449442D01*
X305638Y449486D01*
X305477Y449501D01*
X305301Y449515D01*
X305242D01*
X305169Y449501D01*
X305082D01*
X304876Y449442D01*
X304789Y449398D01*
X304701Y449340D01*
X304686Y449325D01*
X304672Y449310D01*
X304598Y449223D01*
X304525Y449091D01*
X304510Y449003D01*
X304496Y448915D01*
Y448901D01*
Y448886D01*
X304510Y448798D01*
X304569Y448696D01*
X304598Y448637D01*
X304657Y448578D01*
X304672D01*
X304686Y448549D01*
X304745Y448520D01*
X304818Y448491D01*
X304920Y448447D01*
X305052Y448403D01*
X305228Y448344D01*
X305433Y448300D01*
X305448D01*
X305506Y448286D01*
X305579Y448271D01*
X305682Y448242D01*
X305814Y448212D01*
X305960Y448183D01*
X306121Y448139D01*
X306282Y448095D01*
X306648Y447993D01*
X307014Y447876D01*
X307351Y447759D01*
X307497Y447685D01*
X307629Y447627D01*
X307644D01*
X307658Y447612D01*
X307746Y447568D01*
X307863Y447495D01*
X308010Y447393D01*
X308171Y447275D01*
X308331Y447129D01*
X308478Y446968D01*
X308610Y446778D01*
X308624Y446748D01*
X308654Y446690D01*
X308712Y446587D01*
X308771Y446456D01*
X308815Y446295D01*
X308873Y446104D01*
X308903Y445885D01*
X308917Y445665D01*
Y445650D01*
Y445636D01*
Y445592D01*
Y445548D01*
X308903Y445402D01*
X308873Y445226D01*
X308815Y445006D01*
X308741Y444787D01*
X308639Y444538D01*
X308507Y444304D01*
X308493Y444274D01*
X308434Y444201D01*
X308346Y444099D01*
X308214Y443952D01*
X308053Y443806D01*
X307848Y443645D01*
X307629Y443498D01*
X307365Y443367D01*
X307351D01*
X307336Y443352D01*
X307292Y443337D01*
X307234Y443323D01*
X307160Y443293D01*
X307087Y443264D01*
X306868Y443220D01*
X306604Y443162D01*
X306297Y443103D01*
X305945Y443074D01*
X305550Y443059D01*
X305374D01*
X305242Y443074D01*
X305082Y443088D01*
X304906Y443103D01*
X304701Y443118D01*
X304496Y443147D01*
X304042Y443235D01*
X303603Y443367D01*
X303398Y443454D01*
X303207Y443557D01*
X303017Y443659D01*
X302871Y443791D01*
X302856Y443806D01*
X302841Y443820D01*
X302798Y443864D01*
X302754Y443923D01*
X302695Y443996D01*
X302637Y444084D01*
X302490Y444304D01*
X302344Y444582D01*
X302197Y444904D01*
X302095Y445284D01*
X302066Y445489D01*
X302036Y445694D01*
X304276Y445841D01*
Y445812D01*
X304291Y445753D01*
X304306Y445650D01*
X304335Y445533D01*
X304423Y445255D01*
X304496Y445123D01*
X304569Y445006D01*
X304584Y444992D01*
X304642Y444933D01*
X304715Y444860D01*
X304833Y444787D01*
X304979Y444699D01*
X305155Y444626D01*
X305360Y444567D01*
X305594Y444552D01*
X305682D01*
X305769Y444567D01*
X305872Y444582D01*
X306004Y444611D01*
X306121Y444655D01*
X306253Y444713D01*
X306355Y444787D01*
X306370Y444801D01*
X306399Y444831D01*
X306443Y444874D01*
X306502Y444948D01*
X306589Y445109D01*
X306619Y445211D01*
X306633Y445328D01*
Y445343D01*
Y445372D01*
X306619Y445431D01*
X306604Y445504D01*
X306575Y445592D01*
X306516Y445680D01*
X306458Y445768D01*
X306370Y445855D01*
X306355Y445870D01*
X306311Y445899D01*
X306238Y445943D01*
X306121Y446002D01*
X305960Y446060D01*
X305755Y446134D01*
X305491Y446221D01*
X305330Y446251D01*
X305169Y446295D01*
X305155D01*
X305096Y446309D01*
X305023Y446339D01*
X304920Y446353D01*
X304789Y446397D01*
X304642Y446441D01*
X304496Y446485D01*
X304320Y446544D01*
X303954Y446675D01*
X303588Y446836D01*
X303252Y447027D01*
X303105Y447129D01*
X302973Y447231D01*
X302944Y447261D01*
X302871Y447334D01*
X302768Y447466D01*
X302651Y447627D01*
X302519Y447846D01*
X302417Y448095D01*
X302344Y448374D01*
X302329Y448534D01*
X302314Y448696D01*
Y448725D01*
Y448798D01*
X302329Y448915D01*
X302358Y449061D01*
X302402Y449223D01*
X302461Y449413D01*
X302534Y449603D01*
X302651Y449808D01*
X302666Y449837D01*
X302710Y449896D01*
X302798Y449984D01*
X302900Y450116D01*
X303046Y450247D01*
X303222Y450379D01*
X303427Y450511D01*
X303661Y450628D01*
X303676D01*
X303691Y450643D01*
X303735Y450657D01*
X303793Y450672D01*
X303852Y450701D01*
X303940Y450731D01*
X304159Y450789D01*
X304423Y450833D01*
X304745Y450892D01*
X305111Y450921D01*
X305535Y450936D01*
X305682D01*
X305769Y450921D01*
D02*
G37*
G36*
X329179Y445153D02*
X326104D01*
Y446792D01*
X329179D01*
Y445153D01*
D02*
G37*
G36*
X204608Y91789D02*
X203208D01*
Y97589D01*
X204608D01*
Y91789D01*
D02*
G37*
G36*
X209708D02*
X208308D01*
Y97589D01*
X209708D01*
Y91789D01*
D02*
G37*
G36*
X207208D02*
X205808D01*
Y97589D01*
X207208D01*
Y91789D01*
D02*
G37*
G36*
X214908D02*
X213508D01*
Y97589D01*
X214908D01*
Y91789D01*
D02*
G37*
G36*
X217408D02*
X216008D01*
Y97589D01*
X217408D01*
Y91789D01*
D02*
G37*
G36*
X220008D02*
X218608D01*
Y97589D01*
X220008D01*
Y91789D01*
D02*
G37*
G36*
X212308D02*
X210908D01*
Y97589D01*
X212308D01*
Y91789D01*
D02*
G37*
%LPC*%
G36*
X340496Y440248D02*
X340437D01*
X340364Y440234D01*
X340276Y440219D01*
X340174Y440190D01*
X340071Y440146D01*
X339969Y440087D01*
X339881Y439999D01*
X339866Y439985D01*
X339851Y439956D01*
X339808Y439912D01*
X339764Y439838D01*
X339720Y439750D01*
X339690Y439633D01*
X339661Y439516D01*
X339647Y439370D01*
Y439355D01*
Y439311D01*
X339661Y439238D01*
X339676Y439150D01*
X339705Y439048D01*
X339749Y438945D01*
X339808Y438828D01*
X339881Y438740D01*
X339895Y438726D01*
X339925Y438711D01*
X339983Y438667D01*
X340056Y438623D01*
X340144Y438579D01*
X340261Y438550D01*
X340378Y438521D01*
X340525Y438506D01*
X340583D01*
X340657Y438521D01*
X340744Y438535D01*
X340832Y438565D01*
X340935Y438609D01*
X341037Y438667D01*
X341125Y438740D01*
X341140Y438755D01*
X341169Y438784D01*
X341198Y438828D01*
X341242Y438901D01*
X341286Y438989D01*
X341330Y439106D01*
X341345Y439223D01*
X341359Y439355D01*
Y439370D01*
Y439428D01*
X341345Y439487D01*
X341330Y439590D01*
X341301Y439692D01*
X341257Y439794D01*
X341198Y439897D01*
X341110Y439999D01*
X341096Y440014D01*
X341067Y440043D01*
X341023Y440073D01*
X340950Y440131D01*
X340862Y440175D01*
X340759Y440204D01*
X340627Y440234D01*
X340496Y440248D01*
D02*
G37*
G36*
Y437262D02*
X340437D01*
X340349Y437247D01*
X340261Y437218D01*
X340159Y437188D01*
X340042Y437130D01*
X339925Y437042D01*
X339808Y436940D01*
X339793Y436925D01*
X339764Y436881D01*
X339720Y436808D01*
X339676Y436720D01*
X339617Y436603D01*
X339573Y436456D01*
X339544Y436296D01*
X339529Y436105D01*
Y436076D01*
Y436017D01*
X339544Y435929D01*
X339573Y435812D01*
X339603Y435681D01*
X339647Y435534D01*
X339720Y435402D01*
X339822Y435271D01*
X339837Y435256D01*
X339881Y435227D01*
X339939Y435168D01*
X340027Y435124D01*
X340130Y435066D01*
X340247Y435007D01*
X340378Y434978D01*
X340525Y434963D01*
X340583D01*
X340657Y434978D01*
X340759Y435007D01*
X340862Y435036D01*
X340964Y435095D01*
X341081Y435183D01*
X341198Y435285D01*
X341213Y435300D01*
X341242Y435344D01*
X341301Y435417D01*
X341359Y435505D01*
X341403Y435622D01*
X341462Y435768D01*
X341491Y435929D01*
X341506Y436105D01*
Y436134D01*
Y436193D01*
X341491Y436281D01*
X341462Y436398D01*
X341433Y436530D01*
X341374Y436661D01*
X341301Y436793D01*
X341198Y436925D01*
X341184Y436940D01*
X341140Y436984D01*
X341081Y437028D01*
X340993Y437101D01*
X340891Y437159D01*
X340774Y437203D01*
X340642Y437247D01*
X340496Y437262D01*
D02*
G37*
G36*
X313734Y449149D02*
X313704D01*
X313617Y449135D01*
X313485Y449120D01*
X313324Y449091D01*
X313134Y449018D01*
X312943Y448930D01*
X312768Y448813D01*
X312592Y448637D01*
X312577Y448608D01*
X312533Y448534D01*
X312460Y448417D01*
X312387Y448242D01*
X312299Y448007D01*
X312270Y447876D01*
X312240Y447729D01*
X312211Y447554D01*
X312182Y447378D01*
X312167Y447173D01*
Y446968D01*
Y446953D01*
Y446924D01*
Y446866D01*
Y446778D01*
X312182Y446690D01*
X312196Y446573D01*
X312226Y446324D01*
X312270Y446060D01*
X312343Y445782D01*
X312445Y445533D01*
X312519Y445416D01*
X312592Y445314D01*
X312606Y445299D01*
X312665Y445240D01*
X312768Y445153D01*
X312899Y445065D01*
X313060Y444977D01*
X313265Y444889D01*
X313485Y444831D01*
X313748Y444816D01*
X313778D01*
X313880Y444831D01*
X314012Y444845D01*
X314188Y444874D01*
X314363Y444933D01*
X314568Y445021D01*
X314758Y445138D01*
X314919Y445299D01*
X314934Y445328D01*
X314993Y445402D01*
X315051Y445519D01*
X315095Y445607D01*
X315139Y445709D01*
X315168Y445826D01*
X315212Y445958D01*
X315242Y446090D01*
X315285Y446251D01*
X315300Y446441D01*
X315330Y446631D01*
X315344Y446836D01*
Y447071D01*
Y447085D01*
Y447114D01*
Y447173D01*
Y447246D01*
X315330Y447334D01*
X315315Y447437D01*
X315285Y447671D01*
X315242Y447934D01*
X315154Y448198D01*
X315051Y448447D01*
X314905Y448652D01*
X314890Y448666D01*
X314832Y448725D01*
X314729Y448813D01*
X314598Y448901D01*
X314422Y448988D01*
X314231Y449076D01*
X313997Y449135D01*
X313734Y449149D01*
D02*
G37*
G36*
X351915Y449266D02*
X350875D01*
Y447715D01*
X351944D01*
X352017Y447729D01*
X352091Y447744D01*
X352208Y447759D01*
X352339Y447788D01*
X352500Y447817D01*
X352515D01*
X352544Y447832D01*
X352632Y447861D01*
X352764Y447934D01*
X352881Y448051D01*
X352896Y448066D01*
X352910Y448081D01*
X352940Y448125D01*
X352969Y448183D01*
X353013Y448315D01*
X353042Y448403D01*
Y448491D01*
Y448505D01*
Y448549D01*
X353028Y448622D01*
X353013Y448696D01*
X352983Y448798D01*
X352940Y448886D01*
X352881Y448974D01*
X352793Y449061D01*
X352779Y449076D01*
X352749Y449091D01*
X352691Y449120D01*
X352603Y449164D01*
X352471Y449208D01*
X352325Y449237D01*
X352134Y449252D01*
X351915Y449266D01*
D02*
G37*
G36*
X333124Y430030D02*
X332290Y427292D01*
X333959D01*
X333124Y430030D01*
D02*
G37*
G36*
X341484Y430469D02*
X340444D01*
Y428917D01*
X341513D01*
X341586Y428932D01*
X341659Y428946D01*
X341777Y428961D01*
X341908Y428990D01*
X342069Y429019D01*
X342084D01*
X342113Y429034D01*
X342201Y429063D01*
X342333Y429137D01*
X342450Y429254D01*
X342465Y429268D01*
X342479Y429283D01*
X342509Y429327D01*
X342538Y429385D01*
X342582Y429517D01*
X342611Y429605D01*
Y429693D01*
Y429707D01*
Y429751D01*
X342597Y429825D01*
X342582Y429898D01*
X342552Y430000D01*
X342509Y430088D01*
X342450Y430176D01*
X342362Y430264D01*
X342348Y430278D01*
X342318Y430293D01*
X342260Y430322D01*
X342172Y430366D01*
X342040Y430410D01*
X341894Y430440D01*
X341703Y430454D01*
X341484Y430469D01*
D02*
G37*
G36*
X292044Y430454D02*
X291386D01*
Y428756D01*
X292074D01*
X292191Y428770D01*
X292337Y428785D01*
X292498Y428814D01*
X292659Y428858D01*
X292806Y428917D01*
X292923Y428990D01*
X292938Y429005D01*
X292967Y429034D01*
X293011Y429078D01*
X293069Y429151D01*
X293113Y429239D01*
X293157Y429342D01*
X293186Y429459D01*
X293201Y429590D01*
Y429605D01*
Y429649D01*
X293186Y429722D01*
X293172Y429795D01*
X293143Y429898D01*
X293099Y429986D01*
X293040Y430088D01*
X292952Y430191D01*
X292938Y430205D01*
X292908Y430234D01*
X292850Y430278D01*
X292747Y430322D01*
X292630Y430366D01*
X292469Y430410D01*
X292279Y430440D01*
X292044Y430454D01*
D02*
G37*
G36*
X307812Y430469D02*
X306772D01*
Y428917D01*
X307841D01*
X307914Y428932D01*
X307987Y428946D01*
X308105Y428961D01*
X308236Y428990D01*
X308397Y429019D01*
X308412D01*
X308441Y429034D01*
X308529Y429063D01*
X308661Y429137D01*
X308778Y429254D01*
X308793Y429268D01*
X308807Y429283D01*
X308837Y429327D01*
X308866Y429385D01*
X308910Y429517D01*
X308939Y429605D01*
Y429693D01*
Y429707D01*
Y429751D01*
X308925Y429825D01*
X308910Y429898D01*
X308880Y430000D01*
X308837Y430088D01*
X308778Y430176D01*
X308690Y430264D01*
X308676Y430278D01*
X308646Y430293D01*
X308588Y430322D01*
X308500Y430366D01*
X308368Y430410D01*
X308222Y430440D01*
X308031Y430454D01*
X307812Y430469D01*
D02*
G37*
G36*
X366284D02*
X365245D01*
Y428917D01*
X366313D01*
X366387Y428932D01*
X366460Y428946D01*
X366577Y428961D01*
X366708Y428990D01*
X366870Y429019D01*
X366884D01*
X366914Y429034D01*
X367001Y429063D01*
X367133Y429137D01*
X367250Y429254D01*
X367265Y429268D01*
X367280Y429283D01*
X367309Y429327D01*
X367338Y429385D01*
X367382Y429517D01*
X367411Y429605D01*
Y429693D01*
Y429707D01*
Y429751D01*
X367397Y429825D01*
X367382Y429898D01*
X367353Y430000D01*
X367309Y430088D01*
X367250Y430176D01*
X367162Y430264D01*
X367148Y430278D01*
X367119Y430293D01*
X367060Y430322D01*
X366972Y430366D01*
X366840Y430410D01*
X366694Y430440D01*
X366504Y430454D01*
X366284Y430469D01*
D02*
G37*
G36*
X309195Y440131D02*
X309166D01*
X309107Y440117D01*
X309020Y440102D01*
X308903Y440058D01*
X308785Y439999D01*
X308654Y439897D01*
X308537Y439765D01*
X308434Y439590D01*
X308419Y439560D01*
X308405Y439487D01*
X308390Y439428D01*
X308361Y439341D01*
X308346Y439253D01*
X308331Y439150D01*
X308302Y439018D01*
X308288Y438872D01*
X308273Y438726D01*
X308244Y438535D01*
X308229Y438345D01*
Y438126D01*
X308214Y437891D01*
Y437628D01*
Y437613D01*
Y437569D01*
Y437496D01*
Y437394D01*
X308229Y437276D01*
Y437130D01*
X308244Y436837D01*
X308273Y436500D01*
X308317Y436164D01*
X308346Y436017D01*
X308376Y435871D01*
X308419Y435739D01*
X308463Y435637D01*
X308478Y435607D01*
X308507Y435549D01*
X308566Y435476D01*
X308654Y435373D01*
X308756Y435271D01*
X308873Y435197D01*
X309020Y435139D01*
X309195Y435110D01*
X309254D01*
X309312Y435124D01*
X309386Y435139D01*
X309473Y435168D01*
X309561Y435197D01*
X309664Y435256D01*
X309752Y435329D01*
X309766Y435344D01*
X309795Y435373D01*
X309840Y435432D01*
X309883Y435505D01*
X309942Y435593D01*
X310000Y435724D01*
X310059Y435856D01*
X310103Y436032D01*
Y436061D01*
X310118Y436120D01*
X310147Y436252D01*
X310161Y436413D01*
X310191Y436632D01*
X310206Y436896D01*
X310220Y437203D01*
Y437569D01*
Y437584D01*
Y437642D01*
Y437715D01*
Y437818D01*
X310206Y437935D01*
Y438082D01*
X310191Y438389D01*
X310161Y438726D01*
X310103Y439062D01*
X310074Y439223D01*
X310044Y439370D01*
X310000Y439502D01*
X309957Y439604D01*
X309942Y439633D01*
X309913Y439692D01*
X309854Y439765D01*
X309766Y439868D01*
X309664Y439970D01*
X309532Y440043D01*
X309371Y440102D01*
X309195Y440131D01*
D02*
G37*
%LPD*%
D10*
X-17569Y479823D02*
G03*
X-27070Y470322I0J-9501D01*
G01*
X402067Y470325D02*
G03*
X392566Y479826I-9501J0D01*
G01*
X392569Y-24114D02*
G03*
X402070Y-14613I0J9501D01*
G01*
X-27067Y-14616D02*
G03*
X-17566Y-24117I9501J0D01*
G01*
X-27067Y457185D02*
Y471161D01*
X-17470Y479823D02*
X-3789D01*
X379429Y479823D02*
X393406D01*
X402067Y456545D02*
Y470226D01*
X402067Y-15453D02*
Y-1476D01*
X378789Y-24114D02*
X392470D01*
X-27067Y-14518D02*
Y-837D01*
X-18406Y-24114D02*
X-4429D01*
D96*
X317575Y217697D02*
D03*
X316787Y269311D02*
D03*
X317811Y323051D02*
D03*
X317559Y369567D02*
D03*
X256766Y184658D02*
D03*
X200850Y189508D02*
D03*
X39375Y193732D02*
D03*
X97888Y188772D02*
D03*
D97*
X308937Y217677D02*
D03*
X308150Y269291D02*
D03*
X309173Y323031D02*
D03*
X308921Y369547D02*
D03*
X248129Y184638D02*
D03*
X209488Y189528D02*
D03*
X48013Y193752D02*
D03*
X89251Y188752D02*
D03*
D98*
X294346Y225177D02*
D03*
Y220177D02*
D03*
Y215177D02*
D03*
Y210177D02*
D03*
X293559Y276791D02*
D03*
Y271791D02*
D03*
Y266791D02*
D03*
Y261791D02*
D03*
X294583Y330532D02*
D03*
Y325532D02*
D03*
Y320532D02*
D03*
Y315531D02*
D03*
X294331Y377047D02*
D03*
Y372047D02*
D03*
Y367047D02*
D03*
Y362047D02*
D03*
X233538Y192138D02*
D03*
Y187138D02*
D03*
Y182138D02*
D03*
Y177138D02*
D03*
X224079Y182028D02*
D03*
Y187028D02*
D03*
Y192028D02*
D03*
Y197028D02*
D03*
X62603Y186252D02*
D03*
Y191252D02*
D03*
Y196252D02*
D03*
Y201252D02*
D03*
X74660Y196252D02*
D03*
Y191252D02*
D03*
Y186252D02*
D03*
Y181252D02*
D03*
D99*
X71161Y103423D02*
D03*
D100*
Y112697D02*
D03*
D101*
X47835Y92815D02*
D03*
X40354D02*
D03*
X44094Y103445D02*
D03*
X47835D02*
D03*
X40354D02*
D03*
D102*
X26083Y93012D02*
D03*
X31988D02*
D03*
X39567Y113681D02*
D03*
X45472D02*
D03*
X39567Y121260D02*
D03*
X45472D02*
D03*
X53445Y113583D02*
D03*
X59350D02*
D03*
X171415Y57939D02*
D03*
X177321D02*
D03*
X231457Y127520D02*
D03*
X237362D02*
D03*
X226378Y135472D02*
D03*
X232283D02*
D03*
X201220Y134213D02*
D03*
X195315D02*
D03*
X197126Y126260D02*
D03*
X191220D02*
D03*
X54429Y307382D02*
D03*
X48524D02*
D03*
X154188Y81244D02*
D03*
X148282D02*
D03*
X168235Y168789D02*
D03*
X162329D02*
D03*
X142717Y168622D02*
D03*
X136811D02*
D03*
X125787Y55512D02*
D03*
X131693D02*
D03*
X305020Y124114D02*
D03*
X299114D02*
D03*
X131693Y47933D02*
D03*
X125787D02*
D03*
X278228Y97441D02*
D03*
X272323D02*
D03*
X12205Y335138D02*
D03*
X6299D02*
D03*
X375512Y257756D02*
D03*
X381417D02*
D03*
X375827Y305630D02*
D03*
X381732D02*
D03*
X313110Y156496D02*
D03*
X319016D02*
D03*
D103*
X41965Y73227D02*
D03*
X58465Y73327D02*
D03*
D104*
X20472Y131791D02*
D03*
X-8662D02*
D03*
X25157Y314567D02*
D03*
X-3976D02*
D03*
D105*
X25394Y102657D02*
D03*
X32480D02*
D03*
X59842Y121457D02*
D03*
X52756D02*
D03*
X326260Y10669D02*
D03*
X319173D02*
D03*
X130512Y77362D02*
D03*
X137598D02*
D03*
X234685Y69961D02*
D03*
X227598D02*
D03*
D106*
X45531Y128150D02*
D03*
X39508D02*
D03*
X326161Y18937D02*
D03*
X320138D02*
D03*
D107*
X55216Y97933D02*
D03*
Y92028D02*
D03*
X187913Y106732D02*
D03*
Y112638D02*
D03*
X196811Y112598D02*
D03*
Y106693D02*
D03*
X233740Y107402D02*
D03*
Y113307D02*
D03*
X226417Y113307D02*
D03*
Y107402D02*
D03*
X216260Y142402D02*
D03*
Y136496D02*
D03*
X226693Y86181D02*
D03*
Y92087D02*
D03*
X108465Y83858D02*
D03*
Y77953D02*
D03*
X128346Y150591D02*
D03*
Y144685D02*
D03*
X136221Y144606D02*
D03*
Y150512D02*
D03*
X353701Y204764D02*
D03*
Y198858D02*
D03*
X357008Y256417D02*
D03*
Y250512D02*
D03*
X355276Y308898D02*
D03*
Y302992D02*
D03*
X348479Y358417D02*
D03*
Y352512D02*
D03*
X336929Y129842D02*
D03*
Y135748D02*
D03*
X154134Y51181D02*
D03*
Y45276D02*
D03*
X142922Y51141D02*
D03*
Y45236D02*
D03*
X163046Y75286D02*
D03*
Y81191D02*
D03*
X281890Y141535D02*
D03*
Y135630D02*
D03*
X296949Y142126D02*
D03*
Y136221D02*
D03*
X372797Y337193D02*
D03*
Y331288D02*
D03*
D108*
X278307Y84488D02*
D03*
Y78465D02*
D03*
X153543Y9409D02*
D03*
Y3386D02*
D03*
X259449Y7638D02*
D03*
Y1614D02*
D03*
X120768Y77894D02*
D03*
Y83917D02*
D03*
X150320Y66627D02*
D03*
Y60604D02*
D03*
X295669Y44606D02*
D03*
Y38583D02*
D03*
Y20748D02*
D03*
Y26772D02*
D03*
X115748Y77894D02*
D03*
Y83917D02*
D03*
D109*
X219324Y118825D02*
D03*
X214206D02*
D03*
X216667D02*
D03*
X211647D02*
D03*
X219308Y92721D02*
D03*
X214206Y92742D02*
D03*
X216667D02*
D03*
X211647D02*
D03*
X209088Y118825D02*
D03*
X206529D02*
D03*
X203871D02*
D03*
X208990Y92742D02*
D03*
X206529D02*
D03*
X203871D02*
D03*
D110*
X0Y0D02*
D03*
X369685D02*
D03*
D111*
Y454724D02*
D03*
D112*
X267323Y-12795D02*
D03*
Y-4134D02*
D03*
X259449D02*
D03*
Y-12795D02*
D03*
D113*
X288601Y179166D02*
D03*
Y166568D02*
D03*
X46142Y222402D02*
D03*
Y209803D02*
D03*
X255772Y216827D02*
D03*
Y204228D02*
D03*
D114*
X273775Y179268D02*
D03*
Y166670D02*
D03*
X60969Y222299D02*
D03*
Y209701D02*
D03*
X240945Y216929D02*
D03*
Y204331D02*
D03*
D115*
X278445Y128051D02*
D03*
X271358D02*
D03*
D116*
X319685Y30591D02*
D03*
X335433D02*
D03*
X319685Y67205D02*
D03*
X335433D02*
D03*
D117*
X226675Y229979D02*
D03*
X237305D02*
D03*
X66043Y240650D02*
D03*
X76673D02*
D03*
X327756Y211319D02*
D03*
X338386D02*
D03*
X330428Y260964D02*
D03*
X341058D02*
D03*
X329936Y312118D02*
D03*
X340565D02*
D03*
X341156Y372396D02*
D03*
X330526D02*
D03*
X382441Y270079D02*
D03*
X371811D02*
D03*
X365118Y267677D02*
D03*
X354488D02*
D03*
X383465Y316614D02*
D03*
X372835D02*
D03*
X363032Y318150D02*
D03*
X352402D02*
D03*
X241786Y165150D02*
D03*
X231156D02*
D03*
X78937Y171260D02*
D03*
X68307D02*
D03*
X375606Y374135D02*
D03*
X364976D02*
D03*
X48543Y318390D02*
D03*
X59173D02*
D03*
Y331850D02*
D03*
X48543D02*
D03*
X123327Y37697D02*
D03*
X133957D02*
D03*
D118*
X172753Y64743D02*
D03*
Y75372D02*
D03*
X162798Y69069D02*
D03*
Y58440D02*
D03*
D119*
X267323Y8169D02*
D03*
Y1083D02*
D03*
X184990Y72123D02*
D03*
Y65036D02*
D03*
X202854Y16043D02*
D03*
Y23130D02*
D03*
D120*
X364252Y187165D02*
D03*
Y197795D02*
D03*
X366811Y239882D02*
D03*
Y250512D02*
D03*
X365922Y290945D02*
D03*
Y301575D02*
D03*
X362741Y342008D02*
D03*
Y352638D02*
D03*
X381856Y352153D02*
D03*
Y362783D02*
D03*
X383307Y326260D02*
D03*
Y336890D02*
D03*
X250669Y109173D02*
D03*
Y119803D02*
D03*
X299882Y117329D02*
D03*
Y106699D02*
D03*
D121*
X67618Y375000D02*
D03*
X92224D02*
D03*
D122*
X305118Y23819D02*
D03*
Y41535D02*
D03*
D123*
X350408Y178457D02*
D03*
X346668Y169008D02*
D03*
X342928Y178457D02*
D03*
X349606Y230669D02*
D03*
X345866Y221220D02*
D03*
X342126Y230669D02*
D03*
X352559Y284134D02*
D03*
X348819Y274685D02*
D03*
X345079Y284134D02*
D03*
X350881Y337236D02*
D03*
X347140Y327787D02*
D03*
X343400Y337236D02*
D03*
D124*
X107185Y58563D02*
D03*
Y68012D02*
D03*
D125*
X337022Y194598D02*
D03*
Y187118D02*
D03*
X326392Y190858D02*
D03*
Y194598D02*
D03*
Y187118D02*
D03*
X339134Y249528D02*
D03*
Y242047D02*
D03*
X328504Y245787D02*
D03*
Y249528D02*
D03*
Y242047D02*
D03*
X340039Y301260D02*
D03*
Y293779D02*
D03*
X329410Y297520D02*
D03*
Y301260D02*
D03*
Y293779D02*
D03*
X339449Y352515D02*
D03*
Y345035D02*
D03*
X328819Y348775D02*
D03*
Y352515D02*
D03*
Y345035D02*
D03*
D126*
X9646Y346654D02*
D03*
X20276D02*
D03*
D127*
X158353Y159261D02*
D03*
X148353D02*
D03*
X153353D02*
D03*
Y137017D02*
D03*
X158353D02*
D03*
X148353D02*
D03*
X143353Y159261D02*
D03*
Y137017D02*
D03*
D128*
X286299Y109449D02*
D03*
Y104449D02*
D03*
Y119449D02*
D03*
Y114449D02*
D03*
X265039Y119449D02*
D03*
Y114449D02*
D03*
Y109449D02*
D03*
Y104449D02*
D03*
D129*
X142323Y70288D02*
D03*
Y68319D02*
D03*
Y66351D02*
D03*
Y64382D02*
D03*
Y62414D02*
D03*
X126110Y70288D02*
D03*
Y68319D02*
D03*
Y66351D02*
D03*
Y64382D02*
D03*
Y62414D02*
D03*
D130*
X253110Y14095D02*
D03*
X251142D02*
D03*
X249173D02*
D03*
X247205D02*
D03*
X245236D02*
D03*
X243268D02*
D03*
X241299D02*
D03*
X239331D02*
D03*
X237362D02*
D03*
X235394D02*
D03*
X233425D02*
D03*
X231457D02*
D03*
X229488D02*
D03*
X227520D02*
D03*
X225551D02*
D03*
X223583D02*
D03*
Y61732D02*
D03*
X225551D02*
D03*
X227520D02*
D03*
X229488D02*
D03*
X231457D02*
D03*
X233425D02*
D03*
X235394D02*
D03*
X237362D02*
D03*
X239331D02*
D03*
X241299D02*
D03*
X243268D02*
D03*
X245236D02*
D03*
X247205D02*
D03*
X249173D02*
D03*
X251142D02*
D03*
X253110D02*
D03*
D131*
X214528Y23150D02*
D03*
Y25118D02*
D03*
Y27087D02*
D03*
Y29055D02*
D03*
Y31024D02*
D03*
Y32992D02*
D03*
Y34961D02*
D03*
Y36929D02*
D03*
Y38898D02*
D03*
Y40866D02*
D03*
Y42835D02*
D03*
Y44803D02*
D03*
Y46772D02*
D03*
Y48740D02*
D03*
Y50709D02*
D03*
Y52677D02*
D03*
X262165D02*
D03*
Y50709D02*
D03*
Y48740D02*
D03*
Y46772D02*
D03*
Y44803D02*
D03*
Y42835D02*
D03*
Y40866D02*
D03*
Y38898D02*
D03*
Y36929D02*
D03*
Y34961D02*
D03*
Y32992D02*
D03*
Y31024D02*
D03*
Y29055D02*
D03*
Y27087D02*
D03*
Y25118D02*
D03*
Y23150D02*
D03*
D132*
X-5158Y262087D02*
D03*
X44449D02*
D03*
D133*
X99902Y34449D02*
D03*
Y5315D02*
D03*
D134*
X324331Y137244D02*
D03*
Y134685D02*
D03*
Y132126D02*
D03*
Y129567D02*
D03*
X305827Y137244D02*
D03*
Y134685D02*
D03*
Y132126D02*
D03*
Y129567D02*
D03*
D135*
X305941Y228180D02*
D03*
Y207180D02*
D03*
X305153Y279794D02*
D03*
Y258794D02*
D03*
X306177Y333534D02*
D03*
Y312534D02*
D03*
X305925Y380050D02*
D03*
X305925Y359050D02*
D03*
X245132Y195141D02*
D03*
X245132Y174141D02*
D03*
X212484Y179025D02*
D03*
X51009Y183249D02*
D03*
X86255Y199255D02*
D03*
Y178255D02*
D03*
D136*
X212484Y200025D02*
D03*
X51009Y204249D02*
D03*
D137*
X-16929Y-13976D02*
D03*
X391745Y-13961D02*
D03*
X-16978Y469685D02*
D03*
X391748Y469652D02*
D03*
X232283Y452756D02*
D03*
X142729Y402395D02*
D03*
D138*
X224490Y-7152D02*
D03*
X234490D02*
D03*
X214490D02*
D03*
X179567Y16299D02*
D03*
Y26299D02*
D03*
Y6299D02*
D03*
X162500Y11220D02*
D03*
Y1221D02*
D03*
D139*
X204490Y-7152D02*
D03*
X250787Y134055D02*
D03*
X147047Y26476D02*
D03*
X312480Y97520D02*
D03*
X127717Y291457D02*
D03*
X188150Y177520D02*
D03*
X119291Y176969D02*
D03*
X190650Y360925D02*
D03*
X61417Y396358D02*
D03*
X285472Y187795D02*
D03*
X80610Y60925D02*
D03*
X26476Y166437D02*
D03*
X36713Y331890D02*
D03*
X152953Y251575D02*
D03*
D140*
X179567Y-3701D02*
D03*
X162500Y21220D02*
D03*
D141*
X268347Y88937D02*
D03*
D142*
Y83937D02*
D03*
Y78937D02*
D03*
D143*
X205748Y293150D02*
D03*
Y273307D02*
D03*
X195827Y312992D02*
D03*
X205748Y253465D02*
D03*
X195827Y233622D02*
D03*
X166063Y193937D02*
D03*
X106535Y312992D02*
D03*
X96614Y293150D02*
D03*
Y273307D02*
D03*
X106535Y233622D02*
D03*
X96614Y253465D02*
D03*
D144*
X25551Y373228D02*
D03*
X7047D02*
D03*
D145*
X44055D02*
D03*
D146*
X16220Y199724D02*
D03*
X227953Y364134D02*
D03*
X261914Y232730D02*
D03*
X262032Y275273D02*
D03*
X262106Y317756D02*
D03*
X262180Y360701D02*
D03*
D147*
X-3779Y199724D02*
D03*
X207953Y364134D02*
D03*
D148*
X261914Y252730D02*
D03*
X262032Y295273D02*
D03*
X262106Y337756D02*
D03*
X262180Y380701D02*
D03*
D149*
X183189Y44882D02*
D03*
X325709Y120284D02*
D03*
X84646Y350000D02*
D03*
X84567Y361417D02*
D03*
X311614Y147283D02*
D03*
X164055Y257874D02*
D03*
X168455Y370270D02*
D03*
X180566Y271557D02*
D03*
X-1772Y342323D02*
D03*
X-10039Y342421D02*
D03*
X282776Y158661D02*
D03*
X294980D02*
D03*
X111713Y32185D02*
D03*
X111811Y40945D02*
D03*
X28248Y120965D02*
D03*
X19094Y121063D02*
D03*
X49114Y234646D02*
D03*
X37894Y234449D02*
D03*
X26673Y199705D02*
D03*
X-2067Y272736D02*
D03*
X-14567D02*
D03*
X-15157Y199606D02*
D03*
X132888Y303024D02*
D03*
X273327Y341142D02*
D03*
X276279Y246949D02*
D03*
X315059Y229232D02*
D03*
X266142Y389173D02*
D03*
X312598Y385630D02*
D03*
X314075Y335335D02*
D03*
X313976Y282185D02*
D03*
X275689Y292717D02*
D03*
D150*
X173189Y44882D02*
D03*
X315709Y120284D02*
D03*
X74646Y350000D02*
D03*
X74567Y361417D02*
D03*
X321614Y147283D02*
D03*
X158455Y370270D02*
D03*
X190566Y271557D02*
D03*
D151*
X164055Y247874D02*
D03*
D152*
X134266Y352551D02*
D03*
X144266D02*
D03*
D153*
X154266D02*
D03*
D154*
X286122Y37992D02*
D03*
X262992Y59350D02*
D03*
X221161Y44833D02*
D03*
X226230Y47490D02*
D03*
X359154Y233661D02*
D03*
X334646Y235138D02*
D03*
X359055Y281398D02*
D03*
X337008Y284744D02*
D03*
X334941Y337598D02*
D03*
X321063Y344783D02*
D03*
X181988Y383268D02*
D03*
X358760Y308858D02*
D03*
X221161Y131988D02*
D03*
X199902Y126476D02*
D03*
X180217Y306890D02*
D03*
X180330Y337922D02*
D03*
X293406Y135630D02*
D03*
X285236Y135531D02*
D03*
X204331Y52461D02*
D03*
X242421Y22638D02*
D03*
X205610Y43701D02*
D03*
X192717Y43602D02*
D03*
X198327Y43799D02*
D03*
X156398Y42815D02*
D03*
X154921Y60532D02*
D03*
X125295Y83858D02*
D03*
X125787Y58760D02*
D03*
X202658Y13287D02*
D03*
X214173Y3150D02*
D03*
X74311Y210531D02*
D03*
X114665Y144685D02*
D03*
X138583Y159449D02*
D03*
X203346Y163287D02*
D03*
X53445Y108563D02*
D03*
X60728Y97835D02*
D03*
X68504Y217520D02*
D03*
X209213Y83622D02*
D03*
X214685Y83583D02*
D03*
X255435Y55328D02*
D03*
X249175Y54501D02*
D03*
X203976Y133386D02*
D03*
X131732Y176496D02*
D03*
X234646Y67638D02*
D03*
X258976Y104449D02*
D03*
X195118Y163150D02*
D03*
X216024Y131929D02*
D03*
X225787Y127677D02*
D03*
X384724Y203110D02*
D03*
X238110Y41378D02*
D03*
X288779Y51535D02*
D03*
X289882Y56102D02*
D03*
X286260Y45354D02*
D03*
X310332Y60292D02*
D03*
X316831Y10827D02*
D03*
X391772Y210984D02*
D03*
X143427Y126037D02*
D03*
X148427Y125879D02*
D03*
X158466Y126194D02*
D03*
X250814Y125346D02*
D03*
X256458Y23163D02*
D03*
X359016Y335472D02*
D03*
X347598Y250197D02*
D03*
X347979Y301895D02*
D03*
X349346Y375985D02*
D03*
X234273Y204392D02*
D03*
X168507Y277835D02*
D03*
X313755Y185268D02*
D03*
X62717Y307402D02*
D03*
X221419Y23163D02*
D03*
X195945Y34134D02*
D03*
X241260Y54567D02*
D03*
X223585Y54698D02*
D03*
X213504Y103661D02*
D03*
X291634Y16142D02*
D03*
X226655Y34344D02*
D03*
X271591Y46780D02*
D03*
X253190Y33279D02*
D03*
X319384Y293675D02*
D03*
X175990Y301458D02*
D03*
X189983Y250775D02*
D03*
X224311Y242224D02*
D03*
X152953Y375787D02*
D03*
X148991Y379503D02*
D03*
X133268Y375984D02*
D03*
X151279Y296260D02*
D03*
X236516Y293996D02*
D03*
X240256Y213583D02*
D03*
X359055Y364862D02*
D03*
X354921Y207677D02*
D03*
X359252Y258858D02*
D03*
X388287Y207185D02*
D03*
X316535Y241929D02*
D03*
X345965Y204331D02*
D03*
X337598Y138484D02*
D03*
X226476Y94685D02*
D03*
X340551Y178740D02*
D03*
X142520Y298425D02*
D03*
M02*
