G04 Layer_Color=8421504*
%FSLAX25Y25*%
%MOIN*%
G70*
G01*
G75*
%ADD11R,0.03543X0.22047*%
%ADD12R,0.14291X0.15988*%
%ADD13R,0.04724X0.01969*%
%ADD14R,0.05000X0.03012*%
%ADD15R,0.10039X0.10630*%
%ADD16R,0.02559X0.04724*%
%ADD17R,0.04331X0.05512*%
%ADD18R,0.09449X0.20079*%
%ADD19R,0.17716X0.07874*%
%ADD20R,0.03543X0.05512*%
%ADD21R,0.03150X0.03740*%
%ADD22R,0.05512X0.04331*%
%ADD23R,0.03740X0.03150*%
%ADD24R,0.01400X0.11811*%
%ADD25C,0.01969*%
%ADD26P,0.02784X4X90.0*%
%ADD27R,0.04921X0.04331*%
%ADD28R,0.21654X0.05118*%
%ADD29R,0.03858X0.05118*%
%ADD30R,0.03937X0.03937*%
%ADD31R,0.03937X0.13780*%
%ADD32R,0.04331X0.10236*%
%ADD33R,0.06693X0.04331*%
%ADD34R,0.05512X0.03543*%
%ADD35R,0.10236X0.04331*%
%ADD36R,0.06299X0.14961*%
%ADD37R,0.09449X0.09055*%
%ADD38R,0.03150X0.06299*%
%ADD39R,0.12598X0.05512*%
%ADD40R,0.04724X0.02559*%
%ADD41R,0.04331X0.06693*%
%ADD42R,0.02165X0.07087*%
%ADD43R,0.07874X0.02362*%
%ADD44R,0.05118X0.01181*%
%ADD45R,0.01181X0.07087*%
%ADD46R,0.07087X0.01181*%
%ADD47R,0.27559X0.07087*%
%ADD48R,0.07874X0.17716*%
%ADD49R,0.05118X0.01575*%
%ADD65R,0.03189X0.04006*%
%ADD66R,0.03189X0.04006*%
G36*
X204608Y113989D02*
X203208D01*
Y119789D01*
X204608D01*
Y113989D01*
D02*
G37*
G36*
X220008Y91789D02*
X218608D01*
Y97589D01*
X220008D01*
Y91789D01*
D02*
G37*
G36*
X207208Y113989D02*
X205808D01*
Y119789D01*
X207208D01*
Y113989D01*
D02*
G37*
G36*
X212308D02*
X210908D01*
Y119789D01*
X212308D01*
Y113989D01*
D02*
G37*
G36*
X209708D02*
X208308D01*
Y119789D01*
X209708D01*
Y113989D01*
D02*
G37*
G36*
X217408Y91789D02*
X216008D01*
Y97589D01*
X217408D01*
Y91789D01*
D02*
G37*
G36*
X207208D02*
X205808D01*
Y97589D01*
X207208D01*
Y91789D01*
D02*
G37*
G36*
X204608D02*
X203208D01*
Y97589D01*
X204608D01*
Y91789D01*
D02*
G37*
G36*
X209708D02*
X208308D01*
Y97589D01*
X209708D01*
Y91789D01*
D02*
G37*
G36*
X214908D02*
X213508D01*
Y97589D01*
X214908D01*
Y91789D01*
D02*
G37*
G36*
X212308D02*
X210908D01*
Y97589D01*
X212308D01*
Y91789D01*
D02*
G37*
G36*
X307992Y133890D02*
X303661D01*
Y135465D01*
X307992D01*
Y133890D01*
D02*
G37*
G36*
X326496Y131331D02*
X322165D01*
Y132905D01*
X326496D01*
Y131331D01*
D02*
G37*
G36*
Y133890D02*
X322165D01*
Y135465D01*
X326496D01*
Y133890D01*
D02*
G37*
G36*
Y136449D02*
X322165D01*
Y138024D01*
X326496D01*
Y136449D01*
D02*
G37*
G36*
X307992D02*
X303661D01*
Y138024D01*
X307992D01*
Y136449D01*
D02*
G37*
G36*
Y131331D02*
X303661D01*
Y132905D01*
X307992D01*
Y131331D01*
D02*
G37*
G36*
X217408Y113989D02*
X216008D01*
Y119789D01*
X217408D01*
Y113989D01*
D02*
G37*
G36*
X214908D02*
X213508D01*
Y119789D01*
X214908D01*
Y113989D01*
D02*
G37*
G36*
X220008D02*
X218608D01*
Y119789D01*
X220008D01*
Y113989D01*
D02*
G37*
G36*
X326496Y128772D02*
X322165D01*
Y130347D01*
X326496D01*
Y128772D01*
D02*
G37*
G36*
X307992D02*
X303661D01*
Y130347D01*
X307992D01*
Y128772D01*
D02*
G37*
D11*
X317575Y217697D02*
D03*
X316787Y269311D02*
D03*
X317811Y323051D02*
D03*
X317559Y369567D02*
D03*
X256766Y184658D02*
D03*
X200850Y189508D02*
D03*
X39375Y193732D02*
D03*
X97888Y188772D02*
D03*
D12*
X308937Y217677D02*
D03*
X308150Y269291D02*
D03*
X309173Y323031D02*
D03*
X308921Y369547D02*
D03*
X248129Y184638D02*
D03*
X209488Y189528D02*
D03*
X48013Y193752D02*
D03*
X89251Y188752D02*
D03*
D13*
X294346Y225177D02*
D03*
Y220177D02*
D03*
Y215177D02*
D03*
Y210177D02*
D03*
X293559Y276791D02*
D03*
Y271791D02*
D03*
Y266791D02*
D03*
Y261791D02*
D03*
X294583Y330532D02*
D03*
Y325532D02*
D03*
Y320532D02*
D03*
Y315531D02*
D03*
X294331Y377047D02*
D03*
Y372047D02*
D03*
Y367047D02*
D03*
Y362047D02*
D03*
X233538Y192138D02*
D03*
Y187138D02*
D03*
Y182138D02*
D03*
Y177138D02*
D03*
X224079Y182028D02*
D03*
Y187028D02*
D03*
Y192028D02*
D03*
Y197028D02*
D03*
X62603Y186252D02*
D03*
Y191252D02*
D03*
Y196252D02*
D03*
Y201252D02*
D03*
X74660Y196252D02*
D03*
Y191252D02*
D03*
Y186252D02*
D03*
Y181252D02*
D03*
D14*
X71161Y103423D02*
D03*
D15*
Y112697D02*
D03*
D16*
X47835Y92815D02*
D03*
X40354D02*
D03*
X44094Y103445D02*
D03*
X47835D02*
D03*
X40354D02*
D03*
D17*
X26083Y93012D02*
D03*
X31988D02*
D03*
X39567Y113681D02*
D03*
X45472D02*
D03*
X39567Y121260D02*
D03*
X45472D02*
D03*
X53445Y113583D02*
D03*
X59350D02*
D03*
X171415Y57939D02*
D03*
X177321D02*
D03*
X231457Y127520D02*
D03*
X237362D02*
D03*
X226378Y135472D02*
D03*
X232283D02*
D03*
X201220Y134213D02*
D03*
X195315D02*
D03*
X197126Y126260D02*
D03*
X191220D02*
D03*
X54429Y307382D02*
D03*
X48524D02*
D03*
X154188Y81244D02*
D03*
X148282D02*
D03*
X168235Y168789D02*
D03*
X162329D02*
D03*
X142717Y168622D02*
D03*
X136811D02*
D03*
X125787Y55512D02*
D03*
X131693D02*
D03*
X305020Y124114D02*
D03*
X299114D02*
D03*
X131693Y47933D02*
D03*
X125787D02*
D03*
X278228Y97441D02*
D03*
X272323D02*
D03*
X12205Y335138D02*
D03*
X6299D02*
D03*
X375512Y257756D02*
D03*
X381417D02*
D03*
X375827Y305630D02*
D03*
X381732D02*
D03*
X313110Y156496D02*
D03*
X319016D02*
D03*
D18*
X41965Y73227D02*
D03*
X58465Y73327D02*
D03*
D19*
X20472Y131791D02*
D03*
X-8662D02*
D03*
X25157Y314567D02*
D03*
X-3976D02*
D03*
D20*
X25394Y102657D02*
D03*
X32480D02*
D03*
X59842Y121457D02*
D03*
X52756D02*
D03*
X326260Y10669D02*
D03*
X319173D02*
D03*
X130512Y77362D02*
D03*
X137598D02*
D03*
X234685Y69961D02*
D03*
X227598D02*
D03*
D21*
X45531Y128150D02*
D03*
X39508D02*
D03*
X326161Y18937D02*
D03*
X320138D02*
D03*
D22*
X55216Y97933D02*
D03*
Y92028D02*
D03*
X187913Y106732D02*
D03*
Y112638D02*
D03*
X196811Y112598D02*
D03*
Y106693D02*
D03*
X233740Y107402D02*
D03*
Y113307D02*
D03*
X226417Y113307D02*
D03*
Y107402D02*
D03*
X216260Y142402D02*
D03*
Y136496D02*
D03*
X226693Y86181D02*
D03*
Y92087D02*
D03*
X108465Y83858D02*
D03*
Y77953D02*
D03*
X128346Y150591D02*
D03*
Y144685D02*
D03*
X136221Y144606D02*
D03*
Y150512D02*
D03*
X353701Y204764D02*
D03*
Y198858D02*
D03*
X357008Y256417D02*
D03*
Y250512D02*
D03*
X355276Y308898D02*
D03*
Y302992D02*
D03*
X348479Y358417D02*
D03*
Y352512D02*
D03*
X336929Y129842D02*
D03*
Y135748D02*
D03*
X154134Y51181D02*
D03*
Y45276D02*
D03*
X142922Y51141D02*
D03*
Y45236D02*
D03*
X163046Y75286D02*
D03*
Y81191D02*
D03*
X281890Y141535D02*
D03*
Y135630D02*
D03*
X296949Y142126D02*
D03*
Y136221D02*
D03*
X372797Y337193D02*
D03*
Y331288D02*
D03*
D23*
X278307Y84488D02*
D03*
Y78465D02*
D03*
X153543Y9409D02*
D03*
Y3386D02*
D03*
X259449Y7638D02*
D03*
Y1614D02*
D03*
X120768Y77894D02*
D03*
Y83917D02*
D03*
X150320Y66627D02*
D03*
Y60604D02*
D03*
X295669Y44606D02*
D03*
Y38583D02*
D03*
Y20748D02*
D03*
Y26772D02*
D03*
X115748Y77894D02*
D03*
Y83917D02*
D03*
D24*
X219324Y118825D02*
D03*
X214206D02*
D03*
X216667D02*
D03*
X211647D02*
D03*
X219308Y92721D02*
D03*
X214206Y92742D02*
D03*
X216667D02*
D03*
X211647D02*
D03*
X209088Y118825D02*
D03*
X206529D02*
D03*
X203871D02*
D03*
X208990Y92742D02*
D03*
X206529D02*
D03*
X203871D02*
D03*
D25*
X0Y0D02*
D03*
X369685D02*
D03*
D26*
Y454724D02*
D03*
D27*
X267323Y-12795D02*
D03*
Y-4134D02*
D03*
X259449D02*
D03*
Y-12795D02*
D03*
D28*
X288601Y179166D02*
D03*
Y166568D02*
D03*
X46142Y222402D02*
D03*
Y209803D02*
D03*
X255772Y216827D02*
D03*
Y204228D02*
D03*
D29*
X273775Y179268D02*
D03*
Y166670D02*
D03*
X60969Y222299D02*
D03*
Y209701D02*
D03*
X240945Y216929D02*
D03*
Y204331D02*
D03*
D30*
X278445Y128051D02*
D03*
X271358D02*
D03*
D31*
X319685Y30591D02*
D03*
X335433D02*
D03*
X319685Y67205D02*
D03*
X335433D02*
D03*
D32*
X226675Y229979D02*
D03*
X237305D02*
D03*
X66043Y240650D02*
D03*
X76673D02*
D03*
X327756Y211319D02*
D03*
X338386D02*
D03*
X330428Y260964D02*
D03*
X341058D02*
D03*
X329936Y312118D02*
D03*
X340565D02*
D03*
X341156Y372396D02*
D03*
X330526D02*
D03*
X382441Y270079D02*
D03*
X371811D02*
D03*
X365118Y267677D02*
D03*
X354488D02*
D03*
X383465Y316614D02*
D03*
X372835D02*
D03*
X363032Y318150D02*
D03*
X352402D02*
D03*
X241786Y165150D02*
D03*
X231156D02*
D03*
X78937Y171260D02*
D03*
X68307D02*
D03*
X375606Y374135D02*
D03*
X364976D02*
D03*
X48543Y318390D02*
D03*
X59173D02*
D03*
Y331850D02*
D03*
X48543D02*
D03*
X123327Y37697D02*
D03*
X133957D02*
D03*
D33*
X172753Y64743D02*
D03*
Y75372D02*
D03*
X162798Y69069D02*
D03*
Y58440D02*
D03*
D34*
X267323Y8169D02*
D03*
Y1083D02*
D03*
X184990Y72123D02*
D03*
Y65036D02*
D03*
X202854Y16043D02*
D03*
Y23130D02*
D03*
D35*
X364252Y187165D02*
D03*
Y197795D02*
D03*
X366811Y239882D02*
D03*
Y250512D02*
D03*
X365922Y290945D02*
D03*
Y301575D02*
D03*
X362741Y342008D02*
D03*
Y352638D02*
D03*
X381856Y352153D02*
D03*
Y362783D02*
D03*
X383307Y326260D02*
D03*
Y336890D02*
D03*
X250669Y109173D02*
D03*
Y119803D02*
D03*
X299882Y117329D02*
D03*
Y106699D02*
D03*
D36*
X67618Y375000D02*
D03*
X92224D02*
D03*
D37*
X305118Y23819D02*
D03*
Y41535D02*
D03*
D38*
X350408Y178457D02*
D03*
X346668Y169008D02*
D03*
X342928Y178457D02*
D03*
X349606Y230669D02*
D03*
X345866Y221220D02*
D03*
X342126Y230669D02*
D03*
X352559Y284134D02*
D03*
X348819Y274685D02*
D03*
X345079Y284134D02*
D03*
X350881Y337236D02*
D03*
X347140Y327787D02*
D03*
X343400Y337236D02*
D03*
D39*
X107185Y58563D02*
D03*
Y68012D02*
D03*
D40*
X337022Y194598D02*
D03*
Y187118D02*
D03*
X326392Y190858D02*
D03*
Y194598D02*
D03*
Y187118D02*
D03*
X339134Y249528D02*
D03*
Y242047D02*
D03*
X328504Y245787D02*
D03*
Y249528D02*
D03*
Y242047D02*
D03*
X340039Y301260D02*
D03*
Y293779D02*
D03*
X329410Y297520D02*
D03*
Y301260D02*
D03*
Y293779D02*
D03*
X339449Y352515D02*
D03*
Y345035D02*
D03*
X328819Y348775D02*
D03*
Y352515D02*
D03*
Y345035D02*
D03*
D41*
X9646Y346654D02*
D03*
X20276D02*
D03*
D42*
X158353Y159261D02*
D03*
X148353D02*
D03*
X153353D02*
D03*
Y137017D02*
D03*
X158353D02*
D03*
X148353D02*
D03*
X143353Y159261D02*
D03*
Y137017D02*
D03*
D43*
X286299Y109449D02*
D03*
Y104449D02*
D03*
Y119449D02*
D03*
Y114449D02*
D03*
X265039Y119449D02*
D03*
Y114449D02*
D03*
Y109449D02*
D03*
Y104449D02*
D03*
D44*
X142323Y70288D02*
D03*
Y68319D02*
D03*
Y66351D02*
D03*
Y64382D02*
D03*
Y62414D02*
D03*
X126110Y70288D02*
D03*
Y68319D02*
D03*
Y66351D02*
D03*
Y64382D02*
D03*
Y62414D02*
D03*
D45*
X253110Y14095D02*
D03*
X251142D02*
D03*
X249173D02*
D03*
X247205D02*
D03*
X245236D02*
D03*
X243268D02*
D03*
X241299D02*
D03*
X239331D02*
D03*
X237362D02*
D03*
X235394D02*
D03*
X233425D02*
D03*
X231457D02*
D03*
X229488D02*
D03*
X227520D02*
D03*
X225551D02*
D03*
X223583D02*
D03*
Y61732D02*
D03*
X225551D02*
D03*
X227520D02*
D03*
X229488D02*
D03*
X231457D02*
D03*
X233425D02*
D03*
X235394D02*
D03*
X237362D02*
D03*
X239331D02*
D03*
X241299D02*
D03*
X243268D02*
D03*
X245236D02*
D03*
X247205D02*
D03*
X249173D02*
D03*
X251142D02*
D03*
X253110D02*
D03*
D46*
X214528Y23150D02*
D03*
Y25118D02*
D03*
Y27087D02*
D03*
Y29055D02*
D03*
Y31024D02*
D03*
Y32992D02*
D03*
Y34961D02*
D03*
Y36929D02*
D03*
Y38898D02*
D03*
Y40866D02*
D03*
Y42835D02*
D03*
Y44803D02*
D03*
Y46772D02*
D03*
Y48740D02*
D03*
Y50709D02*
D03*
Y52677D02*
D03*
X262165D02*
D03*
Y50709D02*
D03*
Y48740D02*
D03*
Y46772D02*
D03*
Y44803D02*
D03*
Y42835D02*
D03*
Y40866D02*
D03*
Y38898D02*
D03*
Y36929D02*
D03*
Y34961D02*
D03*
Y32992D02*
D03*
Y31024D02*
D03*
Y29055D02*
D03*
Y27087D02*
D03*
Y25118D02*
D03*
Y23150D02*
D03*
D47*
X-5158Y262087D02*
D03*
X44449D02*
D03*
D48*
X99902Y34449D02*
D03*
Y5315D02*
D03*
D49*
X324331Y137244D02*
D03*
Y134685D02*
D03*
Y132126D02*
D03*
Y129567D02*
D03*
X305827Y137244D02*
D03*
Y134685D02*
D03*
Y132126D02*
D03*
Y129567D02*
D03*
D65*
X305941Y228180D02*
D03*
Y207180D02*
D03*
X305153Y279794D02*
D03*
Y258794D02*
D03*
X306177Y333534D02*
D03*
Y312534D02*
D03*
X305925Y380050D02*
D03*
X305925Y359050D02*
D03*
X245132Y195141D02*
D03*
X245132Y174141D02*
D03*
X212484Y179025D02*
D03*
X51009Y183249D02*
D03*
X86255Y199255D02*
D03*
Y178255D02*
D03*
D66*
X212484Y200025D02*
D03*
X51009Y204249D02*
D03*
M02*
