G04 Layer_Color=32768*
%FSLAX25Y25*%
%MOIN*%
G70*
G01*
G75*
%ADD10C,0.01200*%
%ADD52C,0.01000*%
%ADD161C,0.00394*%
%ADD162C,0.00197*%
D10*
X402070Y471925D02*
Y515272D01*
X-27067Y471876D02*
Y515272D01*
X394317Y-24114D02*
X440567D01*
X394415Y479823D02*
X440567D01*
D52*
X224990Y514272D02*
X402070D01*
X-27067D02*
X145014D01*
X396070Y516272D02*
X402070Y514272D01*
X396070Y512272D02*
X402070Y514272D01*
X-27067D02*
X-21067Y512272D01*
X-27067Y514272D02*
X-21067Y516272D01*
X439567Y-24114D02*
Y185366D01*
Y265342D02*
Y479823D01*
Y-24114D02*
X441567Y-18114D01*
X437567D02*
X439567Y-24114D01*
X437567Y473823D02*
X439567Y479823D01*
X441567Y473823D01*
X147514Y506607D02*
X150846D01*
X149180D01*
Y516604D01*
X147514Y514938D01*
X155844D02*
X157510Y516604D01*
X160843D01*
X162509Y514938D01*
Y508273D01*
X160843Y506607D01*
X157510D01*
X155844Y508273D01*
Y514938D01*
X165841Y508273D02*
X167507Y506607D01*
X170840D01*
X172506Y508273D01*
Y514938D01*
X170840Y516604D01*
X167507D01*
X165841Y514938D01*
Y513272D01*
X167507Y511606D01*
X172506D01*
X177504Y504941D02*
X179170Y506607D01*
Y508273D01*
X177504D01*
Y506607D01*
X179170D01*
X177504Y504941D01*
X175838Y503275D01*
X185835Y514938D02*
X187501Y516604D01*
X190833D01*
X192499Y514938D01*
Y508273D01*
X190833Y506607D01*
X187501D01*
X185835Y508273D01*
Y514938D01*
X195831D02*
X197498Y516604D01*
X200830D01*
X202496Y514938D01*
Y508273D01*
X200830Y506607D01*
X197498D01*
X195831Y508273D01*
Y514938D01*
X205828Y506607D02*
Y513272D01*
X207494D01*
X209160Y511606D01*
Y506607D01*
Y511606D01*
X210827Y513272D01*
X212493Y511606D01*
Y506607D01*
X215825D02*
Y513272D01*
X217491D01*
X219157Y511606D01*
Y506607D01*
Y511606D01*
X220823Y513272D01*
X222490Y511606D01*
Y506607D01*
X447231Y187866D02*
Y191199D01*
Y189532D01*
X437235D01*
X438901Y187866D01*
X447231Y202862D02*
Y196197D01*
X440567Y202862D01*
X438901D01*
X437235Y201195D01*
Y197863D01*
X438901Y196197D01*
Y206194D02*
X437235Y207860D01*
Y211192D01*
X438901Y212858D01*
X440567D01*
X442233Y211192D01*
X443899Y212858D01*
X445565D01*
X447231Y211192D01*
Y207860D01*
X445565Y206194D01*
X443899D01*
X442233Y207860D01*
X440567Y206194D01*
X438901D01*
X442233Y207860D02*
Y211192D01*
X448898Y217857D02*
X447231Y219523D01*
X445565D01*
Y217857D01*
X447231D01*
Y219523D01*
X448898Y217857D01*
X450564Y216191D01*
X438901Y226187D02*
X437235Y227853D01*
Y231186D01*
X438901Y232852D01*
X445565D01*
X447231Y231186D01*
Y227853D01*
X445565Y226187D01*
X438901D01*
Y236184D02*
X437235Y237850D01*
Y241182D01*
X438901Y242849D01*
X445565D01*
X447231Y241182D01*
Y237850D01*
X445565Y236184D01*
X438901D01*
X447231Y246181D02*
X440567D01*
Y247847D01*
X442233Y249513D01*
X447231D01*
X442233D01*
X440567Y251179D01*
X442233Y252845D01*
X447231D01*
Y256178D02*
X440567D01*
Y257844D01*
X442233Y259510D01*
X447231D01*
X442233D01*
X440567Y261176D01*
X442233Y262842D01*
X447231D01*
D161*
X42126Y98130D02*
X46063D01*
X44094Y96161D02*
Y100098D01*
X23524Y89862D02*
Y96161D01*
X34547Y89862D02*
Y96161D01*
X23524D02*
X34547D01*
X23524Y89862D02*
X34547D01*
X27067Y93012D02*
X31004D01*
X29035Y91043D02*
Y94980D01*
X37008Y110531D02*
Y116831D01*
X48031Y110531D02*
Y116831D01*
X37008D02*
X48031D01*
X37008Y110531D02*
X48031D01*
X40551Y113681D02*
X44488D01*
X42520Y111713D02*
Y115650D01*
X37008Y118110D02*
Y124409D01*
X48031Y118110D02*
Y124409D01*
X37008D02*
X48031D01*
X37008Y118110D02*
X48031D01*
X40551Y121260D02*
X44488D01*
X42520Y119291D02*
Y123228D01*
X52067Y100492D02*
X58366D01*
X52067Y89468D02*
X58366D01*
Y100492D01*
X52067Y89468D02*
Y100492D01*
X55216Y93012D02*
Y96949D01*
X53248Y94980D02*
X57185D01*
X50886Y110433D02*
Y116732D01*
X61910Y110433D02*
Y116732D01*
X50886D02*
X61910D01*
X50886Y110433D02*
X61910D01*
X54429Y113583D02*
X58366D01*
X56398Y111614D02*
Y115551D01*
X191634Y248130D02*
X195571D01*
X193602Y246161D02*
Y250098D01*
X196752Y242618D02*
Y253642D01*
X190453Y242618D02*
Y253642D01*
Y242618D02*
X196752D01*
X190453Y253642D02*
X196752D01*
X158517Y292667D02*
X162454D01*
X160486Y290698D02*
Y294635D01*
X163635Y287155D02*
Y298178D01*
X157336Y287155D02*
Y298178D01*
Y287155D02*
X163635D01*
X157336Y298178D02*
X163635D01*
X188178Y305061D02*
X199202D01*
X188178Y289313D02*
X199202D01*
X188178D02*
Y305061D01*
X199202Y289313D02*
Y305061D01*
X193690Y295219D02*
Y299156D01*
X191721Y297187D02*
X195658D01*
X168856Y54790D02*
Y61089D01*
X179880Y54790D02*
Y61089D01*
X168856D02*
X179880D01*
X168856Y54790D02*
X179880D01*
X172400Y57939D02*
X176337D01*
X174368Y55971D02*
Y59908D01*
X248701Y74764D02*
X252638D01*
X250669Y72795D02*
Y76732D01*
X184764Y104173D02*
X191063D01*
X184764Y115197D02*
X191063D01*
X184764Y104173D02*
Y115197D01*
X191063Y104173D02*
Y115197D01*
X187913Y107717D02*
Y111653D01*
X185945Y109685D02*
X189882D01*
X193661Y115157D02*
X199961D01*
X193661Y104134D02*
X199961D01*
Y115157D01*
X193661Y104134D02*
Y115157D01*
X196811Y107677D02*
Y111614D01*
X194843Y109646D02*
X198779D01*
X230591Y104842D02*
X236890D01*
X230591Y115866D02*
X236890D01*
X230591Y104842D02*
Y115866D01*
X236890Y104842D02*
Y115866D01*
X233740Y108386D02*
Y112323D01*
X231772Y110354D02*
X235709D01*
X223268Y115866D02*
X229567D01*
X223268Y104842D02*
X229567D01*
Y115866D01*
X223268Y104842D02*
Y115866D01*
X226417Y108386D02*
Y112323D01*
X224449Y110354D02*
X228386D01*
X213110Y144961D02*
X219409D01*
X213110Y133937D02*
X219409D01*
Y144961D01*
X213110Y133937D02*
Y144961D01*
X216260Y137480D02*
Y141417D01*
X214291Y139449D02*
X218228D01*
X223543Y83622D02*
X229842D01*
X223543Y94646D02*
X229842D01*
X223543Y83622D02*
Y94646D01*
X229842Y83622D02*
Y94646D01*
X226693Y87165D02*
Y91102D01*
X224724Y89134D02*
X228661D01*
X234409Y125551D02*
Y129488D01*
X232441Y127520D02*
X236378D01*
X228898Y130669D02*
X239921D01*
X228898Y124370D02*
X239921D01*
X228898D02*
Y130669D01*
X239921Y124370D02*
Y130669D01*
X229331Y133504D02*
Y137441D01*
X227362Y135472D02*
X231299D01*
X223819Y138622D02*
X234842D01*
X223819Y132323D02*
X234842D01*
X223819D02*
Y138622D01*
X234842Y132323D02*
Y138622D01*
X198268Y132244D02*
Y136181D01*
X196299Y134213D02*
X200236D01*
X192756Y131063D02*
X203780D01*
X192756Y137362D02*
X203780D01*
Y131063D02*
Y137362D01*
X192756Y131063D02*
Y137362D01*
X194173Y124291D02*
Y128228D01*
X192205Y126260D02*
X196142D01*
X188661Y123110D02*
X199685D01*
X188661Y129409D02*
X199685D01*
Y123110D02*
Y129409D01*
X188661Y123110D02*
Y129409D01*
X51476Y305413D02*
Y309350D01*
X49508Y307382D02*
X53445D01*
X45965Y304232D02*
X56988D01*
X45965Y310531D02*
X56988D01*
Y304232D02*
Y310531D01*
X45965Y304232D02*
Y310531D01*
X224116Y224468D02*
Y235491D01*
X239864Y224468D02*
Y235491D01*
X224116D02*
X239864D01*
X224116Y224468D02*
X239864D01*
X230021Y229979D02*
X233958D01*
X231990Y228011D02*
Y231948D01*
X63484Y235138D02*
Y246161D01*
X79232Y235138D02*
Y246161D01*
X63484D02*
X79232D01*
X63484Y235138D02*
X79232D01*
X69390Y240650D02*
X73327D01*
X71358Y238681D02*
Y242618D01*
X169013Y62183D02*
X176493D01*
X169013Y77932D02*
X176493D01*
X169013Y62183D02*
Y77932D01*
X176493Y62183D02*
Y77932D01*
X172753Y68089D02*
Y72026D01*
X170784Y70057D02*
X174721D01*
X156747Y78095D02*
Y84394D01*
X145723Y78095D02*
Y84394D01*
Y78095D02*
X156747D01*
X145723Y84394D02*
X156747D01*
X149267Y81244D02*
X153203D01*
X151235Y79276D02*
Y83213D01*
X159058Y71628D02*
X166538D01*
X159058Y55880D02*
X166538D01*
Y71628D01*
X159058Y55880D02*
Y71628D01*
X162798Y61786D02*
Y65723D01*
X160829Y63754D02*
X164766D01*
X325197Y205807D02*
Y216831D01*
X340945Y205807D02*
Y216831D01*
X325197D02*
X340945D01*
X325197Y205807D02*
X340945D01*
X331102Y211319D02*
X335039D01*
X333071Y209350D02*
Y213287D01*
X327869Y255453D02*
Y266476D01*
X343617Y255453D02*
Y266476D01*
X327869D02*
X343617D01*
X327869Y255453D02*
X343617D01*
X333774Y260964D02*
X337711D01*
X335743Y258996D02*
Y262933D01*
X327377Y306606D02*
Y317630D01*
X343125Y306606D02*
Y317630D01*
X327377D02*
X343125D01*
X327377Y306606D02*
X343125D01*
X333282Y312118D02*
X337219D01*
X335251Y310150D02*
Y314087D01*
X343715Y366884D02*
Y377908D01*
X327967Y366884D02*
Y377908D01*
Y366884D02*
X343715D01*
X327967Y377908D02*
X343715D01*
X333873Y372396D02*
X337810D01*
X335841Y370427D02*
Y374364D01*
X358740Y184606D02*
X369764D01*
X358740Y200354D02*
X369764D01*
X358740Y184606D02*
Y200354D01*
X369764Y184606D02*
Y200354D01*
X364252Y190512D02*
Y194449D01*
X362283Y192480D02*
X366220D01*
X361299Y237323D02*
X372323D01*
X361299Y253071D02*
X372323D01*
X361299Y237323D02*
Y253071D01*
X372323Y237323D02*
Y253071D01*
X366811Y243228D02*
Y247165D01*
X364843Y245197D02*
X368779D01*
X360410Y288386D02*
X371434D01*
X360410Y304134D02*
X371434D01*
X360410Y288386D02*
Y304134D01*
X371434Y288386D02*
Y304134D01*
X365922Y294291D02*
Y298228D01*
X363954Y296260D02*
X367891D01*
X357229Y339449D02*
X368252D01*
X357229Y355197D02*
X368252D01*
X357229Y339449D02*
Y355197D01*
X368252Y339449D02*
Y355197D01*
X362741Y345354D02*
Y349291D01*
X360772Y347323D02*
X364709D01*
X385000Y264567D02*
Y275590D01*
X369252Y264567D02*
Y275590D01*
Y264567D02*
X385000D01*
X369252Y275590D02*
X385000D01*
X375157Y270079D02*
X379095D01*
X377126Y268110D02*
Y272047D01*
X367677Y262165D02*
Y273189D01*
X351929Y262165D02*
Y273189D01*
Y262165D02*
X367677D01*
X351929Y273189D02*
X367677D01*
X357835Y267677D02*
X361772D01*
X359803Y265709D02*
Y269646D01*
X386024Y311102D02*
Y322126D01*
X370276Y311102D02*
Y322126D01*
Y311102D02*
X386024D01*
X370276Y322126D02*
X386024D01*
X376181Y316614D02*
X380118D01*
X378150Y314646D02*
Y318583D01*
X365591Y312638D02*
Y323661D01*
X349843Y312638D02*
Y323661D01*
Y312638D02*
X365591D01*
X349843Y323661D02*
X365591D01*
X355748Y318150D02*
X359685D01*
X357716Y316181D02*
Y320118D01*
X244345Y159638D02*
Y170661D01*
X228597Y159638D02*
Y170661D01*
Y159638D02*
X244345D01*
X228597Y170661D02*
X244345D01*
X234503Y165150D02*
X238440D01*
X236471Y163181D02*
Y167118D01*
X81496Y165748D02*
Y176772D01*
X65748Y165748D02*
Y176772D01*
Y165748D02*
X81496D01*
X65748Y176772D02*
X81496D01*
X71653Y171260D02*
X75590D01*
X73622Y169291D02*
Y173228D01*
X376344Y349594D02*
X387368D01*
X376344Y365342D02*
X387368D01*
X376344Y349594D02*
Y365342D01*
X387368Y349594D02*
Y365342D01*
X381856Y355499D02*
Y359436D01*
X379887Y357468D02*
X383824D01*
X378165Y368624D02*
Y379647D01*
X362417Y368624D02*
Y379647D01*
Y368624D02*
X378165D01*
X362417Y379647D02*
X378165D01*
X368322Y374135D02*
X372259D01*
X370291Y372167D02*
Y376104D01*
X377795Y323701D02*
X388819D01*
X377795Y339449D02*
X388819D01*
X377795Y323701D02*
Y339449D01*
X388819Y323701D02*
Y339449D01*
X383307Y329606D02*
Y333543D01*
X381339Y331575D02*
X385276D01*
X105315Y86417D02*
X111614D01*
X105315Y75394D02*
X111614D01*
Y86417D01*
X105315Y75394D02*
Y86417D01*
X108465Y78937D02*
Y82874D01*
X106496Y80905D02*
X110433D01*
X170794Y165639D02*
Y171939D01*
X159770Y165639D02*
Y171939D01*
Y165639D02*
X170794D01*
X159770Y171939D02*
X170794D01*
X163313Y168789D02*
X167250D01*
X165282Y166820D02*
Y170757D01*
X145276Y165472D02*
Y171772D01*
X134252Y165472D02*
Y171772D01*
Y165472D02*
X145276D01*
X134252Y171772D02*
X145276D01*
X137795Y168622D02*
X141732D01*
X139764Y166654D02*
Y170590D01*
X45984Y312878D02*
Y323902D01*
X61732Y312878D02*
Y323902D01*
X45984D02*
X61732D01*
X45984Y312878D02*
X61732D01*
X51890Y318390D02*
X55827D01*
X53858Y316422D02*
Y320359D01*
X61732Y326339D02*
Y337362D01*
X45984Y326339D02*
Y337362D01*
Y326339D02*
X61732D01*
X45984Y337362D02*
X61732D01*
X51890Y331850D02*
X55827D01*
X53858Y329882D02*
Y333819D01*
X346668Y171764D02*
Y175701D01*
X344699Y173732D02*
X348636D01*
X345866Y223976D02*
Y227913D01*
X343898Y225945D02*
X347835D01*
X348819Y277441D02*
Y281378D01*
X346850Y279410D02*
X350787D01*
X347140Y330543D02*
Y334480D01*
X345172Y332512D02*
X349109D01*
X331707Y188890D02*
Y192827D01*
X329739Y190858D02*
X333676D01*
X333819Y243819D02*
Y247756D01*
X331850Y245787D02*
X335787D01*
X334724Y295551D02*
Y299488D01*
X332756Y297520D02*
X336693D01*
X334134Y346807D02*
Y350744D01*
X332165Y348775D02*
X336102D01*
X7087Y342913D02*
Y350394D01*
X22835Y342913D02*
Y350394D01*
X7087D02*
X22835D01*
X7087Y342913D02*
X22835D01*
X12992Y346654D02*
X16929D01*
X14961Y344685D02*
Y348622D01*
X123228Y52362D02*
Y58661D01*
X134252Y52362D02*
Y58661D01*
X123228D02*
X134252D01*
X123228Y52362D02*
X134252D01*
X126772Y55512D02*
X130709D01*
X128740Y53543D02*
Y57480D01*
X126378Y147638D02*
X130315D01*
X128346Y145669D02*
Y149606D01*
X131496Y142126D02*
Y153150D01*
X125197Y142126D02*
Y153150D01*
X131496D01*
X125197Y142126D02*
X131496D01*
X133071Y142047D02*
X139370D01*
X133071Y153071D02*
X139370D01*
X133071Y142047D02*
Y153071D01*
X139370Y142047D02*
Y153071D01*
X136221Y145591D02*
Y149528D01*
X134252Y147559D02*
X138189D01*
X350551Y207323D02*
X356850D01*
X350551Y196299D02*
X356850D01*
Y207323D01*
X350551Y196299D02*
Y207323D01*
X353701Y199843D02*
Y203780D01*
X351732Y201811D02*
X355669D01*
X353858Y258976D02*
X360157D01*
X353858Y247953D02*
X360157D01*
Y258976D01*
X353858Y247953D02*
Y258976D01*
X357008Y251496D02*
Y255433D01*
X355039Y253465D02*
X358976D01*
X352126Y311457D02*
X358425D01*
X352126Y300433D02*
X358425D01*
Y311457D01*
X352126Y300433D02*
Y311457D01*
X355276Y303976D02*
Y307913D01*
X353307Y305945D02*
X357244D01*
X345329Y360976D02*
X351628D01*
X345329Y349953D02*
X351628D01*
Y360976D01*
X345329Y349953D02*
Y360976D01*
X348479Y353496D02*
Y357433D01*
X346510Y355465D02*
X350447D01*
X307579Y120965D02*
Y127264D01*
X296555Y120965D02*
Y127264D01*
Y120965D02*
X307579D01*
X296555Y127264D02*
X307579D01*
X300098Y124114D02*
X304035D01*
X302067Y122146D02*
Y126083D01*
X333780Y127284D02*
X340079D01*
X333780Y138307D02*
X340079D01*
X333780Y127284D02*
Y138307D01*
X340079Y127284D02*
Y138307D01*
X336929Y130827D02*
Y134764D01*
X334961Y132795D02*
X338898D01*
X150984Y53740D02*
X157283D01*
X150984Y42717D02*
X157283D01*
Y53740D01*
X150984Y42717D02*
Y53740D01*
X154134Y46260D02*
Y50197D01*
X152165Y48228D02*
X156102D01*
X134252Y44783D02*
Y51083D01*
X123228Y44783D02*
Y51083D01*
Y44783D02*
X134252D01*
X123228Y51083D02*
X134252D01*
X126772Y47933D02*
X130709D01*
X128740Y45965D02*
Y49902D01*
X120768Y32185D02*
Y43209D01*
X136516Y32185D02*
Y43209D01*
X120768D02*
X136516D01*
X120768Y32185D02*
X136516D01*
X126673Y37697D02*
X130610D01*
X128642Y35728D02*
Y39665D01*
X139772Y53700D02*
X146071D01*
X139772Y42677D02*
X146071D01*
Y53700D01*
X139772Y42677D02*
Y53700D01*
X142922Y46220D02*
Y50157D01*
X140953Y48188D02*
X144890D01*
X159896Y72727D02*
X166195D01*
X159896Y83750D02*
X166195D01*
X159896Y72727D02*
Y83750D01*
X166195Y72727D02*
Y83750D01*
X163046Y76270D02*
Y80207D01*
X161077Y78238D02*
X165014D01*
X245158Y106614D02*
X256181D01*
X245158Y122362D02*
X256181D01*
X245158Y106614D02*
Y122362D01*
X256181Y106614D02*
Y122362D01*
X250669Y112520D02*
Y116457D01*
X248701Y114488D02*
X252638D01*
X279921Y138583D02*
X283858D01*
X281890Y136614D02*
Y140551D01*
X278740Y144095D02*
X285039D01*
X278740Y133071D02*
Y144095D01*
X285039Y133071D02*
Y144095D01*
X278740Y133071D02*
X285039D01*
X294980Y139173D02*
X298917D01*
X296949Y137205D02*
Y141142D01*
X293799Y144685D02*
X300098D01*
X293799Y133661D02*
Y144685D01*
X300098Y133661D02*
Y144685D01*
X293799Y133661D02*
X300098D01*
X294370Y119888D02*
X305394D01*
X294370Y104140D02*
X305394D01*
Y119888D01*
X294370Y104140D02*
Y119888D01*
X299882Y110045D02*
Y113982D01*
X297913Y112014D02*
X301850D01*
X280787Y94291D02*
Y100591D01*
X269764Y94291D02*
Y100591D01*
Y94291D02*
X280787D01*
X269764Y100591D02*
X280787D01*
X273307Y97441D02*
X277244D01*
X275276Y95472D02*
Y99409D01*
X14764Y331988D02*
Y338287D01*
X3740Y331988D02*
Y338287D01*
Y331988D02*
X14764D01*
X3740Y338287D02*
X14764D01*
X7283Y335138D02*
X11220D01*
X9252Y333169D02*
Y337106D01*
X378465Y255787D02*
Y259724D01*
X376496Y257756D02*
X380433D01*
X372953Y260906D02*
X383976D01*
X372953Y254606D02*
X383976D01*
X372953D02*
Y260906D01*
X383976Y254606D02*
Y260906D01*
X378780Y303661D02*
Y307598D01*
X376811Y305630D02*
X380748D01*
X373268Y308780D02*
X384291D01*
X373268Y302480D02*
X384291D01*
X373268D02*
Y308780D01*
X384291Y302480D02*
Y308780D01*
X370828Y334240D02*
X374765D01*
X372797Y332272D02*
Y336209D01*
X375946Y328729D02*
Y339752D01*
X369647Y328729D02*
Y339752D01*
X375946D01*
X369647Y328729D02*
X375946D01*
X316063Y154527D02*
Y158465D01*
X314094Y156496D02*
X318032D01*
X310551Y159646D02*
X321575D01*
X310551Y153347D02*
X321575D01*
X310551D02*
Y159646D01*
X321575Y153347D02*
Y159646D01*
X138858Y285039D02*
X145158D01*
X138858Y296063D02*
X145158D01*
Y285039D02*
Y296063D01*
X138858Y285039D02*
Y296063D01*
X142008Y288583D02*
Y292520D01*
X140039Y290551D02*
X143976D01*
X160039Y275197D02*
Y281496D01*
X149016Y275197D02*
Y281496D01*
X160039D01*
X149016Y275197D02*
X160039D01*
X152559Y278346D02*
X156496D01*
X154527Y276378D02*
Y280315D01*
X148380Y285194D02*
X154679D01*
X148380Y296217D02*
X154679D01*
Y285194D02*
Y296217D01*
X148380Y285194D02*
Y296217D01*
X151530Y288737D02*
Y292674D01*
X149561Y290705D02*
X153498D01*
X239646Y82874D02*
Y89173D01*
X250669Y82874D02*
Y89173D01*
X239646Y82874D02*
X250669D01*
X239646Y89173D02*
X250669D01*
X243189Y86024D02*
X247126D01*
X245158Y84055D02*
Y87992D01*
X230118Y92795D02*
X236417D01*
X230118Y81772D02*
X236417D01*
X230118D02*
Y92795D01*
X236417Y81772D02*
Y92795D01*
X233268Y85315D02*
Y89252D01*
X231299Y87283D02*
X235236D01*
X273898Y68228D02*
Y74528D01*
X262874Y68228D02*
Y74528D01*
X273898D01*
X262874Y68228D02*
X273898D01*
X266417Y71378D02*
X270354D01*
X268386Y69410D02*
Y73347D01*
X141881Y364955D02*
X149361D01*
X141881Y380703D02*
X149361D01*
Y364955D02*
Y380703D01*
X141881Y364955D02*
Y380703D01*
X145621Y370860D02*
Y374797D01*
X143652Y372829D02*
X147589D01*
X195866Y279724D02*
Y287205D01*
X180118Y279724D02*
Y287205D01*
X195866D01*
X180118Y279724D02*
X195866D01*
X186024Y283465D02*
X189961D01*
X187992Y281496D02*
Y285433D01*
X314567Y105610D02*
Y111909D01*
X325591Y105610D02*
Y111909D01*
X314567Y105610D02*
X325591D01*
X314567Y111909D02*
X325591D01*
X318110Y108760D02*
X322047D01*
X320079Y106791D02*
Y110728D01*
X134744Y273563D02*
X138681D01*
X136713Y271594D02*
Y275531D01*
X278810Y51200D02*
Y57499D01*
X267787Y51200D02*
Y57499D01*
X278810D01*
X267787Y51200D02*
X278810D01*
X271330Y54350D02*
X275267D01*
X273299Y52381D02*
Y56318D01*
X178288Y247220D02*
Y251157D01*
X176319Y249188D02*
X180256D01*
X172163Y288417D02*
Y292354D01*
X170194Y290386D02*
X174131D01*
X121752Y373327D02*
Y377264D01*
X119783Y375295D02*
X123720D01*
X179940Y308339D02*
X186239D01*
X179940Y297315D02*
X186239D01*
X179940D02*
Y308339D01*
X186239Y297315D02*
Y308339D01*
X183090Y300858D02*
Y304795D01*
X181121Y302827D02*
X185058D01*
X133563Y379331D02*
X139862D01*
X133563Y368307D02*
X139862D01*
X133563D02*
Y379331D01*
X139862Y368307D02*
Y379331D01*
X136713Y371850D02*
Y375787D01*
X134744Y373819D02*
X138681D01*
X231535Y72244D02*
Y78543D01*
X242559Y72244D02*
Y78543D01*
X231535Y72244D02*
X242559D01*
X231535Y78543D02*
X242559D01*
X235079Y75394D02*
X239016D01*
X237047Y73425D02*
Y77362D01*
D162*
X37205Y89862D02*
X50984D01*
Y106398D01*
X37205Y89862D02*
Y106398D01*
X50984D01*
X339975Y183969D02*
Y197748D01*
X323440D02*
X339975D01*
X323440Y183969D02*
X339975D01*
X323440D02*
Y197748D01*
X342087Y238898D02*
Y252677D01*
X325551D02*
X342087D01*
X325551Y238898D02*
X342087D01*
X325551D02*
Y252677D01*
X342992Y290630D02*
Y304410D01*
X326457D02*
X342992D01*
X326457Y290630D02*
X342992D01*
X326457D02*
Y304410D01*
X342402Y341885D02*
Y355665D01*
X325866D02*
X342402D01*
X325866Y341885D02*
X342402D01*
X325866D02*
Y355665D01*
X186556Y242299D02*
Y256078D01*
X170020D02*
X186556D01*
X170020Y242299D02*
X186556D01*
X170020D02*
Y256078D01*
X179052Y282118D02*
Y298654D01*
X165273D02*
X179052D01*
X165273Y282118D02*
X179052D01*
X165273D02*
Y298654D01*
X130020Y368406D02*
Y382185D01*
X113484D02*
X130020D01*
X113484Y368406D02*
X130020D01*
X113484D02*
Y382185D01*
M02*
